<svg width="179" height="960" viewBox="0 0 179 960" fill="none" xmlns="http://www.w3.org/2000/svg">
<path d="M163.006 841.871L164.595 840.656L163.006 841.871ZM78.161 865.054L76.2217 864.565L76.2183 864.579L78.161 865.054ZM69.796 899.231L71.734 899.725L71.7364 899.716L71.7386 899.706L69.796 899.231ZM55.934 859.318L56.2356 861.295L58.5223 860.946L57.8468 858.734L55.934 859.318ZM46.374 828.009L48.2868 827.425L47.7391 825.631L45.9139 826.063L46.374 828.009ZM14.587 849.041L16.1953 850.23L16.2038 850.218L16.2121 850.207L14.587 849.041ZM16.499 935.32L14.922 936.55L16.499 935.32ZM101.344 911.42L103.289 911.885L103.291 911.876L103.293 911.867L101.344 911.42ZM109.231 877.004L111.18 877.451L111.182 877.442L109.231 877.004ZM118.313 925.043L118.202 923.046L116 923.168L116.336 925.348L118.313 925.043ZM123.332 957.547L121.355 957.852L121.637 959.679L123.481 959.541L123.332 957.547ZM162.289 936.993L160.718 935.755L162.289 936.993ZM178.868 889.91C178.868 869.774 174.257 853.291 164.595 840.656L161.417 843.086C170.397 854.829 174.868 870.372 174.868 889.91L178.868 889.91ZM164.595 840.656C154.911 827.993 142.144 821.468 126.439 821.468L126.439 825.468C140.848 825.468 152.459 831.371 161.417 843.086L164.595 840.656ZM126.439 821.468C113.961 821.468 103.146 825.122 94.5514 832.431C85.9739 839.725 79.7619 850.526 76.2217 864.565L80.1003 865.543C83.491 852.097 89.3486 842.105 97.1426 835.478C104.919 828.865 114.778 825.468 126.439 825.468L126.439 821.468ZM76.2183 864.579L67.8533 898.756L71.7386 899.706L80.1036 865.529L76.2183 864.579ZM67.858 898.737C66.3459 904.669 64.3062 908.853 61.8418 911.529C59.4401 914.137 56.5669 915.395 53.066 915.395L53.066 919.395C57.6911 919.395 61.6294 917.665 64.7844 914.239C67.8768 910.88 70.1391 905.982 71.734 899.725L67.858 898.737ZM53.066 915.395C47.621 915.395 43.0592 913.018 39.806 908.77C36.5214 904.481 34.512 898.191 34.512 890.388L30.512 890.388C30.512 898.837 32.6851 906.05 36.6303 911.202C40.6068 916.395 46.3219 919.395 53.066 919.395L53.066 915.395ZM34.512 890.388C34.512 874.65 43.3268 863.264 56.2356 861.295L55.6324 857.341C40.3391 859.674 30.512 873.144 30.512 890.388L34.512 890.388ZM57.8468 858.734L48.2868 827.425L44.4612 828.593L54.0212 859.902L57.8468 858.734ZM45.9139 826.063C32.3238 829.275 21.1448 836.469 12.9619 847.875L16.2121 850.207C23.8032 839.625 34.1342 832.957 46.834 829.955L45.9139 826.063ZM12.9786 847.852C4.57032 859.228 0.397983 872.802 0.397984 888.237L4.39798 888.237C4.39798 873.558 8.35165 860.842 16.1953 850.23L12.9786 847.852ZM0.397984 888.237C0.397985 907.924 5.26246 924.166 14.922 936.55L18.076 934.09C9.09353 922.574 4.39798 907.268 4.39798 888.237L0.397984 888.237ZM14.922 936.55C24.6191 948.982 37.3881 955.245 53.066 955.245L53.066 951.245C38.6299 951.245 27.0209 945.558 18.076 934.09L14.922 936.55ZM53.066 955.245C65.7967 955.245 76.7339 951.404 85.3249 943.973C93.8985 936.557 99.9898 925.693 103.289 911.885L99.3988 910.955C96.2452 924.153 90.506 934.203 82.7081 940.947C74.9276 947.677 64.9523 951.245 53.066 951.245L53.066 955.245ZM103.293 911.867L111.18 877.451L107.282 876.557L99.3945 910.973L103.293 911.867ZM111.182 877.442C112.451 871.793 114.418 867.83 116.926 865.296C119.382 862.815 122.496 861.557 126.439 861.557L126.439 857.557C121.539 857.557 117.364 859.167 114.083 862.482C110.856 865.743 108.64 870.504 107.28 876.566L111.182 877.442ZM126.439 861.557C131.843 861.557 136.337 864.016 139.545 868.465C142.79 872.963 144.754 879.568 144.754 887.759L148.754 887.759C148.754 878.981 146.655 871.485 142.79 866.125C138.887 860.714 133.224 857.557 126.439 857.557L126.439 861.557ZM144.754 887.759C144.754 898.304 142.03 906.928 137.398 912.983C132.792 919.004 126.221 922.601 118.202 923.046L118.424 927.04C127.613 926.529 135.262 922.358 140.575 915.414C145.861 908.503 148.754 898.962 148.754 887.759L144.754 887.759ZM116.336 925.348L121.355 957.852L125.309 957.242L120.29 924.738L116.336 925.348ZM123.481 959.541C140.043 958.305 153.707 951.107 163.86 938.231L160.718 935.755C151.273 947.735 138.647 954.399 123.183 955.553L123.481 959.541ZM163.86 938.231C173.995 925.377 178.868 909.136 178.868 889.91L174.868 889.91C174.868 908.446 170.181 923.753 160.718 935.755L163.86 938.231ZM174 764.174L176 764.174L176 762.174L174 762.174L174 764.174ZM5.26598 764.174L5.26598 762.174L3.26598 762.174L3.26598 764.174L5.26598 764.174ZM5.26598 799.068L3.26598 799.068L3.26598 801.068L5.26598 801.068L5.26598 799.068ZM174 799.068L174 801.068L176 801.068L176 799.068L174 799.068ZM174 762.174L5.26598 762.174L5.26598 766.174L174 766.174L174 762.174ZM3.26598 764.174L3.26598 799.068L7.26598 799.068L7.26598 764.174L3.26598 764.174ZM5.26598 801.068L174 801.068L174 797.068L5.26598 797.068L5.26598 801.068ZM176 799.068L176 764.174L172 764.174L172 799.068L176 799.068ZM5.26598 732.054L3.26598 732.054L3.26598 734.054L5.26598 734.054L5.26598 732.054ZM174 732.054L174 734.054L176 734.054L176 732.054L174 732.054ZM174 697.16L176 697.16L176 695.16L174 695.16L174 697.16ZM124.766 697.16L122.766 697.16L122.766 699.16L124.766 699.16L124.766 697.16ZM108.275 617.573L109.674 616.144L108.275 617.573ZM21.757 617.573L20.3584 616.144L21.757 617.573ZM92.023 697.16L92.023 699.16L94.023 699.16L94.023 697.16L92.023 697.16ZM38.009 697.16L36.009 697.16L36.009 699.16L38.009 699.16L38.009 697.16ZM5.26598 734.054L174 734.054L174 730.054L5.26598 730.054L5.26598 734.054ZM176 732.054L176 697.16L172 697.16L172 732.054L176 732.054ZM174 695.16L124.766 695.16L124.766 699.16L174 699.16L174 695.16ZM126.766 697.16L126.766 659.876L122.766 659.876L122.766 697.16L126.766 697.16ZM126.766 659.876C126.766 641.97 121.105 627.327 109.674 616.144L106.876 619.003C117.433 629.33 122.766 642.888 122.766 659.876L126.766 659.876ZM109.674 616.144C98.2398 604.958 83.3636 599.56 65.016 599.56L65.016 603.56C82.5184 603.56 96.3221 608.678 106.876 619.003L109.674 616.144ZM65.016 599.56C46.6684 599.56 31.7921 604.958 20.3584 616.144L23.1556 619.003C33.7098 608.678 47.5135 603.56 65.016 603.56L65.016 599.56ZM20.3584 616.144C8.92674 627.327 3.26598 641.97 3.26598 659.876L7.26598 659.876C7.26598 642.888 12.5992 629.33 23.1556 619.003L20.3584 616.144ZM3.26598 659.876L3.26598 732.054L7.26598 732.054L7.26598 659.876L3.26598 659.876ZM92.023 695.16L38.009 695.16L38.009 699.16L92.023 699.16L92.023 695.16ZM40.009 697.16L40.009 664.656L36.009 664.656L36.009 697.16L40.009 697.16ZM40.009 664.656C40.009 657.107 42.5362 650.885 46.8366 646.558C51.1352 642.232 57.3532 639.649 65.016 639.649L65.016 635.649C56.4268 635.649 49.1413 638.564 43.9993 643.738C38.8593 648.911 36.009 656.193 36.009 664.656L40.009 664.656ZM65.016 639.649C72.6788 639.649 78.8968 642.232 83.1953 646.558C87.4958 650.885 90.023 657.107 90.023 664.656L94.023 664.656C94.023 656.193 91.1727 648.911 86.0327 643.738C80.8907 638.564 73.6052 635.649 65.016 635.649L65.016 639.649ZM90.023 664.656L90.023 697.16L94.023 697.16L94.023 664.656L90.023 664.656ZM104.929 542.622L102.929 542.622L102.929 544.622L104.929 544.622L104.929 542.622ZM104.929 474.985L106.929 474.985L106.929 472.985L104.929 472.985L104.929 474.985ZM74.098 474.985L74.098 472.985L72.098 472.985L72.098 474.985L74.098 474.985ZM74.098 542.622L74.098 544.622L76.098 544.622L76.098 542.622L74.098 542.622ZM38.009 542.622L36.009 542.622L36.009 544.622L38.009 544.622L38.009 542.622ZM38.009 462.796L40.009 462.796L40.009 460.796L38.009 460.796L38.009 462.796ZM5.26597 462.796L5.26597 460.796L3.26597 460.796L3.26597 462.796L5.26597 462.796ZM5.26597 577.516L3.26597 577.516L3.26597 579.516L5.26597 579.516L5.26597 577.516ZM174 577.516L174 579.516L176 579.516L176 577.516L174 577.516ZM174 459.689L176 459.689L176 457.689L174 457.689L174 459.689ZM141.257 459.689L141.257 457.689L139.257 457.689L139.257 459.689L141.257 459.689ZM141.257 542.622L141.257 544.622L143.257 544.622L143.257 542.622L141.257 542.622ZM106.929 542.622L106.929 474.985L102.929 474.985L102.929 542.622L106.929 542.622ZM104.929 472.985L74.098 472.985L74.098 476.985L104.929 476.985L104.929 472.985ZM72.098 474.985L72.098 542.622L76.098 542.622L76.098 474.985L72.098 474.985ZM74.098 540.622L38.009 540.622L38.009 544.622L74.098 544.622L74.098 540.622ZM40.009 542.622L40.009 462.796L36.009 462.796L36.009 542.622L40.009 542.622ZM38.009 460.796L5.26597 460.796L5.26597 464.796L38.009 464.796L38.009 460.796ZM3.26597 462.796L3.26597 577.516L7.26597 577.516L7.26597 462.796L3.26597 462.796ZM5.26597 579.516L174 579.516L174 575.516L5.26597 575.516L5.26597 579.516ZM176 577.516L176 459.689L172 459.689L172 577.516L176 577.516ZM174 457.689L141.257 457.689L141.257 461.689L174 461.689L174 457.689ZM139.257 459.689L139.257 542.622L143.257 542.622L143.257 459.689L139.257 459.689ZM141.257 540.622L104.929 540.622L104.929 544.622L141.257 544.622L141.257 540.622ZM174 301.264L176 301.264L176 298.044L173.113 299.471L174 301.264ZM109.231 333.29L107.437 334.175L108.323 335.97L110.117 335.083L109.231 333.29ZM20.562 321.101L22.0079 322.483L22.0079 322.483L20.562 321.101ZM5.26597 435.582L3.26597 435.582L3.26597 437.582L5.26597 437.582L5.26597 435.582ZM174 435.582L174 437.582L176 437.582L176 435.582L174 435.582ZM174 400.688L176 400.688L176 398.688L174 398.688L174 400.688ZM115.923 400.688L113.923 400.688L113.923 402.688L115.923 402.688L115.923 400.688ZM115.923 366.989L115.086 365.173L113.923 365.709L113.923 366.989L115.923 366.989ZM174 340.221L174.837 342.038L176 341.502L176 340.221L174 340.221ZM83.18 400.688L83.18 402.688L85.18 402.688L85.18 400.688L83.18 400.688ZM38.009 400.688L36.009 400.688L36.009 402.688L38.009 402.688L38.009 400.688ZM173.113 299.471L108.344 331.497L110.117 335.083L174.886 303.057L173.113 299.471ZM111.025 332.405C101.806 313.72 83.6119 303.088 60.714 303.088L60.714 307.088C82.27 307.088 98.9695 317.01 107.437 334.175L111.025 332.405ZM60.714 303.088C43.754 303.088 29.8206 308.517 19.116 319.719L22.0079 322.483C31.8573 312.175 44.6919 307.088 60.714 307.088L60.714 303.088ZM19.116 319.719C8.42076 330.912 3.26596 345.302 3.26596 363.165L7.26596 363.165C7.26596 346.134 12.1492 332.8 22.0079 322.483L19.116 319.719ZM3.26596 363.165L3.26597 435.582L7.26597 435.582L7.26596 363.165L3.26596 363.165ZM5.26597 437.582L174 437.582L174 433.582L5.26597 433.582L5.26597 437.582ZM176 435.582L176 400.688L172 400.688L172 435.582L176 435.582ZM174 398.688L115.923 398.688L115.923 402.688L174 402.688L174 398.688ZM117.923 400.688L117.923 366.989L113.923 366.989L113.923 400.688L117.923 400.688ZM116.76 368.806L174.837 342.038L173.163 338.405L115.086 365.173L116.76 368.806ZM176 340.221L176 301.264L172 301.264L172 340.221L176 340.221ZM40.009 365.794C40.009 358.918 42.1463 353.274 45.7267 349.37C49.293 345.482 54.4196 343.177 60.714 343.177L60.714 339.177C53.3853 339.177 47.1594 341.891 42.779 346.667C38.4127 351.427 36.009 358.091 36.009 365.794L40.009 365.794ZM60.714 343.177C66.8787 343.177 71.9459 345.475 75.487 349.365C79.0424 353.27 81.18 358.918 81.18 365.794L85.18 365.794C85.18 358.091 82.7765 351.43 78.4449 346.672C74.099 341.898 67.9333 339.177 60.714 339.177L60.714 343.177ZM81.18 365.794L81.18 400.688L85.18 400.688L85.18 365.794L81.18 365.794ZM83.18 398.688L38.009 398.688L38.009 402.688L83.18 402.688L83.18 398.688ZM40.009 400.688L40.009 365.794L36.009 365.794L36.009 400.688L40.009 400.688ZM174 127.918L176 127.918L176 125.066L173.318 126.038L174 127.918ZM5.26596 189.102L4.58419 187.222L3.26596 187.7L3.26596 189.102L5.26596 189.102ZM5.26596 229.971L3.26596 229.971L3.26596 231.373L4.58419 231.851L5.26596 229.971ZM174 291.155L173.318 293.035L176 294.008L176 291.155L174 291.155ZM174 254.349L176 254.349L176 252.915L174.642 252.455L174 254.349ZM144.364 244.311L142.364 244.311L142.364 245.745L143.722 246.206L144.364 244.311ZM144.364 174.762L143.722 172.868L142.364 173.328L142.364 174.762L144.364 174.762ZM174 164.724L174.642 166.619L176 166.158L176 164.724L174 164.724ZM42.072 209.417L41.43 207.523L35.8688 209.408L41.4243 211.31L42.072 209.417ZM113.294 185.278L115.294 185.278L115.294 182.489L112.652 183.384L113.294 185.278ZM113.294 233.795L112.646 235.687L115.294 236.594L115.294 233.795L113.294 233.795ZM173.318 126.038L4.58419 187.222L5.94774 190.982L174.682 129.798L173.318 126.038ZM3.26596 189.102L3.26596 229.971L7.26596 229.971L7.26596 189.102L3.26596 189.102ZM4.58419 231.851L173.318 293.035L174.682 289.275L5.94774 228.091L4.58419 231.851ZM176 291.155L176 254.349L172 254.349L172 291.155L176 291.155ZM174.642 252.455L145.006 242.417L143.722 246.206L173.358 256.244L174.642 252.455ZM146.364 244.311L146.364 174.762L142.364 174.762L142.364 244.311L146.364 244.311ZM145.006 176.657L174.642 166.619L173.358 162.83L143.722 172.868L145.006 176.657ZM176 164.724L176 127.918L172 127.918L172 164.724L176 164.724ZM42.7139 211.311L113.936 187.172L112.652 183.384L41.43 207.523L42.7139 211.311ZM111.294 185.278L111.294 233.795L115.294 233.795L115.294 185.278L111.294 185.278ZM113.942 231.903L42.7196 207.525L41.4243 211.31L112.646 235.687L113.942 231.903ZM5.26596 142.852L3.26596 142.852L3.26596 144.852L5.26596 144.852L5.26596 142.852ZM38.009 142.852L38.009 144.852L40.009 144.852L40.009 142.852L38.009 142.852ZM38.009 90.272L38.009 88.272L36.009 88.272L36.009 90.272L38.009 90.272ZM174 90.272L174 92.272L176 92.272L176 90.272L174 90.272ZM174 55.378L176 55.378L176 53.378L174 53.378L174 55.378ZM38.009 55.378L36.009 55.378L36.009 57.378L38.009 57.378L38.009 55.378ZM38.009 2.79803L40.009 2.79803L40.009 0.798029L38.009 0.798029L38.009 2.79803ZM5.26595 2.79803L5.26595 0.798031L3.26595 0.798031L3.26595 2.79803L5.26595 2.79803ZM5.26596 144.852L38.009 144.852L38.009 140.852L5.26596 140.852L5.26596 144.852ZM40.009 142.852L40.009 90.272L36.009 90.272L36.009 142.852L40.009 142.852ZM38.009 92.272L174 92.272L174 88.272L38.009 88.272L38.009 92.272ZM176 90.272L176 55.378L172 55.378L172 90.272L176 90.272ZM174 53.378L38.009 53.378L38.009 57.378L174 57.378L174 53.378ZM40.009 55.378L40.009 2.79803L36.009 2.79803L36.009 55.378L40.009 55.378ZM38.009 0.798029L5.26595 0.798031L5.26595 4.79803L38.009 4.79803L38.009 0.798029ZM3.26595 2.79803L3.26596 142.852L7.26596 142.852L7.26595 2.79803L3.26595 2.79803Z" fill="#2A1B3C"/>
</svg>
