<svg width="187" height="534" viewBox="0 0 187 534" fill="none" xmlns="http://www.w3.org/2000/svg">
<path d="M128.16 180.672C124.416 203.424 107.424 216.096 81.216 216.384H77.76V248.64H124.704V384H166.752V180.672H128.16Z" fill="#2A1B3C" fill-opacity="0.01"/>
<path d="M128.16 180.672V176.672H124.764L124.213 180.022L128.16 180.672ZM81.216 216.384V220.384H81.238L81.26 220.384L81.216 216.384ZM77.76 216.384V212.384H73.76V216.384H77.76ZM77.76 248.64H73.76V252.64H77.76V248.64ZM124.704 248.64H128.704V244.64H124.704V248.64ZM124.704 384H120.704V388H124.704V384ZM166.752 384V388H170.752V384H166.752ZM166.752 180.672H170.752V176.672H166.752V180.672ZM124.213 180.022C122.488 190.506 117.781 198.403 110.698 203.762C103.561 209.164 93.6635 212.247 81.172 212.384L81.26 220.384C94.9765 220.233 106.679 216.836 115.526 210.142C124.427 203.405 130.088 193.59 132.107 181.321L124.213 180.022ZM81.216 212.384H77.76V220.384H81.216V212.384ZM73.76 216.384V248.64H81.76V216.384H73.76ZM77.76 252.64H124.704V244.64H77.76V252.64ZM120.704 248.64V384H128.704V248.64H120.704ZM124.704 388H166.752V380H124.704V388ZM170.752 384V180.672H162.752V384H170.752ZM166.752 176.672H128.16V184.672H166.752V176.672Z" fill="black" fill-opacity="0.01"/>
<path d="M122.16 174.672C118.416 197.424 101.424 210.096 75.216 210.384H71.76V242.64H118.704V378H160.752V174.672H122.16Z" fill="#2A1B3C" fill-opacity="0.03"/>
<path d="M122.16 174.672V170.672H118.764L118.213 174.022L122.16 174.672ZM75.216 210.384V214.384H75.238L75.26 214.384L75.216 210.384ZM71.76 210.384V206.384H67.76V210.384H71.76ZM71.76 242.64H67.76V246.64H71.76V242.64ZM118.704 242.64H122.704V238.64H118.704V242.64ZM118.704 378H114.704V382H118.704V378ZM160.752 378V382H164.752V378H160.752ZM160.752 174.672H164.752V170.672H160.752V174.672ZM118.213 174.022C116.488 184.506 111.781 192.403 104.698 197.762C97.5608 203.164 87.6635 206.247 75.172 206.384L75.26 214.384C88.9765 214.233 100.679 210.836 109.526 204.142C118.427 197.405 124.088 187.59 126.107 175.321L118.213 174.022ZM75.216 206.384H71.76V214.384H75.216V206.384ZM67.76 210.384V242.64H75.76V210.384H67.76ZM71.76 246.64H118.704V238.64H71.76V246.64ZM114.704 242.64V378H122.704V242.64H114.704ZM118.704 382H160.752V374H118.704V382ZM164.752 378V174.672H156.752V378H164.752ZM160.752 170.672H122.16V178.672H160.752V170.672Z" fill="black" fill-opacity="0.03"/>
<path d="M116.16 168.672C112.416 191.424 95.424 204.096 69.216 204.384H65.76V236.64H112.704V372H154.752V168.672H116.16Z" fill="#2A1B3C" fill-opacity="0.05"/>
<path d="M116.16 168.672V164.672H112.764L112.213 168.022L116.16 168.672ZM69.216 204.384V208.384H69.238L69.26 208.384L69.216 204.384ZM65.76 204.384V200.384H61.76V204.384H65.76ZM65.76 236.64H61.76V240.64H65.76V236.64ZM112.704 236.64H116.704V232.64H112.704V236.64ZM112.704 372H108.704V376H112.704V372ZM154.752 372V376H158.752V372H154.752ZM154.752 168.672H158.752V164.672H154.752V168.672ZM112.213 168.022C110.488 178.506 105.781 186.403 98.6982 191.762C91.5608 197.164 81.6635 200.247 69.172 200.384L69.26 208.384C82.9765 208.233 94.6792 204.836 103.526 198.142C112.427 191.405 118.088 181.59 120.107 169.321L112.213 168.022ZM69.216 200.384H65.76V208.384H69.216V200.384ZM61.76 204.384V236.64H69.76V204.384H61.76ZM65.76 240.64H112.704V232.64H65.76V240.64ZM108.704 236.64V372H116.704V236.64H108.704ZM112.704 376H154.752V368H112.704V376ZM158.752 372V168.672H150.752V372H158.752ZM154.752 164.672H116.16V172.672H154.752V164.672Z" fill="black" fill-opacity="0.05"/>
<path d="M110.16 162.672C106.416 185.424 89.424 198.096 63.216 198.384H59.76V230.64H106.704V366H148.752V162.672H110.16Z" fill="#2A1B3C" fill-opacity="0.1"/>
<path d="M110.16 162.672V158.672H106.764L106.213 162.022L110.16 162.672ZM63.216 198.384V202.384H63.238L63.26 202.384L63.216 198.384ZM59.76 198.384V194.384H55.76V198.384H59.76ZM59.76 230.64H55.76V234.64H59.76V230.64ZM106.704 230.64H110.704V226.64H106.704V230.64ZM106.704 366H102.704V370H106.704V366ZM148.752 366V370H152.752V366H148.752ZM148.752 162.672H152.752V158.672H148.752V162.672ZM106.213 162.022C104.488 172.506 99.7806 180.403 92.6982 185.762C85.5608 191.164 75.6635 194.247 63.172 194.384L63.26 202.384C76.9765 202.233 88.6792 198.836 97.5258 192.142C106.427 185.405 112.088 175.59 114.107 163.321L106.213 162.022ZM63.216 194.384H59.76V202.384H63.216V194.384ZM55.76 198.384V230.64H63.76V198.384H55.76ZM59.76 234.64H106.704V226.64H59.76V234.64ZM102.704 230.64V366H110.704V230.64H102.704ZM106.704 370H148.752V362H106.704V370ZM152.752 366V162.672H144.752V366H152.752ZM148.752 158.672H110.16V166.672H148.752V158.672Z" fill="black" fill-opacity="0.1"/>
<path d="M104.16 156.672C100.416 179.424 83.424 192.096 57.216 192.384H53.76V224.64H100.704V360H142.752V156.672H104.16Z" fill="#2A1B3C" fill-opacity="0.2"/>
<path d="M104.16 156.672V152.672H100.764L100.213 156.022L104.16 156.672ZM57.216 192.384V196.384H57.238L57.26 196.384L57.216 192.384ZM53.76 192.384V188.384H49.76V192.384H53.76ZM53.76 224.64H49.76V228.64H53.76V224.64ZM100.704 224.64H104.704V220.64H100.704V224.64ZM100.704 360H96.704V364H100.704V360ZM142.752 360V364H146.752V360H142.752ZM142.752 156.672H146.752V152.672H142.752V156.672ZM100.213 156.022C98.4879 166.506 93.7806 174.403 86.6982 179.762C79.5608 185.164 69.6635 188.247 57.172 188.384L57.26 196.384C70.9765 196.233 82.6792 192.836 91.5258 186.142C100.427 179.405 106.088 169.59 108.107 157.321L100.213 156.022ZM57.216 188.384H53.76V196.384H57.216V188.384ZM49.76 192.384V224.64H57.76V192.384H49.76ZM53.76 228.64H100.704V220.64H53.76V228.64ZM96.704 224.64V360H104.704V224.64H96.704ZM100.704 364H142.752V356H100.704V364ZM146.752 360V156.672H138.752V360H146.752ZM142.752 152.672H104.16V160.672H142.752V152.672Z" fill="black" fill-opacity="0.2"/>
<path d="M98.16 150.672C94.416 173.424 77.424 186.096 51.216 186.384H47.76V218.64H94.704V354H136.752V150.672H98.16Z" fill="#2A1B3C" fill-opacity="0.3"/>
<path d="M98.16 150.672V146.672H94.7644L94.2131 150.022L98.16 150.672ZM51.216 186.384V190.384H51.238L51.26 190.384L51.216 186.384ZM47.76 186.384V182.384H43.76V186.384H47.76ZM47.76 218.64H43.76V222.64H47.76V218.64ZM94.704 218.64H98.704V214.64H94.704V218.64ZM94.704 354H90.704V358H94.704V354ZM136.752 354V358H140.752V354H136.752ZM136.752 150.672H140.752V146.672H136.752V150.672ZM94.2131 150.022C92.4879 160.506 87.7806 168.403 80.6982 173.762C73.5608 179.164 63.6635 182.247 51.172 182.384L51.26 190.384C64.9765 190.233 76.6792 186.836 85.5258 180.142C94.4274 173.405 100.088 163.59 102.107 151.321L94.2131 150.022ZM51.216 182.384H47.76V190.384H51.216V182.384ZM43.76 186.384V218.64H51.76V186.384H43.76ZM47.76 222.64H94.704V214.64H47.76V222.64ZM90.704 218.64V354H98.704V218.64H90.704ZM94.704 358H136.752V350H94.704V358ZM140.752 354V150.672H132.752V354H140.752ZM136.752 146.672H98.16V154.672H136.752V146.672Z" fill="black" fill-opacity="0.3"/>
<path d="M92.16 144.672C88.416 167.424 71.424 180.096 45.216 180.384H41.76V212.64H88.704V348H130.752V144.672H92.16Z" fill="#2A1B3C" fill-opacity="0.4"/>
<path d="M92.16 144.672V140.672H88.7644L88.2131 144.022L92.16 144.672ZM45.216 180.384V184.384H45.238L45.26 184.384L45.216 180.384ZM41.76 180.384V176.384H37.76V180.384H41.76ZM41.76 212.64H37.76V216.64H41.76V212.64ZM88.704 212.64H92.704V208.64H88.704V212.64ZM88.704 348H84.704V352H88.704V348ZM130.752 348V352H134.752V348H130.752ZM130.752 144.672H134.752V140.672H130.752V144.672ZM88.2131 144.022C86.4879 154.506 81.7806 162.403 74.6982 167.762C67.5608 173.164 57.6635 176.247 45.172 176.384L45.26 184.384C58.9765 184.233 70.6792 180.836 79.5258 174.142C88.4274 167.405 94.0881 157.59 96.1069 145.321L88.2131 144.022ZM45.216 176.384H41.76V184.384H45.216V176.384ZM37.76 180.384V212.64H45.76V180.384H37.76ZM41.76 216.64H88.704V208.64H41.76V216.64ZM84.704 212.64V348H92.704V212.64H84.704ZM88.704 352H130.752V344H88.704V352ZM134.752 348V144.672H126.752V348H134.752ZM130.752 140.672H92.16V148.672H130.752V140.672Z" fill="black" fill-opacity="0.4"/>
<path d="M86.16 138.672C82.416 161.424 65.424 174.096 39.216 174.384H35.76V206.64H82.704V342H124.752V138.672H86.16Z" fill="#2A1B3C" fill-opacity="0.5"/>
<path d="M86.16 138.672V134.672H82.7644L82.2131 138.022L86.16 138.672ZM39.216 174.384V178.384H39.238L39.26 178.384L39.216 174.384ZM35.76 174.384V170.384H31.76V174.384H35.76ZM35.76 206.64H31.76V210.64H35.76V206.64ZM82.704 206.64H86.704V202.64H82.704V206.64ZM82.704 342H78.704V346H82.704V342ZM124.752 342V346H128.752V342H124.752ZM124.752 138.672H128.752V134.672H124.752V138.672ZM82.2131 138.022C80.4879 148.506 75.7806 156.403 68.6982 161.762C61.5608 167.164 51.6635 170.247 39.172 170.384L39.26 178.384C52.9765 178.233 64.6792 174.836 73.5258 168.142C82.4274 161.405 88.0881 151.59 90.1069 139.321L82.2131 138.022ZM39.216 170.384H35.76V178.384H39.216V170.384ZM31.76 174.384V206.64H39.76V174.384H31.76ZM35.76 210.64H82.704V202.64H35.76V210.64ZM78.704 206.64V342H86.704V206.64H78.704ZM82.704 346H124.752V338H82.704V346ZM128.752 342V138.672H120.752V342H128.752ZM124.752 134.672H86.16V142.672H124.752V134.672Z" fill="black" fill-opacity="0.5"/>
<path d="M80.16 132.672C76.416 155.424 59.424 168.096 33.216 168.384H29.76V200.64H76.704V336H118.752V132.672H80.16Z" fill="#2A1B3C" fill-opacity="0.6"/>
<path d="M80.16 132.672V128.672H76.7644L76.2131 132.022L80.16 132.672ZM33.216 168.384V172.384H33.238L33.26 172.384L33.216 168.384ZM29.76 168.384V164.384H25.76V168.384H29.76ZM29.76 200.64H25.76V204.64H29.76V200.64ZM76.704 200.64H80.704V196.64H76.704V200.64ZM76.704 336H72.704V340H76.704V336ZM118.752 336V340H122.752V336H118.752ZM118.752 132.672H122.752V128.672H118.752V132.672ZM76.2131 132.022C74.4879 142.506 69.7806 150.403 62.6982 155.762C55.5608 161.164 45.6635 164.247 33.172 164.384L33.26 172.384C46.9765 172.233 58.6792 168.836 67.5258 162.142C76.4274 155.405 82.0881 145.59 84.1069 133.321L76.2131 132.022ZM33.216 164.384H29.76V172.384H33.216V164.384ZM25.76 168.384V200.64H33.76V168.384H25.76ZM29.76 204.64H76.704V196.64H29.76V204.64ZM72.704 200.64V336H80.704V200.64H72.704ZM76.704 340H118.752V332H76.704V340ZM122.752 336V132.672H114.752V336H122.752ZM118.752 128.672H80.16V136.672H118.752V128.672Z" fill="black" fill-opacity="0.6"/>
<path d="M74.16 126.672C70.416 149.424 53.424 162.096 27.216 162.384H23.76V194.64H70.704V330H112.752V126.672H74.16Z" fill="#2A1B3C" fill-opacity="0.7"/>
<path d="M74.16 126.672V122.672H70.7644L70.2131 126.022L74.16 126.672ZM27.216 162.384V166.384H27.238L27.26 166.384L27.216 162.384ZM23.76 162.384V158.384H19.76V162.384H23.76ZM23.76 194.64H19.76V198.64H23.76V194.64ZM70.704 194.64H74.704V190.64H70.704V194.64ZM70.704 330H66.704V334H70.704V330ZM112.752 330V334H116.752V330H112.752ZM112.752 126.672H116.752V122.672H112.752V126.672ZM70.2131 126.022C68.4879 136.506 63.7806 144.403 56.6982 149.762C49.5608 155.164 39.6635 158.247 27.172 158.384L27.26 166.384C40.9765 166.233 52.6792 162.836 61.5258 156.142C70.4274 149.405 76.0881 139.59 78.1069 127.321L70.2131 126.022ZM27.216 158.384H23.76V166.384H27.216V158.384ZM19.76 162.384V194.64H27.76V162.384H19.76ZM23.76 198.64H70.704V190.64H23.76V198.64ZM66.704 194.64V330H74.704V194.64H66.704ZM70.704 334H112.752V326H70.704V334ZM116.752 330V126.672H108.752V330H116.752ZM112.752 122.672H74.16V130.672H112.752V122.672Z" fill="black" fill-opacity="0.7"/>
<path d="M68.16 119.672C64.416 142.424 47.424 155.096 21.216 155.384H17.76V187.64H64.704V323H106.752V119.672H68.16Z" fill="#2A1B3C" fill-opacity="0.8"/>
<path d="M68.16 119.672V115.672H64.7644L64.2131 119.022L68.16 119.672ZM21.216 155.384V159.384H21.238L21.26 159.384L21.216 155.384ZM17.76 155.384V151.384H13.76V155.384H17.76ZM17.76 187.64H13.76V191.64H17.76V187.64ZM64.704 187.64H68.704V183.64H64.704V187.64ZM64.704 323H60.704V327H64.704V323ZM106.752 323V327H110.752V323H106.752ZM106.752 119.672H110.752V115.672H106.752V119.672ZM64.2131 119.022C62.4879 129.506 57.7806 137.403 50.6982 142.762C43.5608 148.164 33.6635 151.247 21.172 151.384L21.26 159.384C34.9765 159.233 46.6792 155.836 55.5258 149.142C64.4274 142.405 70.0881 132.59 72.1069 120.321L64.2131 119.022ZM21.216 151.384H17.76V159.384H21.216V151.384ZM13.76 155.384V187.64H21.76V155.384H13.76ZM17.76 191.64H64.704V183.64H17.76V191.64ZM60.704 187.64V323H68.704V187.64H60.704ZM64.704 327H106.752V319H64.704V327ZM110.752 323V119.672H102.752V323H110.752ZM106.752 115.672H68.16V123.672H106.752V115.672Z" fill="black" fill-opacity="0.8"/>
<path d="M62.16 113.672C58.416 136.424 41.424 149.096 15.216 149.384H11.76V181.64H58.704V317H100.752V113.672H62.16Z" fill="#2A1B3C" fill-opacity="0.9"/>
<path d="M62.16 113.672V109.672H58.7644L58.2131 113.022L62.16 113.672ZM15.216 149.384V153.384H15.238L15.26 153.384L15.216 149.384ZM11.76 149.384V145.384H7.76V149.384H11.76ZM11.76 181.64H7.76V185.64H11.76V181.64ZM58.704 181.64H62.704V177.64H58.704V181.64ZM58.704 317H54.704V321H58.704V317ZM100.752 317V321H104.752V317H100.752ZM100.752 113.672H104.752V109.672H100.752V113.672ZM58.2131 113.022C56.4879 123.506 51.7806 131.403 44.6982 136.762C37.5608 142.164 27.6635 145.247 15.172 145.384L15.26 153.384C28.9765 153.233 40.6792 149.836 49.5258 143.142C58.4274 136.405 64.0881 126.59 66.1069 114.321L58.2131 113.022ZM15.216 145.384H11.76V153.384H15.216V145.384ZM7.76 149.384V181.64H15.76V149.384H7.76ZM11.76 185.64H58.704V177.64H11.76V185.64ZM54.704 181.64V317H62.704V181.64H54.704ZM58.704 321H100.752V313H58.704V321ZM104.752 317V113.672H96.752V317H104.752ZM100.752 109.672H62.16V117.672H100.752V109.672Z" fill="black" fill-opacity="0.9"/>
<path d="M56.16 107.672C52.416 130.424 35.424 143.096 9.216 143.384H5.76V175.64H52.704V311H94.752V107.672H56.16Z" fill="white"/>
<path d="M56.16 107.672V103.672H52.7644L52.2131 107.022L56.16 107.672ZM9.216 143.384V147.384H9.23798L9.25995 147.384L9.216 143.384ZM5.76 143.384V139.384H1.76V143.384H5.76ZM5.76 175.64H1.76V179.64H5.76V175.64ZM52.704 175.64H56.704V171.64H52.704V175.64ZM52.704 311H48.704V315H52.704V311ZM94.752 311V315H98.752V311H94.752ZM94.752 107.672H98.752V103.672H94.752V107.672ZM52.2131 107.022C50.4879 117.506 45.7806 125.403 38.6982 130.762C31.5608 136.164 21.6635 139.247 9.17205 139.384L9.25995 147.384C22.9765 147.233 34.6792 143.836 43.5258 137.142C52.4274 130.405 58.0881 120.59 60.1069 108.321L52.2131 107.022ZM9.216 139.384H5.76V147.384H9.216V139.384ZM1.76 143.384V175.64H9.76V143.384H1.76ZM5.76 179.64H52.704V171.64H5.76V179.64ZM48.704 175.64V311H56.704V175.64H48.704ZM52.704 315H94.752V307H52.704V315ZM98.752 311V107.672H90.752V311H98.752ZM94.752 103.672H56.16V111.672H94.752V103.672Z" fill="black"/>
</svg>
