<svg width="233" height="534" viewBox="0 0 233 534" fill="none" xmlns="http://www.w3.org/2000/svg">
<path d="M186.336 295.584C210.816 279.168 222.912 260.448 222.912 238.848C222.912 220.128 216.288 205.44 203.328 194.208C190.368 182.976 172.8 177.216 151.2 177.216C132.48 177.216 116.352 182.976 103.392 194.208C90.432 205.44 82.944 220.416 80.64 238.848L121.248 244.896C122.112 229.056 134.208 218.112 151.776 218.112C167.616 218.112 178.272 227.328 178.272 241.44C178.272 250.944 173.088 259.296 162.72 266.496L118.656 295.872C90.144 314.592 79.488 337.056 79.488 376.224V384H222.912V346.56H128.16C128.448 338.208 133.344 330.72 143.136 324.096L186.336 295.584Z" fill="#2A1B3C" fill-opacity="0.01"/>
<path d="M186.336 295.584L188.539 298.922L188.552 298.914L188.564 298.906L186.336 295.584ZM203.328 194.208L205.948 191.185H205.948L203.328 194.208ZM103.392 194.208L100.772 191.185H100.772L103.392 194.208ZM80.64 238.848L76.6709 238.352L76.1863 242.229L80.0508 242.804L80.64 238.848ZM121.248 244.896L120.659 248.852L125.003 249.499L125.242 245.114L121.248 244.896ZM162.72 266.496L164.939 269.824L164.97 269.803L165.002 269.781L162.72 266.496ZM118.656 295.872L120.851 299.216L120.863 299.208L120.875 299.2L118.656 295.872ZM79.488 384H75.488V388H79.488V384ZM222.912 384V388H226.912V384H222.912ZM222.912 346.56H226.912V342.56H222.912V346.56ZM128.16 346.56L124.162 346.422L124.02 350.56H128.16V346.56ZM143.136 324.096L140.933 320.758L140.914 320.77L140.895 320.783L143.136 324.096ZM188.564 298.906C213.704 282.048 226.912 262.243 226.912 238.848H218.912C218.912 258.653 207.928 276.288 184.108 292.262L188.564 298.906ZM226.912 238.848C226.912 219.042 219.839 203.224 205.948 191.185L200.708 197.231C212.738 207.656 218.912 221.214 218.912 238.848H226.912ZM205.948 191.185C192.092 179.177 173.513 173.216 151.2 173.216V181.216C172.087 181.216 188.644 186.775 200.708 197.231L205.948 191.185ZM151.2 173.216C131.606 173.216 114.523 179.268 100.772 191.185L106.012 197.231C118.181 186.684 133.354 181.216 151.2 181.216V173.216ZM100.772 191.185C86.9774 203.141 79.082 219.063 76.6709 238.352L84.6091 239.344C86.806 221.769 93.8866 207.739 106.012 197.231L100.772 191.185ZM80.0508 242.804L120.659 248.852L121.837 240.94L81.2292 234.892L80.0508 242.804ZM125.242 245.114C125.619 238.199 128.418 232.525 132.899 228.559C137.397 224.578 143.829 222.112 151.776 222.112V214.112C142.155 214.112 133.755 217.118 127.597 222.569C121.422 228.035 117.741 235.753 117.254 244.678L125.242 245.114ZM151.776 222.112C158.938 222.112 164.558 224.191 168.328 227.493C172.048 230.751 174.272 235.458 174.272 241.44H182.272C182.272 233.31 179.168 226.353 173.6 221.475C168.082 216.641 160.454 214.112 151.776 214.112V222.112ZM174.272 241.44C174.272 249.222 170.119 256.488 160.438 263.211L165.002 269.781C176.057 262.104 182.272 252.666 182.272 241.44H174.272ZM160.501 263.168L116.437 292.544L120.875 299.2L164.939 269.824L160.501 263.168ZM116.461 292.528C101.757 302.182 91.3959 312.984 84.7804 326.636C78.1922 340.231 75.488 356.306 75.488 376.224H83.488C83.488 356.974 86.1118 342.233 91.9796 330.124C97.8201 318.072 107.043 308.282 120.851 299.216L116.461 292.528ZM75.488 376.224V384H83.488V376.224H75.488ZM79.488 388H222.912V380H79.488V388ZM226.912 384V346.56H218.912V384H226.912ZM222.912 342.56H128.16V350.56H222.912V342.56ZM132.158 346.698C132.386 340.067 136.214 333.607 145.377 327.409L140.895 320.783C130.474 327.833 124.51 336.349 124.162 346.422L132.158 346.698ZM145.339 327.434L188.539 298.922L184.133 292.246L140.933 320.758L145.339 327.434Z" fill="black" fill-opacity="0.01"/>
<path d="M180.336 289.584C204.816 273.168 216.912 254.448 216.912 232.848C216.912 214.128 210.288 199.44 197.328 188.208C184.368 176.976 166.8 171.216 145.2 171.216C126.48 171.216 110.352 176.976 97.392 188.208C84.432 199.44 76.944 214.416 74.64 232.848L115.248 238.896C116.112 223.056 128.208 212.112 145.776 212.112C161.616 212.112 172.272 221.328 172.272 235.44C172.272 244.944 167.088 253.296 156.72 260.496L112.656 289.872C84.144 308.592 73.488 331.056 73.488 370.224V378H216.912V340.56H122.16C122.448 332.208 127.344 324.72 137.136 318.096L180.336 289.584Z" fill="#2A1B3C" fill-opacity="0.03"/>
<path d="M180.336 289.584L182.539 292.922L182.552 292.914L182.564 292.906L180.336 289.584ZM197.328 188.208L199.948 185.185H199.948L197.328 188.208ZM97.392 188.208L94.7723 185.185H94.7723L97.392 188.208ZM74.64 232.848L70.6709 232.352L70.1863 236.229L74.0508 236.804L74.64 232.848ZM115.248 238.896L114.659 242.852L119.003 243.499L119.242 239.114L115.248 238.896ZM156.72 260.496L158.939 263.824L158.97 263.803L159.002 263.781L156.72 260.496ZM112.656 289.872L114.851 293.216L114.863 293.208L114.875 293.2L112.656 289.872ZM73.488 378H69.488V382H73.488V378ZM216.912 378V382H220.912V378H216.912ZM216.912 340.56H220.912V336.56H216.912V340.56ZM122.16 340.56L118.162 340.422L118.02 344.56H122.16V340.56ZM137.136 318.096L134.933 314.758L134.914 314.77L134.895 314.783L137.136 318.096ZM182.564 292.906C207.704 276.048 220.912 256.243 220.912 232.848H212.912C212.912 252.653 201.928 270.288 178.108 286.262L182.564 292.906ZM220.912 232.848C220.912 213.042 213.839 197.224 199.948 185.185L194.708 191.231C206.738 201.656 212.912 215.214 212.912 232.848H220.912ZM199.948 185.185C186.092 173.177 167.513 167.216 145.2 167.216V175.216C166.087 175.216 182.644 180.775 194.708 191.231L199.948 185.185ZM145.2 167.216C125.606 167.216 108.523 173.268 94.7723 185.185L100.012 191.231C112.181 180.684 127.354 175.216 145.2 175.216V167.216ZM94.7723 185.185C80.9774 197.141 73.082 213.063 70.6709 232.352L78.6091 233.344C80.806 215.769 87.8866 201.739 100.012 191.231L94.7723 185.185ZM74.0508 236.804L114.659 242.852L115.837 234.94L75.2292 228.892L74.0508 236.804ZM119.242 239.114C119.619 232.199 122.418 226.525 126.899 222.559C131.397 218.578 137.829 216.112 145.776 216.112V208.112C136.155 208.112 127.755 211.118 121.597 216.569C115.422 222.035 111.741 229.753 111.254 238.678L119.242 239.114ZM145.776 216.112C152.938 216.112 158.558 218.191 162.328 221.493C166.048 224.751 168.272 229.458 168.272 235.44H176.272C176.272 227.31 173.168 220.353 167.6 215.475C162.082 210.641 154.454 208.112 145.776 208.112V216.112ZM168.272 235.44C168.272 243.222 164.119 250.488 154.438 257.211L159.002 263.781C170.057 256.104 176.272 246.666 176.272 235.44H168.272ZM154.501 257.168L110.437 286.544L114.875 293.2L158.939 263.824L154.501 257.168ZM110.461 286.528C95.7565 296.182 85.3959 306.984 78.7804 320.636C72.1922 334.231 69.488 350.306 69.488 370.224H77.488C77.488 350.974 80.1118 336.233 85.9796 324.124C91.8201 312.072 101.043 302.282 114.851 293.216L110.461 286.528ZM69.488 370.224V378H77.488V370.224H69.488ZM73.488 382H216.912V374H73.488V382ZM220.912 378V340.56H212.912V378H220.912ZM216.912 336.56H122.16V344.56H216.912V336.56ZM126.158 340.698C126.386 334.067 130.214 327.607 139.377 321.409L134.895 314.783C124.474 321.833 118.51 330.349 118.162 340.422L126.158 340.698ZM139.339 321.434L182.539 292.922L178.133 286.246L134.933 314.758L139.339 321.434Z" fill="black" fill-opacity="0.03"/>
<path d="M174.336 283.584C198.816 267.168 210.912 248.448 210.912 226.848C210.912 208.128 204.288 193.44 191.328 182.208C178.368 170.976 160.8 165.216 139.2 165.216C120.48 165.216 104.352 170.976 91.392 182.208C78.432 193.44 70.944 208.416 68.64 226.848L109.248 232.896C110.112 217.056 122.208 206.112 139.776 206.112C155.616 206.112 166.272 215.328 166.272 229.44C166.272 238.944 161.088 247.296 150.72 254.496L106.656 283.872C78.144 302.592 67.488 325.056 67.488 364.224V372H210.912V334.56H116.16C116.448 326.208 121.344 318.72 131.136 312.096L174.336 283.584Z" fill="#2A1B3C" fill-opacity="0.05"/>
<path d="M174.336 283.584L176.539 286.922L176.552 286.914L176.564 286.906L174.336 283.584ZM191.328 182.208L193.948 179.185H193.948L191.328 182.208ZM91.392 182.208L88.7723 179.185H88.7723L91.392 182.208ZM68.64 226.848L64.6709 226.352L64.1863 230.229L68.0508 230.804L68.64 226.848ZM109.248 232.896L108.659 236.852L113.003 237.499L113.242 233.114L109.248 232.896ZM150.72 254.496L152.939 257.824L152.97 257.803L153.002 257.781L150.72 254.496ZM106.656 283.872L108.851 287.216L108.863 287.208L108.875 287.2L106.656 283.872ZM67.488 372H63.488V376H67.488V372ZM210.912 372V376H214.912V372H210.912ZM210.912 334.56H214.912V330.56H210.912V334.56ZM116.16 334.56L112.162 334.422L112.02 338.56H116.16V334.56ZM131.136 312.096L128.933 308.758L128.914 308.77L128.895 308.783L131.136 312.096ZM176.564 286.906C201.704 270.048 214.912 250.243 214.912 226.848H206.912C206.912 246.653 195.928 264.288 172.108 280.262L176.564 286.906ZM214.912 226.848C214.912 207.042 207.839 191.224 193.948 179.185L188.708 185.231C200.738 195.656 206.912 209.214 206.912 226.848H214.912ZM193.948 179.185C180.092 167.177 161.513 161.216 139.2 161.216V169.216C160.087 169.216 176.644 174.775 188.708 185.231L193.948 179.185ZM139.2 161.216C119.606 161.216 102.523 167.268 88.7723 179.185L94.0117 185.231C106.181 174.684 121.354 169.216 139.2 169.216V161.216ZM88.7723 179.185C74.9774 191.141 67.082 207.063 64.6709 226.352L72.6091 227.344C74.806 209.769 81.8866 195.739 94.0117 185.231L88.7723 179.185ZM68.0508 230.804L108.659 236.852L109.837 228.94L69.2292 222.892L68.0508 230.804ZM113.242 233.114C113.619 226.199 116.418 220.525 120.899 216.559C125.397 212.578 131.829 210.112 139.776 210.112V202.112C130.155 202.112 121.755 205.118 115.597 210.569C109.422 216.035 105.741 223.753 105.254 232.678L113.242 233.114ZM139.776 210.112C146.938 210.112 152.558 212.191 156.328 215.493C160.048 218.751 162.272 223.458 162.272 229.44H170.272C170.272 221.31 167.168 214.353 161.6 209.475C156.082 204.641 148.454 202.112 139.776 202.112V210.112ZM162.272 229.44C162.272 237.222 158.119 244.488 148.438 251.211L153.002 257.781C164.057 250.104 170.272 240.666 170.272 229.44H162.272ZM148.501 251.168L104.437 280.544L108.875 287.2L152.939 257.824L148.501 251.168ZM104.461 280.528C89.7565 290.182 79.3959 300.984 72.7804 314.636C66.1922 328.231 63.488 344.306 63.488 364.224H71.488C71.488 344.974 74.1118 330.233 79.9796 318.124C85.8201 306.072 95.0435 296.282 108.851 287.216L104.461 280.528ZM63.488 364.224V372H71.488V364.224H63.488ZM67.488 376H210.912V368H67.488V376ZM214.912 372V334.56H206.912V372H214.912ZM210.912 330.56H116.16V338.56H210.912V330.56ZM120.158 334.698C120.386 328.067 124.214 321.607 133.377 315.409L128.895 308.783C118.474 315.833 112.51 324.349 112.162 334.422L120.158 334.698ZM133.339 315.434L176.539 286.922L172.133 280.246L128.933 308.758L133.339 315.434Z" fill="black" fill-opacity="0.05"/>
<path d="M168.336 277.584C192.816 261.168 204.912 242.448 204.912 220.848C204.912 202.128 198.288 187.44 185.328 176.208C172.368 164.976 154.8 159.216 133.2 159.216C114.48 159.216 98.352 164.976 85.392 176.208C72.432 187.44 64.944 202.416 62.64 220.848L103.248 226.896C104.112 211.056 116.208 200.112 133.776 200.112C149.616 200.112 160.272 209.328 160.272 223.44C160.272 232.944 155.088 241.296 144.72 248.496L100.656 277.872C72.144 296.592 61.488 319.056 61.488 358.224V366H204.912V328.56H110.16C110.448 320.208 115.344 312.72 125.136 306.096L168.336 277.584Z" fill="#2A1B3C" fill-opacity="0.1"/>
<path d="M168.336 277.584L170.539 280.922L170.552 280.914L170.564 280.906L168.336 277.584ZM185.328 176.208L187.948 173.185H187.948L185.328 176.208ZM85.392 176.208L82.7723 173.185H82.7723L85.392 176.208ZM62.64 220.848L58.6709 220.352L58.1863 224.229L62.0508 224.804L62.64 220.848ZM103.248 226.896L102.659 230.852L107.003 231.499L107.242 227.114L103.248 226.896ZM144.72 248.496L146.939 251.824L146.97 251.803L147.002 251.781L144.72 248.496ZM100.656 277.872L102.851 281.216L102.863 281.208L102.875 281.2L100.656 277.872ZM61.488 366H57.488V370H61.488V366ZM204.912 366V370H208.912V366H204.912ZM204.912 328.56H208.912V324.56H204.912V328.56ZM110.16 328.56L106.162 328.422L106.02 332.56H110.16V328.56ZM125.136 306.096L122.933 302.758L122.914 302.77L122.895 302.783L125.136 306.096ZM170.564 280.906C195.704 264.048 208.912 244.243 208.912 220.848H200.912C200.912 240.653 189.928 258.288 166.108 274.262L170.564 280.906ZM208.912 220.848C208.912 201.042 201.839 185.224 187.948 173.185L182.708 179.231C194.738 189.656 200.912 203.214 200.912 220.848H208.912ZM187.948 173.185C174.092 161.177 155.513 155.216 133.2 155.216V163.216C154.087 163.216 170.644 168.775 182.708 179.231L187.948 173.185ZM133.2 155.216C113.606 155.216 96.5234 161.268 82.7723 173.185L88.0117 179.231C100.181 168.684 115.354 163.216 133.2 163.216V155.216ZM82.7723 173.185C68.9774 185.141 61.082 201.063 58.6709 220.352L66.6091 221.344C68.806 203.769 75.8866 189.739 88.0117 179.231L82.7723 173.185ZM62.0508 224.804L102.659 230.852L103.837 222.94L63.2292 216.892L62.0508 224.804ZM107.242 227.114C107.619 220.199 110.418 214.525 114.899 210.559C119.397 206.578 125.829 204.112 133.776 204.112V196.112C124.155 196.112 115.755 199.118 109.597 204.569C103.422 210.035 99.7408 217.753 99.2539 226.678L107.242 227.114ZM133.776 204.112C140.938 204.112 146.558 206.191 150.328 209.493C154.048 212.751 156.272 217.458 156.272 223.44H164.272C164.272 215.31 161.168 208.353 155.6 203.475C150.082 198.641 142.454 196.112 133.776 196.112V204.112ZM156.272 223.44C156.272 231.222 152.119 238.488 142.438 245.211L147.002 251.781C158.057 244.104 164.272 234.666 164.272 223.44H156.272ZM142.501 245.168L98.4372 274.544L102.875 281.2L146.939 251.824L142.501 245.168ZM98.4606 274.528C83.7565 284.182 73.3959 294.984 66.7804 308.636C60.1922 322.231 57.488 338.306 57.488 358.224H65.488C65.488 338.974 68.1118 324.233 73.9796 312.124C79.8201 300.072 89.0435 290.282 102.851 281.216L98.4606 274.528ZM57.488 358.224V366H65.488V358.224H57.488ZM61.488 370H204.912V362H61.488V370ZM208.912 366V328.56H200.912V366H208.912ZM204.912 324.56H110.16V332.56H204.912V324.56ZM114.158 328.698C114.386 322.067 118.214 315.607 127.377 309.409L122.895 302.783C112.474 309.833 106.51 318.349 106.162 328.422L114.158 328.698ZM127.339 309.434L170.539 280.922L166.133 274.246L122.933 302.758L127.339 309.434Z" fill="black" fill-opacity="0.1"/>
<path d="M162.336 271.584C186.816 255.168 198.912 236.448 198.912 214.848C198.912 196.128 192.288 181.44 179.328 170.208C166.368 158.976 148.8 153.216 127.2 153.216C108.48 153.216 92.352 158.976 79.392 170.208C66.432 181.44 58.944 196.416 56.64 214.848L97.248 220.896C98.112 205.056 110.208 194.112 127.776 194.112C143.616 194.112 154.272 203.328 154.272 217.44C154.272 226.944 149.088 235.296 138.72 242.496L94.656 271.872C66.144 290.592 55.488 313.056 55.488 352.224V360H198.912V322.56H104.16C104.448 314.208 109.344 306.72 119.136 300.096L162.336 271.584Z" fill="#2A1B3C" fill-opacity="0.2"/>
<path d="M162.336 271.584L164.539 274.922L164.552 274.914L164.564 274.906L162.336 271.584ZM179.328 170.208L181.948 167.185H181.948L179.328 170.208ZM79.392 170.208L76.7723 167.185H76.7723L79.392 170.208ZM56.64 214.848L52.6709 214.352L52.1863 218.229L56.0508 218.804L56.64 214.848ZM97.248 220.896L96.6588 224.852L101.003 225.499L101.242 221.114L97.248 220.896ZM138.72 242.496L140.939 245.824L140.97 245.803L141.002 245.781L138.72 242.496ZM94.656 271.872L96.8514 275.216L96.8631 275.208L96.8748 275.2L94.656 271.872ZM55.488 360H51.488V364H55.488V360ZM198.912 360V364H202.912V360H198.912ZM198.912 322.56H202.912V318.56H198.912V322.56ZM104.16 322.56L100.162 322.422L100.02 326.56H104.16V322.56ZM119.136 300.096L116.933 296.758L116.914 296.77L116.895 296.783L119.136 300.096ZM164.564 274.906C189.704 258.048 202.912 238.243 202.912 214.848H194.912C194.912 234.653 183.928 252.288 160.108 268.262L164.564 274.906ZM202.912 214.848C202.912 195.042 195.839 179.224 181.948 167.185L176.708 173.231C188.738 183.656 194.912 197.214 194.912 214.848H202.912ZM181.948 167.185C168.092 155.177 149.513 149.216 127.2 149.216V157.216C148.087 157.216 164.644 162.775 176.708 173.231L181.948 167.185ZM127.2 149.216C107.606 149.216 90.5234 155.268 76.7723 167.185L82.0117 173.231C94.1806 162.684 109.354 157.216 127.2 157.216V149.216ZM76.7723 167.185C62.9774 179.141 55.082 195.063 52.6709 214.352L60.6091 215.344C62.806 197.769 69.8866 183.739 82.0117 173.231L76.7723 167.185ZM56.0508 218.804L96.6588 224.852L97.8372 216.94L57.2292 210.892L56.0508 218.804ZM101.242 221.114C101.619 214.199 104.418 208.525 108.899 204.559C113.397 200.578 119.829 198.112 127.776 198.112V190.112C118.155 190.112 109.755 193.118 103.597 198.569C97.4217 204.035 93.7408 211.753 93.2539 220.678L101.242 221.114ZM127.776 198.112C134.938 198.112 140.558 200.191 144.328 203.493C148.048 206.751 150.272 211.458 150.272 217.44H158.272C158.272 209.31 155.168 202.353 149.6 197.475C144.082 192.641 136.454 190.112 127.776 190.112V198.112ZM150.272 217.44C150.272 225.222 146.119 232.488 136.438 239.211L141.002 245.781C152.057 238.104 158.272 228.666 158.272 217.44H150.272ZM136.501 239.168L92.4372 268.544L96.8748 275.2L140.939 245.824L136.501 239.168ZM92.4606 268.528C77.7565 278.182 67.3959 288.984 60.7804 302.636C54.1922 316.231 51.488 332.306 51.488 352.224H59.488C59.488 332.974 62.1118 318.233 67.9796 306.124C73.8201 294.072 83.0435 284.282 96.8514 275.216L92.4606 268.528ZM51.488 352.224V360H59.488V352.224H51.488ZM55.488 364H198.912V356H55.488V364ZM202.912 360V322.56H194.912V360H202.912ZM198.912 318.56H104.16V326.56H198.912V318.56ZM108.158 322.698C108.386 316.067 112.214 309.607 121.377 303.409L116.895 296.783C106.474 303.833 100.51 312.349 100.162 322.422L108.158 322.698ZM121.339 303.434L164.539 274.922L160.133 268.246L116.933 296.758L121.339 303.434Z" fill="black" fill-opacity="0.2"/>
<path d="M156.336 265.584C180.816 249.168 192.912 230.448 192.912 208.848C192.912 190.128 186.288 175.44 173.328 164.208C160.368 152.976 142.8 147.216 121.2 147.216C102.48 147.216 86.352 152.976 73.392 164.208C60.432 175.44 52.944 190.416 50.64 208.848L91.248 214.896C92.112 199.056 104.208 188.112 121.776 188.112C137.616 188.112 148.272 197.328 148.272 211.44C148.272 220.944 143.088 229.296 132.72 236.496L88.656 265.872C60.144 284.592 49.488 307.056 49.488 346.224V354H192.912V316.56H98.16C98.448 308.208 103.344 300.72 113.136 294.096L156.336 265.584Z" fill="#2A1B3C" fill-opacity="0.3"/>
<path d="M156.336 265.584L158.539 268.922L158.552 268.914L158.564 268.906L156.336 265.584ZM173.328 164.208L175.948 161.185H175.948L173.328 164.208ZM73.392 164.208L70.7723 161.185H70.7723L73.392 164.208ZM50.64 208.848L46.6709 208.352L46.1863 212.229L50.0508 212.804L50.64 208.848ZM91.248 214.896L90.6588 218.852L95.0029 219.499L95.2421 215.114L91.248 214.896ZM132.72 236.496L134.939 239.824L134.97 239.803L135.002 239.781L132.72 236.496ZM88.656 265.872L90.8514 269.216L90.8631 269.208L90.8748 269.2L88.656 265.872ZM49.488 354H45.488V358H49.488V354ZM192.912 354V358H196.912V354H192.912ZM192.912 316.56H196.912V312.56H192.912V316.56ZM98.16 316.56L94.1624 316.422L94.0197 320.56H98.16V316.56ZM113.136 294.096L110.933 290.758L110.914 290.77L110.895 290.783L113.136 294.096ZM158.564 268.906C183.704 252.048 196.912 232.243 196.912 208.848H188.912C188.912 228.653 177.928 246.288 154.108 262.262L158.564 268.906ZM196.912 208.848C196.912 189.042 189.839 173.224 175.948 161.185L170.708 167.231C182.738 177.656 188.912 191.214 188.912 208.848H196.912ZM175.948 161.185C162.092 149.177 143.513 143.216 121.2 143.216V151.216C142.087 151.216 158.644 156.775 170.708 167.231L175.948 161.185ZM121.2 143.216C101.606 143.216 84.5234 149.268 70.7723 161.185L76.0117 167.231C88.1806 156.684 103.354 151.216 121.2 151.216V143.216ZM70.7723 161.185C56.9774 173.141 49.082 189.063 46.6709 208.352L54.6091 209.344C56.806 191.769 63.8866 177.739 76.0117 167.231L70.7723 161.185ZM50.0508 212.804L90.6588 218.852L91.8372 210.94L51.2292 204.892L50.0508 212.804ZM95.2421 215.114C95.6192 208.199 98.4183 202.525 102.899 198.559C107.397 194.578 113.829 192.112 121.776 192.112V184.112C112.155 184.112 103.755 187.118 97.5968 192.569C91.4217 198.035 87.7408 205.753 87.2539 214.678L95.2421 215.114ZM121.776 192.112C128.938 192.112 134.558 194.191 138.328 197.493C142.048 200.751 144.272 205.458 144.272 211.44H152.272C152.272 203.31 149.168 196.353 143.6 191.475C138.082 186.641 130.454 184.112 121.776 184.112V192.112ZM144.272 211.44C144.272 219.222 140.119 226.488 130.438 233.211L135.002 239.781C146.057 232.104 152.272 222.666 152.272 211.44H144.272ZM130.501 233.168L86.4372 262.544L90.8748 269.2L134.939 239.824L130.501 233.168ZM86.4606 262.528C71.7565 272.182 61.3959 282.984 54.7804 296.636C48.1922 310.231 45.488 326.306 45.488 346.224H53.488C53.488 326.974 56.1118 312.233 61.9796 300.124C67.8201 288.072 77.0435 278.282 90.8514 269.216L86.4606 262.528ZM45.488 346.224V354H53.488V346.224H45.488ZM49.488 358H192.912V350H49.488V358ZM196.912 354V316.56H188.912V354H196.912ZM192.912 312.56H98.16V320.56H192.912V312.56ZM102.158 316.698C102.386 310.067 106.214 303.607 115.377 297.409L110.895 290.783C100.474 297.833 94.5097 306.349 94.1624 316.422L102.158 316.698ZM115.339 297.434L158.539 268.922L154.133 262.246L110.933 290.758L115.339 297.434Z" fill="black" fill-opacity="0.3"/>
<path d="M150.336 259.584C174.816 243.168 186.912 224.448 186.912 202.848C186.912 184.128 180.288 169.44 167.328 158.208C154.368 146.976 136.8 141.216 115.2 141.216C96.48 141.216 80.352 146.976 67.392 158.208C54.432 169.44 46.944 184.416 44.64 202.848L85.248 208.896C86.112 193.056 98.208 182.112 115.776 182.112C131.616 182.112 142.272 191.328 142.272 205.44C142.272 214.944 137.088 223.296 126.72 230.496L82.656 259.872C54.144 278.592 43.488 301.056 43.488 340.224V348H186.912V310.56H92.16C92.448 302.208 97.344 294.72 107.136 288.096L150.336 259.584Z" fill="#2A1B3C" fill-opacity="0.4"/>
<path d="M150.336 259.584L152.539 262.922L152.552 262.914L152.564 262.906L150.336 259.584ZM167.328 158.208L169.948 155.185H169.948L167.328 158.208ZM67.392 158.208L64.7723 155.185H64.7723L67.392 158.208ZM44.64 202.848L40.6709 202.352L40.1863 206.229L44.0508 206.804L44.64 202.848ZM85.248 208.896L84.6588 212.852L89.0029 213.499L89.2421 209.114L85.248 208.896ZM126.72 230.496L128.939 233.824L128.97 233.803L129.002 233.781L126.72 230.496ZM82.656 259.872L84.8514 263.216L84.8631 263.208L84.8748 263.2L82.656 259.872ZM43.488 348H39.488V352H43.488V348ZM186.912 348V352H190.912V348H186.912ZM186.912 310.56H190.912V306.56H186.912V310.56ZM92.16 310.56L88.1624 310.422L88.0197 314.56H92.16V310.56ZM107.136 288.096L104.933 284.758L104.914 284.77L104.895 284.783L107.136 288.096ZM152.564 262.906C177.704 246.048 190.912 226.243 190.912 202.848H182.912C182.912 222.653 171.928 240.288 148.108 256.262L152.564 262.906ZM190.912 202.848C190.912 183.042 183.839 167.224 169.948 155.185L164.708 161.231C176.738 171.656 182.912 185.214 182.912 202.848H190.912ZM169.948 155.185C156.092 143.177 137.513 137.216 115.2 137.216V145.216C136.087 145.216 152.644 150.775 164.708 161.231L169.948 155.185ZM115.2 137.216C95.6057 137.216 78.5234 143.268 64.7723 155.185L70.0117 161.231C82.1806 150.684 97.3543 145.216 115.2 145.216V137.216ZM64.7723 155.185C50.9774 167.141 43.082 183.063 40.6709 202.352L48.6091 203.344C50.806 185.769 57.8866 171.739 70.0117 161.231L64.7723 155.185ZM44.0508 206.804L84.6588 212.852L85.8372 204.94L45.2292 198.892L44.0508 206.804ZM89.2421 209.114C89.6192 202.199 92.4183 196.525 96.8992 192.559C101.397 188.578 107.829 186.112 115.776 186.112V178.112C106.155 178.112 97.7548 181.118 91.5968 186.569C85.4217 192.035 81.7408 199.753 81.2539 208.678L89.2421 209.114ZM115.776 186.112C122.938 186.112 128.558 188.191 132.328 191.493C136.048 194.751 138.272 199.458 138.272 205.44H146.272C146.272 197.31 143.168 190.353 137.6 185.475C132.082 180.641 124.454 178.112 115.776 178.112V186.112ZM138.272 205.44C138.272 213.222 134.119 220.488 124.438 227.211L129.002 233.781C140.057 226.104 146.272 216.666 146.272 205.44H138.272ZM124.501 227.168L80.4372 256.544L84.8748 263.2L128.939 233.824L124.501 227.168ZM80.4606 256.528C65.7565 266.182 55.3959 276.984 48.7804 290.636C42.1922 304.231 39.488 320.306 39.488 340.224H47.488C47.488 320.974 50.1118 306.233 55.9796 294.124C61.8201 282.072 71.0435 272.282 84.8514 263.216L80.4606 256.528ZM39.488 340.224V348H47.488V340.224H39.488ZM43.488 352H186.912V344H43.488V352ZM190.912 348V310.56H182.912V348H190.912ZM186.912 306.56H92.16V314.56H186.912V306.56ZM96.1576 310.698C96.3863 304.067 100.214 297.607 109.377 291.409L104.895 284.783C94.4736 291.833 88.5097 300.349 88.1624 310.422L96.1576 310.698ZM109.339 291.434L152.539 262.922L148.133 256.246L104.933 284.758L109.339 291.434Z" fill="black" fill-opacity="0.4"/>
<path d="M144.336 253.584C168.816 237.168 180.912 218.448 180.912 196.848C180.912 178.128 174.288 163.44 161.328 152.208C148.368 140.976 130.8 135.216 109.2 135.216C90.48 135.216 74.352 140.976 61.392 152.208C48.432 163.44 40.944 178.416 38.64 196.848L79.248 202.896C80.112 187.056 92.208 176.112 109.776 176.112C125.616 176.112 136.272 185.328 136.272 199.44C136.272 208.944 131.088 217.296 120.72 224.496L76.656 253.872C48.144 272.592 37.488 295.056 37.488 334.224V342H180.912V304.56H86.16C86.448 296.208 91.344 288.72 101.136 282.096L144.336 253.584Z" fill="#2A1B3C" fill-opacity="0.5"/>
<path d="M144.336 253.584L146.539 256.922L146.552 256.914L146.564 256.906L144.336 253.584ZM161.328 152.208L163.948 149.185H163.948L161.328 152.208ZM61.392 152.208L58.7723 149.185H58.7723L61.392 152.208ZM38.64 196.848L34.6709 196.352L34.1863 200.229L38.0508 200.804L38.64 196.848ZM79.248 202.896L78.6588 206.852L83.0029 207.499L83.2421 203.114L79.248 202.896ZM120.72 224.496L122.939 227.824L122.97 227.803L123.002 227.781L120.72 224.496ZM76.656 253.872L78.8514 257.216L78.8631 257.208L78.8748 257.2L76.656 253.872ZM37.488 342H33.488V346H37.488V342ZM180.912 342V346H184.912V342H180.912ZM180.912 304.56H184.912V300.56H180.912V304.56ZM86.16 304.56L82.1624 304.422L82.0197 308.56H86.16V304.56ZM101.136 282.096L98.9326 278.758L98.9136 278.77L98.8948 278.783L101.136 282.096ZM146.564 256.906C171.704 240.048 184.912 220.243 184.912 196.848H176.912C176.912 216.653 165.928 234.288 142.108 250.262L146.564 256.906ZM184.912 196.848C184.912 177.042 177.839 161.224 163.948 149.185L158.708 155.231C170.738 165.656 176.912 179.214 176.912 196.848H184.912ZM163.948 149.185C150.092 137.177 131.513 131.216 109.2 131.216V139.216C130.087 139.216 146.644 144.775 158.708 155.231L163.948 149.185ZM109.2 131.216C89.6057 131.216 72.5234 137.268 58.7723 149.185L64.0117 155.231C76.1806 144.684 91.3543 139.216 109.2 139.216V131.216ZM58.7723 149.185C44.9774 161.141 37.082 177.063 34.6709 196.352L42.6091 197.344C44.806 179.769 51.8866 165.739 64.0117 155.231L58.7723 149.185ZM38.0508 200.804L78.6588 206.852L79.8372 198.94L39.2292 192.892L38.0508 200.804ZM83.2421 203.114C83.6192 196.199 86.4183 190.525 90.8992 186.559C95.3972 182.578 101.829 180.112 109.776 180.112V172.112C100.155 172.112 91.7548 175.118 85.5968 180.569C79.4217 186.035 75.7408 193.753 75.2539 202.678L83.2421 203.114ZM109.776 180.112C116.938 180.112 122.558 182.191 126.328 185.493C130.048 188.751 132.272 193.458 132.272 199.44H140.272C140.272 191.31 137.168 184.353 131.6 179.475C126.082 174.641 118.454 172.112 109.776 172.112V180.112ZM132.272 199.44C132.272 207.222 128.119 214.488 118.438 221.211L123.002 227.781C134.057 220.104 140.272 210.666 140.272 199.44H132.272ZM118.501 221.168L74.4372 250.544L78.8748 257.2L122.939 227.824L118.501 221.168ZM74.4606 250.528C59.7565 260.182 49.3959 270.984 42.7804 284.636C36.1922 298.231 33.488 314.306 33.488 334.224H41.488C41.488 314.974 44.1118 300.233 49.9796 288.124C55.8201 276.072 65.0435 266.282 78.8514 257.216L74.4606 250.528ZM33.488 334.224V342H41.488V334.224H33.488ZM37.488 346H180.912V338H37.488V346ZM184.912 342V304.56H176.912V342H184.912ZM180.912 300.56H86.16V308.56H180.912V300.56ZM90.1576 304.698C90.3863 298.067 94.2144 291.607 103.377 285.409L98.8948 278.783C88.4736 285.833 82.5097 294.349 82.1624 304.422L90.1576 304.698ZM103.339 285.434L146.539 256.922L142.133 250.246L98.9326 278.758L103.339 285.434Z" fill="black" fill-opacity="0.5"/>
<path d="M138.336 247.584C162.816 231.168 174.912 212.448 174.912 190.848C174.912 172.128 168.288 157.44 155.328 146.208C142.368 134.976 124.8 129.216 103.2 129.216C84.48 129.216 68.352 134.976 55.392 146.208C42.432 157.44 34.944 172.416 32.64 190.848L73.248 196.896C74.112 181.056 86.208 170.112 103.776 170.112C119.616 170.112 130.272 179.328 130.272 193.44C130.272 202.944 125.088 211.296 114.72 218.496L70.656 247.872C42.144 266.592 31.488 289.056 31.488 328.224V336H174.912V298.56H80.16C80.448 290.208 85.344 282.72 95.136 276.096L138.336 247.584Z" fill="#2A1B3C" fill-opacity="0.6"/>
<path d="M138.336 247.584L140.539 250.922L140.552 250.914L140.564 250.906L138.336 247.584ZM155.328 146.208L157.948 143.185H157.948L155.328 146.208ZM55.392 146.208L52.7723 143.185H52.7723L55.392 146.208ZM32.64 190.848L28.6709 190.352L28.1863 194.229L32.0508 194.804L32.64 190.848ZM73.248 196.896L72.6588 200.852L77.0029 201.499L77.2421 197.114L73.248 196.896ZM114.72 218.496L116.939 221.824L116.97 221.803L117.002 221.781L114.72 218.496ZM70.656 247.872L72.8514 251.216L72.8631 251.208L72.8748 251.2L70.656 247.872ZM31.488 336H27.488V340H31.488V336ZM174.912 336V340H178.912V336H174.912ZM174.912 298.56H178.912V294.56H174.912V298.56ZM80.16 298.56L76.1624 298.422L76.0197 302.56H80.16V298.56ZM95.136 276.096L92.9326 272.758L92.9136 272.77L92.8948 272.783L95.136 276.096ZM140.564 250.906C165.704 234.048 178.912 214.243 178.912 190.848H170.912C170.912 210.653 159.928 228.288 136.108 244.262L140.564 250.906ZM178.912 190.848C178.912 171.042 171.839 155.224 157.948 143.185L152.708 149.231C164.738 159.656 170.912 173.214 170.912 190.848H178.912ZM157.948 143.185C144.092 131.177 125.513 125.216 103.2 125.216V133.216C124.087 133.216 140.644 138.775 152.708 149.231L157.948 143.185ZM103.2 125.216C83.6057 125.216 66.5234 131.268 52.7723 143.185L58.0117 149.231C70.1806 138.684 85.3543 133.216 103.2 133.216V125.216ZM52.7723 143.185C38.9774 155.141 31.082 171.063 28.6709 190.352L36.6091 191.344C38.806 173.769 45.8866 159.739 58.0117 149.231L52.7723 143.185ZM32.0508 194.804L72.6588 200.852L73.8372 192.94L33.2292 186.892L32.0508 194.804ZM77.2421 197.114C77.6192 190.199 80.4183 184.525 84.8992 180.559C89.3972 176.578 95.8286 174.112 103.776 174.112V166.112C94.1554 166.112 85.7548 169.118 79.5968 174.569C73.4217 180.035 69.7408 187.753 69.2539 196.678L77.2421 197.114ZM103.776 174.112C110.938 174.112 116.558 176.191 120.328 179.493C124.048 182.751 126.272 187.458 126.272 193.44H134.272C134.272 185.31 131.168 178.353 125.6 173.475C120.082 168.641 112.454 166.112 103.776 166.112V174.112ZM126.272 193.44C126.272 201.222 122.119 208.488 112.438 215.211L117.002 221.781C128.057 214.104 134.272 204.666 134.272 193.44H126.272ZM112.501 215.168L68.4372 244.544L72.8748 251.2L116.939 221.824L112.501 215.168ZM68.4606 244.528C53.7565 254.182 43.3959 264.984 36.7804 278.636C30.1922 292.231 27.488 308.306 27.488 328.224H35.488C35.488 308.974 38.1118 294.233 43.9796 282.124C49.8201 270.072 59.0435 260.282 72.8514 251.216L68.4606 244.528ZM27.488 328.224V336H35.488V328.224H27.488ZM31.488 340H174.912V332H31.488V340ZM178.912 336V298.56H170.912V336H178.912ZM174.912 294.56H80.16V302.56H174.912V294.56ZM84.1576 298.698C84.3863 292.067 88.2144 285.607 97.3772 279.409L92.8948 272.783C82.4736 279.833 76.5097 288.349 76.1624 298.422L84.1576 298.698ZM97.3394 279.434L140.539 250.922L136.133 244.246L92.9326 272.758L97.3394 279.434Z" fill="black" fill-opacity="0.6"/>
<path d="M132.336 241.584C156.816 225.168 168.912 206.448 168.912 184.848C168.912 166.128 162.288 151.44 149.328 140.208C136.368 128.976 118.8 123.216 97.2 123.216C78.48 123.216 62.352 128.976 49.392 140.208C36.432 151.44 28.944 166.416 26.64 184.848L67.248 190.896C68.112 175.056 80.208 164.112 97.776 164.112C113.616 164.112 124.272 173.328 124.272 187.44C124.272 196.944 119.088 205.296 108.72 212.496L64.656 241.872C36.144 260.592 25.488 283.056 25.488 322.224V330H168.912V292.56H74.16C74.448 284.208 79.344 276.72 89.136 270.096L132.336 241.584Z" fill="#2A1B3C" fill-opacity="0.7"/>
<path d="M132.336 241.584L134.539 244.922L134.552 244.914L134.564 244.906L132.336 241.584ZM149.328 140.208L151.948 137.185H151.948L149.328 140.208ZM49.392 140.208L46.7723 137.185H46.7723L49.392 140.208ZM26.64 184.848L22.6709 184.352L22.1863 188.229L26.0508 188.804L26.64 184.848ZM67.248 190.896L66.6588 194.852L71.0029 195.499L71.2421 191.114L67.248 190.896ZM108.72 212.496L110.939 215.824L110.97 215.803L111.002 215.781L108.72 212.496ZM64.656 241.872L66.8514 245.216L66.8631 245.208L66.8748 245.2L64.656 241.872ZM25.488 330H21.488V334H25.488V330ZM168.912 330V334H172.912V330H168.912ZM168.912 292.56H172.912V288.56H168.912V292.56ZM74.16 292.56L70.1624 292.422L70.0197 296.56H74.16V292.56ZM89.136 270.096L86.9326 266.758L86.9136 266.77L86.8948 266.783L89.136 270.096ZM134.564 244.906C159.704 228.048 172.912 208.243 172.912 184.848H164.912C164.912 204.653 153.928 222.288 130.108 238.262L134.564 244.906ZM172.912 184.848C172.912 165.042 165.839 149.224 151.948 137.185L146.708 143.231C158.738 153.656 164.912 167.214 164.912 184.848H172.912ZM151.948 137.185C138.092 125.177 119.513 119.216 97.2 119.216V127.216C118.087 127.216 134.644 132.775 146.708 143.231L151.948 137.185ZM97.2 119.216C77.6057 119.216 60.5234 125.268 46.7723 137.185L52.0117 143.231C64.1806 132.684 79.3543 127.216 97.2 127.216V119.216ZM46.7723 137.185C32.9774 149.141 25.082 165.063 22.6709 184.352L30.6091 185.344C32.806 167.769 39.8866 153.739 52.0117 143.231L46.7723 137.185ZM26.0508 188.804L66.6588 194.852L67.8372 186.94L27.2292 180.892L26.0508 188.804ZM71.2421 191.114C71.6192 184.199 74.4183 178.525 78.8992 174.559C83.3972 170.578 89.8286 168.112 97.776 168.112V160.112C88.1554 160.112 79.7548 163.118 73.5968 168.569C67.4217 174.035 63.7408 181.753 63.2539 190.678L71.2421 191.114ZM97.776 168.112C104.938 168.112 110.558 170.191 114.328 173.493C118.048 176.751 120.272 181.458 120.272 187.44H128.272C128.272 179.31 125.168 172.353 119.6 167.475C114.082 162.641 106.454 160.112 97.776 160.112V168.112ZM120.272 187.44C120.272 195.222 116.119 202.488 106.438 209.211L111.002 215.781C122.057 208.104 128.272 198.666 128.272 187.44H120.272ZM106.501 209.168L62.4372 238.544L66.8748 245.2L110.939 215.824L106.501 209.168ZM62.4606 238.528C47.7565 248.182 37.3959 258.984 30.7804 272.636C24.1922 286.231 21.488 302.306 21.488 322.224H29.488C29.488 302.974 32.1118 288.233 37.9796 276.124C43.8201 264.072 53.0435 254.282 66.8514 245.216L62.4606 238.528ZM21.488 322.224V330H29.488V322.224H21.488ZM25.488 334H168.912V326H25.488V334ZM172.912 330V292.56H164.912V330H172.912ZM168.912 288.56H74.16V296.56H168.912V288.56ZM78.1576 292.698C78.3863 286.067 82.2144 279.607 91.3772 273.409L86.8948 266.783C76.4736 273.833 70.5097 282.349 70.1624 292.422L78.1576 292.698ZM91.3394 273.434L134.539 244.922L130.133 238.246L86.9326 266.758L91.3394 273.434Z" fill="black" fill-opacity="0.7"/>
<path d="M126.336 234.584C150.816 218.168 162.912 199.448 162.912 177.848C162.912 159.128 156.288 144.44 143.328 133.208C130.368 121.976 112.8 116.216 91.2 116.216C72.48 116.216 56.352 121.976 43.392 133.208C30.432 144.44 22.944 159.416 20.64 177.848L61.248 183.896C62.112 168.056 74.208 157.112 91.776 157.112C107.616 157.112 118.272 166.328 118.272 180.44C118.272 189.944 113.088 198.296 102.72 205.496L58.656 234.872C30.144 253.592 19.488 276.056 19.488 315.224V323H162.912V285.56H68.16C68.448 277.208 73.344 269.72 83.136 263.096L126.336 234.584Z" fill="#2A1B3C" fill-opacity="0.8"/>
<path d="M126.336 234.584L128.539 237.922L128.552 237.914L128.564 237.906L126.336 234.584ZM143.328 133.208L145.948 130.185H145.948L143.328 133.208ZM43.392 133.208L40.7723 130.185H40.7723L43.392 133.208ZM20.64 177.848L16.6709 177.352L16.1863 181.229L20.0508 181.804L20.64 177.848ZM61.248 183.896L60.6588 187.852L65.0029 188.499L65.2421 184.114L61.248 183.896ZM102.72 205.496L104.939 208.824L104.97 208.803L105.002 208.781L102.72 205.496ZM58.656 234.872L60.8514 238.216L60.8631 238.208L60.8748 238.2L58.656 234.872ZM19.488 323H15.488V327H19.488V323ZM162.912 323V327H166.912V323H162.912ZM162.912 285.56H166.912V281.56H162.912V285.56ZM68.16 285.56L64.1624 285.422L64.0197 289.56H68.16V285.56ZM83.136 263.096L80.9326 259.758L80.9136 259.77L80.8948 259.783L83.136 263.096ZM128.564 237.906C153.704 221.048 166.912 201.243 166.912 177.848H158.912C158.912 197.653 147.928 215.288 124.108 231.262L128.564 237.906ZM166.912 177.848C166.912 158.042 159.839 142.224 145.948 130.185L140.708 136.231C152.738 146.656 158.912 160.214 158.912 177.848H166.912ZM145.948 130.185C132.092 118.177 113.513 112.216 91.2 112.216V120.216C112.087 120.216 128.644 125.775 140.708 136.231L145.948 130.185ZM91.2 112.216C71.6057 112.216 54.5234 118.268 40.7723 130.185L46.0117 136.231C58.1806 125.684 73.3543 120.216 91.2 120.216V112.216ZM40.7723 130.185C26.9774 142.141 19.082 158.063 16.6709 177.352L24.6091 178.344C26.806 160.769 33.8866 146.739 46.0117 136.231L40.7723 130.185ZM20.0508 181.804L60.6588 187.852L61.8372 179.94L21.2292 173.892L20.0508 181.804ZM65.2421 184.114C65.6192 177.199 68.4183 171.525 72.8992 167.559C77.3972 163.578 83.8286 161.112 91.776 161.112V153.112C82.1554 153.112 73.7548 156.118 67.5968 161.569C61.4217 167.035 57.7408 174.753 57.2539 183.678L65.2421 184.114ZM91.776 161.112C98.9377 161.112 104.558 163.191 108.328 166.493C112.048 169.751 114.272 174.458 114.272 180.44H122.272C122.272 172.31 119.168 165.353 113.6 160.475C108.082 155.641 100.454 153.112 91.776 153.112V161.112ZM114.272 180.44C114.272 188.222 110.119 195.488 100.438 202.211L105.002 208.781C116.057 201.104 122.272 191.666 122.272 180.44H114.272ZM100.501 202.168L56.4372 231.544L60.8748 238.2L104.939 208.824L100.501 202.168ZM56.4606 231.528C41.7565 241.182 31.3959 251.984 24.7804 265.636C18.1922 279.231 15.488 295.306 15.488 315.224H23.488C23.488 295.974 26.1118 281.233 31.9796 269.124C37.8201 257.072 47.0435 247.282 60.8514 238.216L56.4606 231.528ZM15.488 315.224V323H23.488V315.224H15.488ZM19.488 327H162.912V319H19.488V327ZM166.912 323V285.56H158.912V323H166.912ZM162.912 281.56H68.16V289.56H162.912V281.56ZM72.1576 285.698C72.3863 279.067 76.2144 272.607 85.3772 266.409L80.8948 259.783C70.4736 266.833 64.5097 275.349 64.1624 285.422L72.1576 285.698ZM85.3394 266.434L128.539 237.922L124.133 231.246L80.9326 259.758L85.3394 266.434Z" fill="black" fill-opacity="0.8"/>
<path d="M120.336 228.584C144.816 212.168 156.912 193.448 156.912 171.848C156.912 153.128 150.288 138.44 137.328 127.208C124.368 115.976 106.8 110.216 85.2 110.216C66.48 110.216 50.352 115.976 37.392 127.208C24.432 138.44 16.944 153.416 14.64 171.848L55.248 177.896C56.112 162.056 68.208 151.112 85.776 151.112C101.616 151.112 112.272 160.328 112.272 174.44C112.272 183.944 107.088 192.296 96.72 199.496L52.656 228.872C24.144 247.592 13.488 270.056 13.488 309.224V317H156.912V279.56H62.16C62.448 271.208 67.344 263.72 77.136 257.096L120.336 228.584Z" fill="#2A1B3C" fill-opacity="0.9"/>
<path d="M120.336 228.584L122.539 231.922L122.552 231.914L122.564 231.906L120.336 228.584ZM137.328 127.208L139.948 124.185H139.948L137.328 127.208ZM37.392 127.208L34.7723 124.185H34.7723L37.392 127.208ZM14.64 171.848L10.6709 171.352L10.1863 175.229L14.0508 175.804L14.64 171.848ZM55.248 177.896L54.6588 181.852L59.0029 182.499L59.2421 178.114L55.248 177.896ZM96.72 199.496L98.9388 202.824L98.9704 202.803L99.0016 202.781L96.72 199.496ZM52.656 228.872L54.8514 232.216L54.8631 232.208L54.8748 232.2L52.656 228.872ZM13.488 317H9.488V321H13.488V317ZM156.912 317V321H160.912V317H156.912ZM156.912 279.56H160.912V275.56H156.912V279.56ZM62.16 279.56L58.1624 279.422L58.0197 283.56H62.16V279.56ZM77.136 257.096L74.9326 253.758L74.9136 253.77L74.8948 253.783L77.136 257.096ZM122.564 231.906C147.704 215.048 160.912 195.243 160.912 171.848H152.912C152.912 191.653 141.928 209.288 118.108 225.262L122.564 231.906ZM160.912 171.848C160.912 152.042 153.839 136.224 139.948 124.185L134.708 130.231C146.738 140.656 152.912 154.214 152.912 171.848H160.912ZM139.948 124.185C126.092 112.177 107.513 106.216 85.2 106.216V114.216C106.087 114.216 122.644 119.775 134.708 130.231L139.948 124.185ZM85.2 106.216C65.6057 106.216 48.5234 112.268 34.7723 124.185L40.0117 130.231C52.1806 119.684 67.3543 114.216 85.2 114.216V106.216ZM34.7723 124.185C20.9774 136.141 13.082 152.063 10.6709 171.352L18.6091 172.344C20.806 154.769 27.8866 140.739 40.0117 130.231L34.7723 124.185ZM14.0508 175.804L54.6588 181.852L55.8372 173.94L15.2292 167.892L14.0508 175.804ZM59.2421 178.114C59.6192 171.199 62.4183 165.525 66.8992 161.559C71.3972 157.578 77.8286 155.112 85.776 155.112V147.112C76.1554 147.112 67.7548 150.118 61.5968 155.569C55.4217 161.035 51.7408 168.753 51.2539 177.678L59.2421 178.114ZM85.776 155.112C92.9377 155.112 98.5584 157.191 102.328 160.493C106.048 163.751 108.272 168.458 108.272 174.44H116.272C116.272 166.31 113.168 159.353 107.6 154.475C102.082 149.641 94.4543 147.112 85.776 147.112V155.112ZM108.272 174.44C108.272 182.222 104.119 189.488 94.4384 196.211L99.0016 202.781C110.057 195.104 116.272 185.666 116.272 174.44H108.272ZM94.5012 196.168L50.4372 225.544L54.8748 232.2L98.9388 202.824L94.5012 196.168ZM50.4606 225.528C35.7565 235.182 25.3959 245.984 18.7804 259.636C12.1922 273.231 9.488 289.306 9.488 309.224H17.488C17.488 289.974 20.1118 275.233 25.9796 263.124C31.8201 251.072 41.0435 241.282 54.8514 232.216L50.4606 225.528ZM9.488 309.224V317H17.488V309.224H9.488ZM13.488 321H156.912V313H13.488V321ZM160.912 317V279.56H152.912V317H160.912ZM156.912 275.56H62.16V283.56H156.912V275.56ZM66.1576 279.698C66.3863 273.067 70.2144 266.607 79.3772 260.409L74.8948 253.783C64.4736 260.833 58.5097 269.349 58.1624 279.422L66.1576 279.698ZM79.3394 260.434L122.539 231.922L118.133 225.246L74.9326 253.758L79.3394 260.434Z" fill="black" fill-opacity="0.9"/>
<path d="M114.336 222.584C138.816 206.168 150.912 187.448 150.912 165.848C150.912 147.128 144.288 132.44 131.328 121.208C118.368 109.976 100.8 104.216 79.2 104.216C60.48 104.216 44.352 109.976 31.392 121.208C18.432 132.44 10.944 147.416 8.64 165.848L49.248 171.896C50.112 156.056 62.208 145.112 79.776 145.112C95.616 145.112 106.272 154.328 106.272 168.44C106.272 177.944 101.088 186.296 90.72 193.496L46.656 222.872C18.144 241.592 7.488 264.056 7.488 303.224V311H150.912V273.56H56.16C56.448 265.208 61.344 257.72 71.136 251.096L114.336 222.584Z" fill="white"/>
<path d="M114.336 222.584L116.539 225.922L116.552 225.914L116.564 225.906L114.336 222.584ZM131.328 121.208L133.948 118.185H133.948L131.328 121.208ZM31.392 121.208L28.7723 118.185H28.7723L31.392 121.208ZM8.64 165.848L4.67089 165.352L4.18627 169.229L8.05076 169.804L8.64 165.848ZM49.248 171.896L48.6588 175.852L53.0029 176.499L53.2421 172.114L49.248 171.896ZM90.72 193.496L92.9388 196.824L92.9704 196.803L93.0016 196.781L90.72 193.496ZM46.656 222.872L48.8514 226.216L48.8631 226.208L48.8748 226.2L46.656 222.872ZM7.488 311H3.488V315H7.488V311ZM150.912 311V315H154.912V311H150.912ZM150.912 273.56H154.912V269.56H150.912V273.56ZM56.16 273.56L52.1624 273.422L52.0197 277.56H56.16V273.56ZM71.136 251.096L68.9326 247.758L68.9136 247.77L68.8948 247.783L71.136 251.096ZM116.564 225.906C141.704 209.048 154.912 189.243 154.912 165.848H146.912C146.912 185.653 135.928 203.288 112.108 219.262L116.564 225.906ZM154.912 165.848C154.912 146.042 147.839 130.224 133.948 118.185L128.708 124.231C140.738 134.656 146.912 148.214 146.912 165.848H154.912ZM133.948 118.185C120.092 106.177 101.513 100.216 79.2 100.216V108.216C100.087 108.216 116.644 113.775 128.708 124.231L133.948 118.185ZM79.2 100.216C59.6057 100.216 42.5234 106.268 28.7723 118.185L34.0117 124.231C46.1806 113.684 61.3543 108.216 79.2 108.216V100.216ZM28.7723 118.185C14.9774 130.141 7.08202 146.063 4.67089 165.352L12.6091 166.344C14.806 148.769 21.8866 134.739 34.0117 124.231L28.7723 118.185ZM8.05076 169.804L48.6588 175.852L49.8372 167.94L9.22925 161.892L8.05076 169.804ZM53.2421 172.114C53.6192 165.199 56.4183 159.525 60.8992 155.559C65.3972 151.578 71.8286 149.112 79.776 149.112V141.112C70.1554 141.112 61.7548 144.118 55.5968 149.569C49.4217 155.035 45.7408 162.753 45.2539 171.678L53.2421 172.114ZM79.776 149.112C86.9377 149.112 92.5584 151.191 96.3283 154.493C100.048 157.751 102.272 162.458 102.272 168.44H110.272C110.272 160.31 107.168 153.353 101.6 148.475C96.0816 143.641 88.4543 141.112 79.776 141.112V149.112ZM102.272 168.44C102.272 176.222 98.119 183.488 88.4384 190.211L93.0016 196.781C104.057 189.104 110.272 179.666 110.272 168.44H102.272ZM88.5012 190.168L44.4372 219.544L48.8748 226.2L92.9388 196.824L88.5012 190.168ZM44.4606 219.528C29.7565 229.182 19.3959 239.984 12.7804 253.636C6.19222 267.231 3.488 283.306 3.488 303.224H11.488C11.488 283.974 14.1118 269.233 19.9796 257.124C25.8201 245.072 35.0435 235.282 48.8514 226.216L44.4606 219.528ZM3.488 303.224V311H11.488V303.224H3.488ZM7.488 315H150.912V307H7.488V315ZM154.912 311V273.56H146.912V311H154.912ZM150.912 269.56H56.16V277.56H150.912V269.56ZM60.1576 273.698C60.3863 267.067 64.2144 260.607 73.3772 254.409L68.8948 247.783C58.4736 254.833 52.5097 263.349 52.1624 273.422L60.1576 273.698ZM73.3394 254.434L116.539 225.922L112.133 219.246L68.9326 247.758L73.3394 254.434Z" fill="black"/>
</svg>
