<svg width="237" height="534" viewBox="0 0 237 534" fill="none" xmlns="http://www.w3.org/2000/svg">
<path d="M196.704 280.32C213.696 273.408 223.488 258.72 223.488 239.424C223.488 220.704 217.152 205.728 204.192 194.496C191.232 182.976 174.24 177.216 153.216 177.216C133.632 177.216 117.216 182.976 103.68 194.496C90.144 205.728 82.368 220.704 80.064 239.424L117.216 245.184C117.504 226.752 131.904 214.656 152.352 214.656C170.496 214.656 182.592 224.736 182.592 239.712C182.592 253.824 168.768 263.04 148.32 263.04H139.392V297.6H151.776C172.224 297.6 185.76 307.68 185.76 322.944C185.76 339.072 173.088 350.016 153.792 350.016C133.056 350.016 118.368 337.344 117.216 318.624L80.064 324.672C82.08 343.392 90.144 358.656 103.68 370.176C117.216 381.696 134.208 387.456 154.368 387.456C175.968 387.456 193.536 381.984 206.784 371.04C220.32 359.808 226.944 345.408 226.944 327.264C226.944 305.088 215.424 288.096 196.704 280.32Z" fill="#2A1B3C" fill-opacity="0.01"/>
<path d="M196.704 280.32L195.197 276.615L186.183 280.281L195.17 284.014L196.704 280.32ZM204.192 194.496L201.535 197.486L201.553 197.502L201.572 197.519L204.192 194.496ZM103.68 194.496L106.234 197.574L106.253 197.558L106.272 197.542L103.68 194.496ZM80.064 239.424L76.094 238.935L75.6204 242.783L79.4512 243.377L80.064 239.424ZM117.216 245.184L116.603 249.137L121.144 249.841L121.216 245.246L117.216 245.184ZM139.392 263.04V259.04H135.392V263.04H139.392ZM139.392 297.6H135.392V301.6H139.392V297.6ZM117.216 318.624L121.208 318.378L120.937 313.966L116.573 314.676L117.216 318.624ZM80.064 324.672L79.4213 320.724L75.6813 321.333L76.087 325.1L80.064 324.672ZM103.68 370.176L101.088 373.222L103.68 370.176ZM206.784 371.04L209.332 374.124L209.338 374.118L206.784 371.04ZM198.211 284.025C216.771 276.475 227.488 260.281 227.488 239.424H219.488C219.488 257.159 210.621 270.34 195.197 276.615L198.211 284.025ZM227.488 239.424C227.488 219.689 220.752 203.555 206.812 191.473L201.572 197.519C213.552 207.901 219.488 221.719 219.488 239.424H227.488ZM206.849 191.506C193.009 179.204 175.001 173.216 153.216 173.216V181.216C173.479 181.216 189.455 186.748 201.535 197.486L206.849 191.506ZM153.216 173.216C132.778 173.216 115.417 179.255 101.088 191.45L106.272 197.542C119.015 186.697 134.486 181.216 153.216 181.216V173.216ZM101.126 191.418C86.7289 203.364 78.5099 219.306 76.094 238.935L84.034 239.913C86.2261 222.102 93.5591 208.092 106.234 197.574L101.126 191.418ZM79.4512 243.377L116.603 249.137L117.829 241.231L80.6768 235.471L79.4512 243.377ZM121.216 245.246C121.342 237.128 124.541 230.593 129.833 226.04C135.171 221.447 142.902 218.656 152.352 218.656V210.656C141.354 210.656 131.661 213.913 124.615 219.976C117.523 226.079 113.378 234.808 113.216 245.122L121.216 245.246ZM152.352 218.656C160.71 218.656 167.3 220.976 171.721 224.646C176.079 228.263 178.592 233.39 178.592 239.712H186.592C186.592 231.058 183.057 223.657 176.831 218.49C170.668 213.376 162.138 210.656 152.352 210.656V218.656ZM178.592 239.712C178.592 245.276 175.938 249.934 170.882 253.355C165.717 256.85 158.002 259.04 148.32 259.04V267.04C159.086 267.04 168.507 264.622 175.366 259.981C182.334 255.266 186.592 248.26 186.592 239.712H178.592ZM148.32 259.04H139.392V267.04H148.32V259.04ZM135.392 263.04V297.6H143.392V263.04H135.392ZM139.392 301.6H151.776V293.6H139.392V301.6ZM151.776 301.6C161.39 301.6 168.974 303.974 174.045 307.755C179.019 311.462 181.76 316.632 181.76 322.944H189.76C189.76 313.992 185.733 306.49 178.827 301.341C172.018 296.266 162.61 293.6 151.776 293.6V301.6ZM181.76 322.944C181.76 329.883 179.071 335.521 174.419 339.483C169.711 343.492 162.705 346.016 153.792 346.016V354.016C164.175 354.016 173.153 351.068 179.605 345.573C186.113 340.031 189.76 332.133 189.76 322.944H181.76ZM153.792 346.016C144.239 346.016 136.349 343.104 130.767 338.307C125.211 333.53 121.721 326.703 121.208 318.378L113.224 318.87C113.863 329.265 118.293 338.134 125.553 344.373C132.787 350.592 142.609 354.016 153.792 354.016V346.016ZM116.573 314.676L79.4213 320.724L80.7067 328.62L117.859 322.572L116.573 314.676ZM76.087 325.1C78.2089 344.804 86.7464 361.017 101.088 373.222L106.272 367.13C93.5416 356.295 85.9511 341.98 84.041 324.244L76.087 325.1ZM101.088 373.222C115.449 385.445 133.401 391.456 154.368 391.456V383.456C135.015 383.456 118.983 377.947 106.272 367.13L101.088 373.222ZM154.368 391.456C176.645 391.456 195.193 385.803 209.332 374.124L204.236 367.956C191.879 378.165 175.291 383.456 154.368 383.456V391.456ZM209.338 374.118C223.824 362.098 230.944 346.553 230.944 327.264H222.944C222.944 344.263 216.816 357.518 204.23 367.962L209.338 374.118ZM230.944 327.264C230.944 303.536 218.51 285.046 198.238 276.626L195.17 284.014C212.338 291.146 222.944 306.64 222.944 327.264H230.944Z" fill="black" fill-opacity="0.01"/>
<path d="M190.704 274.32C207.696 267.408 217.488 252.72 217.488 233.424C217.488 214.704 211.152 199.728 198.192 188.496C185.232 176.976 168.24 171.216 147.216 171.216C127.632 171.216 111.216 176.976 97.68 188.496C84.144 199.728 76.368 214.704 74.064 233.424L111.216 239.184C111.504 220.752 125.904 208.656 146.352 208.656C164.496 208.656 176.592 218.736 176.592 233.712C176.592 247.824 162.768 257.04 142.32 257.04H133.392V291.6H145.776C166.224 291.6 179.76 301.68 179.76 316.944C179.76 333.072 167.088 344.016 147.792 344.016C127.056 344.016 112.368 331.344 111.216 312.624L74.064 318.672C76.08 337.392 84.144 352.656 97.68 364.176C111.216 375.696 128.208 381.456 148.368 381.456C169.968 381.456 187.536 375.984 200.784 365.04C214.32 353.808 220.944 339.408 220.944 321.264C220.944 299.088 209.424 282.096 190.704 274.32Z" fill="#2A1B3C" fill-opacity="0.03"/>
<path d="M190.704 274.32L189.197 270.615L180.183 274.281L189.17 278.014L190.704 274.32ZM198.192 188.496L195.535 191.486L195.553 191.502L195.572 191.519L198.192 188.496ZM97.68 188.496L100.234 191.574L100.253 191.558L100.272 191.542L97.68 188.496ZM74.064 233.424L70.094 232.935L69.6204 236.783L73.4512 237.377L74.064 233.424ZM111.216 239.184L110.603 243.137L115.144 243.841L115.216 239.246L111.216 239.184ZM133.392 257.04V253.04H129.392V257.04H133.392ZM133.392 291.6H129.392V295.6H133.392V291.6ZM111.216 312.624L115.208 312.378L114.937 307.966L110.573 308.676L111.216 312.624ZM74.064 318.672L73.4213 314.724L69.6813 315.333L70.087 319.1L74.064 318.672ZM97.68 364.176L95.0875 367.222L97.68 364.176ZM200.784 365.04L203.332 368.124L203.338 368.118L200.784 365.04ZM192.211 278.025C210.771 270.475 221.488 254.281 221.488 233.424H213.488C213.488 251.159 204.621 264.34 189.197 270.615L192.211 278.025ZM221.488 233.424C221.488 213.689 214.752 197.555 200.812 185.473L195.572 191.519C207.552 201.901 213.488 215.719 213.488 233.424H221.488ZM200.849 185.506C187.009 173.204 169.001 167.216 147.216 167.216V175.216C167.479 175.216 183.455 180.748 195.535 191.486L200.849 185.506ZM147.216 167.216C126.778 167.216 109.417 173.255 95.0875 185.45L100.272 191.542C113.015 180.697 128.486 175.216 147.216 175.216V167.216ZM95.1257 185.418C80.7289 197.364 72.5099 213.306 70.094 232.935L78.034 233.913C80.2261 216.102 87.5591 202.092 100.234 191.574L95.1257 185.418ZM73.4512 237.377L110.603 243.137L111.829 235.231L74.6768 229.471L73.4512 237.377ZM115.216 239.246C115.342 231.128 118.541 224.593 123.833 220.04C129.171 215.447 136.902 212.656 146.352 212.656V204.656C135.354 204.656 125.661 207.913 118.615 213.976C111.523 220.079 107.378 228.808 107.216 239.122L115.216 239.246ZM146.352 212.656C154.71 212.656 161.3 214.976 165.721 218.646C170.079 222.263 172.592 227.39 172.592 233.712H180.592C180.592 225.058 177.057 217.657 170.831 212.49C164.668 207.376 156.138 204.656 146.352 204.656V212.656ZM172.592 233.712C172.592 239.276 169.938 243.934 164.882 247.355C159.717 250.85 152.002 253.04 142.32 253.04V261.04C153.086 261.04 162.507 258.622 169.366 253.981C176.334 249.266 180.592 242.26 180.592 233.712H172.592ZM142.32 253.04H133.392V261.04H142.32V253.04ZM129.392 257.04V291.6H137.392V257.04H129.392ZM133.392 295.6H145.776V287.6H133.392V295.6ZM145.776 295.6C155.39 295.6 162.974 297.974 168.045 301.755C173.019 305.462 175.76 310.632 175.76 316.944H183.76C183.76 307.992 179.733 300.49 172.827 295.341C166.018 290.266 156.61 287.6 145.776 287.6V295.6ZM175.76 316.944C175.76 323.883 173.071 329.521 168.419 333.483C163.711 337.492 156.705 340.016 147.792 340.016V348.016C158.175 348.016 167.153 345.068 173.605 339.573C180.113 334.031 183.76 326.133 183.76 316.944H175.76ZM147.792 340.016C138.239 340.016 130.349 337.104 124.767 332.307C119.211 327.53 115.721 320.703 115.208 312.378L107.224 312.87C107.863 323.265 112.293 332.134 119.553 338.373C126.787 344.592 136.609 348.016 147.792 348.016V340.016ZM110.573 308.676L73.4213 314.724L74.7067 322.62L111.859 316.572L110.573 308.676ZM70.087 319.1C72.2089 338.804 80.7464 355.017 95.0875 367.222L100.272 361.13C87.5416 350.295 79.9511 335.98 78.041 318.244L70.087 319.1ZM95.0875 367.222C109.449 379.445 127.401 385.456 148.368 385.456V377.456C129.015 377.456 112.983 371.947 100.272 361.13L95.0875 367.222ZM148.368 385.456C170.645 385.456 189.193 379.803 203.332 368.124L198.236 361.956C185.879 372.165 169.291 377.456 148.368 377.456V385.456ZM203.338 368.118C217.824 356.098 224.944 340.553 224.944 321.264H216.944C216.944 338.263 210.816 351.518 198.23 361.962L203.338 368.118ZM224.944 321.264C224.944 297.536 212.51 279.046 192.238 270.626L189.17 278.014C206.338 285.146 216.944 300.64 216.944 321.264H224.944Z" fill="black" fill-opacity="0.03"/>
<path d="M184.704 268.32C201.696 261.408 211.488 246.72 211.488 227.424C211.488 208.704 205.152 193.728 192.192 182.496C179.232 170.976 162.24 165.216 141.216 165.216C121.632 165.216 105.216 170.976 91.68 182.496C78.144 193.728 70.368 208.704 68.064 227.424L105.216 233.184C105.504 214.752 119.904 202.656 140.352 202.656C158.496 202.656 170.592 212.736 170.592 227.712C170.592 241.824 156.768 251.04 136.32 251.04H127.392V285.6H139.776C160.224 285.6 173.76 295.68 173.76 310.944C173.76 327.072 161.088 338.016 141.792 338.016C121.056 338.016 106.368 325.344 105.216 306.624L68.064 312.672C70.08 331.392 78.144 346.656 91.68 358.176C105.216 369.696 122.208 375.456 142.368 375.456C163.968 375.456 181.536 369.984 194.784 359.04C208.32 347.808 214.944 333.408 214.944 315.264C214.944 293.088 203.424 276.096 184.704 268.32Z" fill="#2A1B3C" fill-opacity="0.05"/>
<path d="M184.704 268.32L183.197 264.615L174.183 268.281L183.17 272.014L184.704 268.32ZM192.192 182.496L189.535 185.486L189.553 185.502L189.572 185.519L192.192 182.496ZM91.68 182.496L94.2343 185.574L94.2535 185.558L94.2725 185.542L91.68 182.496ZM68.064 227.424L64.094 226.935L63.6204 230.783L67.4512 231.377L68.064 227.424ZM105.216 233.184L104.603 237.137L109.144 237.841L109.216 233.246L105.216 233.184ZM127.392 251.04V247.04H123.392V251.04H127.392ZM127.392 285.6H123.392V289.6H127.392V285.6ZM105.216 306.624L109.208 306.378L108.937 301.966L104.573 302.676L105.216 306.624ZM68.064 312.672L67.4213 308.724L63.6813 309.333L64.087 313.1L68.064 312.672ZM91.68 358.176L89.0875 361.222L91.68 358.176ZM194.784 359.04L197.332 362.124L197.338 362.118L194.784 359.04ZM186.211 272.025C204.771 264.475 215.488 248.281 215.488 227.424H207.488C207.488 245.159 198.621 258.34 183.197 264.615L186.211 272.025ZM215.488 227.424C215.488 207.689 208.752 191.555 194.812 179.473L189.572 185.519C201.552 195.901 207.488 209.719 207.488 227.424H215.488ZM194.849 179.506C181.009 167.204 163.001 161.216 141.216 161.216V169.216C161.479 169.216 177.455 174.748 189.535 185.486L194.849 179.506ZM141.216 161.216C120.778 161.216 103.417 167.255 89.0875 179.45L94.2725 185.542C107.015 174.697 122.486 169.216 141.216 169.216V161.216ZM89.1257 179.418C74.7289 191.364 66.5099 207.306 64.094 226.935L72.034 227.913C74.2261 210.102 81.5591 196.092 94.2343 185.574L89.1257 179.418ZM67.4512 231.377L104.603 237.137L105.829 229.231L68.6768 223.471L67.4512 231.377ZM109.216 233.246C109.342 225.128 112.541 218.593 117.833 214.04C123.171 209.447 130.902 206.656 140.352 206.656V198.656C129.354 198.656 119.661 201.913 112.615 207.976C105.523 214.079 101.378 222.808 101.216 233.122L109.216 233.246ZM140.352 206.656C148.71 206.656 155.3 208.976 159.721 212.646C164.079 216.263 166.592 221.39 166.592 227.712H174.592C174.592 219.058 171.057 211.657 164.831 206.49C158.668 201.376 150.138 198.656 140.352 198.656V206.656ZM166.592 227.712C166.592 233.276 163.938 237.934 158.882 241.355C153.717 244.85 146.002 247.04 136.32 247.04V255.04C147.086 255.04 156.507 252.622 163.366 247.981C170.334 243.266 174.592 236.26 174.592 227.712H166.592ZM136.32 247.04H127.392V255.04H136.32V247.04ZM123.392 251.04V285.6H131.392V251.04H123.392ZM127.392 289.6H139.776V281.6H127.392V289.6ZM139.776 289.6C149.39 289.6 156.974 291.974 162.045 295.755C167.019 299.462 169.76 304.632 169.76 310.944H177.76C177.76 301.992 173.733 294.49 166.827 289.341C160.018 284.266 150.61 281.6 139.776 281.6V289.6ZM169.76 310.944C169.76 317.883 167.071 323.521 162.419 327.483C157.711 331.492 150.705 334.016 141.792 334.016V342.016C152.175 342.016 161.153 339.068 167.605 333.573C174.113 328.031 177.76 320.133 177.76 310.944H169.76ZM141.792 334.016C132.239 334.016 124.349 331.104 118.767 326.307C113.211 321.53 109.721 314.703 109.208 306.378L101.224 306.87C101.863 317.265 106.293 326.134 113.553 332.373C120.787 338.592 130.609 342.016 141.792 342.016V334.016ZM104.573 302.676L67.4213 308.724L68.7067 316.62L105.859 310.572L104.573 302.676ZM64.087 313.1C66.2089 332.804 74.7464 349.017 89.0875 361.222L94.2725 355.13C81.5416 344.295 73.9511 329.98 72.041 312.244L64.087 313.1ZM89.0875 361.222C103.449 373.445 121.401 379.456 142.368 379.456V371.456C123.015 371.456 106.983 365.947 94.2725 355.13L89.0875 361.222ZM142.368 379.456C164.645 379.456 183.193 373.803 197.332 362.124L192.236 355.956C179.879 366.165 163.291 371.456 142.368 371.456V379.456ZM197.338 362.118C211.824 350.098 218.944 334.553 218.944 315.264H210.944C210.944 332.263 204.816 345.518 192.23 355.962L197.338 362.118ZM218.944 315.264C218.944 291.536 206.51 273.046 186.238 264.626L183.17 272.014C200.338 279.146 210.944 294.64 210.944 315.264H218.944Z" fill="black" fill-opacity="0.05"/>
<path d="M178.704 262.32C195.696 255.408 205.488 240.72 205.488 221.424C205.488 202.704 199.152 187.728 186.192 176.496C173.232 164.976 156.24 159.216 135.216 159.216C115.632 159.216 99.216 164.976 85.68 176.496C72.144 187.728 64.368 202.704 62.064 221.424L99.216 227.184C99.504 208.752 113.904 196.656 134.352 196.656C152.496 196.656 164.592 206.736 164.592 221.712C164.592 235.824 150.768 245.04 130.32 245.04H121.392V279.6H133.776C154.224 279.6 167.76 289.68 167.76 304.944C167.76 321.072 155.088 332.016 135.792 332.016C115.056 332.016 100.368 319.344 99.216 300.624L62.064 306.672C64.08 325.392 72.144 340.656 85.68 352.176C99.216 363.696 116.208 369.456 136.368 369.456C157.968 369.456 175.536 363.984 188.784 353.04C202.32 341.808 208.944 327.408 208.944 309.264C208.944 287.088 197.424 270.096 178.704 262.32Z" fill="#2A1B3C" fill-opacity="0.1"/>
<path d="M178.704 262.32L177.197 258.615L168.183 262.281L177.17 266.014L178.704 262.32ZM186.192 176.496L183.535 179.486L183.553 179.502L183.572 179.519L186.192 176.496ZM85.68 176.496L88.2343 179.574L88.2535 179.558L88.2725 179.542L85.68 176.496ZM62.064 221.424L58.094 220.935L57.6204 224.783L61.4512 225.377L62.064 221.424ZM99.216 227.184L98.6032 231.137L103.144 231.841L103.216 227.246L99.216 227.184ZM121.392 245.04V241.04H117.392V245.04H121.392ZM121.392 279.6H117.392V283.6H121.392V279.6ZM99.216 300.624L103.208 300.378L102.937 295.966L98.5733 296.676L99.216 300.624ZM62.064 306.672L61.4213 302.724L57.6813 303.333L58.087 307.1L62.064 306.672ZM85.68 352.176L83.0875 355.222L85.68 352.176ZM188.784 353.04L191.332 356.124L191.338 356.118L188.784 353.04ZM180.211 266.025C198.771 258.475 209.488 242.281 209.488 221.424H201.488C201.488 239.159 192.621 252.34 177.197 258.615L180.211 266.025ZM209.488 221.424C209.488 201.689 202.752 185.555 188.812 173.473L183.572 179.519C195.552 189.901 201.488 203.719 201.488 221.424H209.488ZM188.849 173.506C175.009 161.204 157.001 155.216 135.216 155.216V163.216C155.479 163.216 171.455 168.748 183.535 179.486L188.849 173.506ZM135.216 155.216C114.778 155.216 97.4167 161.255 83.0875 173.45L88.2725 179.542C101.015 168.697 116.486 163.216 135.216 163.216V155.216ZM83.1257 173.418C68.7289 185.364 60.5099 201.306 58.094 220.935L66.034 221.913C68.2261 204.102 75.5591 190.092 88.2343 179.574L83.1257 173.418ZM61.4512 225.377L98.6032 231.137L99.8288 223.231L62.6768 217.471L61.4512 225.377ZM103.216 227.246C103.342 219.128 106.541 212.593 111.833 208.04C117.171 203.447 124.902 200.656 134.352 200.656V192.656C123.354 192.656 113.661 195.913 106.615 201.976C99.5227 208.079 95.3776 216.808 95.2165 227.122L103.216 227.246ZM134.352 200.656C142.71 200.656 149.3 202.976 153.721 206.646C158.079 210.263 160.592 215.39 160.592 221.712H168.592C168.592 213.058 165.057 205.657 158.831 200.49C152.668 195.376 144.138 192.656 134.352 192.656V200.656ZM160.592 221.712C160.592 227.276 157.938 231.934 152.882 235.355C147.717 238.85 140.002 241.04 130.32 241.04V249.04C141.086 249.04 150.507 246.622 157.366 241.981C164.334 237.266 168.592 230.26 168.592 221.712H160.592ZM130.32 241.04H121.392V249.04H130.32V241.04ZM117.392 245.04V279.6H125.392V245.04H117.392ZM121.392 283.6H133.776V275.6H121.392V283.6ZM133.776 283.6C143.39 283.6 150.974 285.974 156.045 289.755C161.019 293.462 163.76 298.632 163.76 304.944H171.76C171.76 295.992 167.733 288.49 160.827 283.341C154.018 278.266 144.61 275.6 133.776 275.6V283.6ZM163.76 304.944C163.76 311.883 161.071 317.521 156.419 321.483C151.711 325.492 144.705 328.016 135.792 328.016V336.016C146.175 336.016 155.153 333.068 161.605 327.573C168.113 322.031 171.76 314.133 171.76 304.944H163.76ZM135.792 328.016C126.239 328.016 118.349 325.104 112.767 320.307C107.211 315.53 103.721 308.703 103.208 300.378L95.2236 300.87C95.8632 311.265 100.293 320.134 107.553 326.373C114.787 332.592 124.609 336.016 135.792 336.016V328.016ZM98.5733 296.676L61.4213 302.724L62.7067 310.62L99.8587 304.572L98.5733 296.676ZM58.087 307.1C60.2089 326.804 68.7464 343.017 83.0875 355.222L88.2725 349.13C75.5416 338.295 67.9511 323.98 66.041 306.244L58.087 307.1ZM83.0875 355.222C97.4492 367.445 115.401 373.456 136.368 373.456V365.456C117.015 365.456 100.983 359.947 88.2725 349.13L83.0875 355.222ZM136.368 373.456C158.645 373.456 177.193 367.803 191.332 356.124L186.236 349.956C173.879 360.165 157.291 365.456 136.368 365.456V373.456ZM191.338 356.118C205.824 344.098 212.944 328.553 212.944 309.264H204.944C204.944 326.263 198.816 339.518 186.23 349.962L191.338 356.118ZM212.944 309.264C212.944 285.536 200.51 267.046 180.238 258.626L177.17 266.014C194.338 273.146 204.944 288.64 204.944 309.264H212.944Z" fill="black" fill-opacity="0.1"/>
<path d="M172.704 256.32C189.696 249.408 199.488 234.72 199.488 215.424C199.488 196.704 193.152 181.728 180.192 170.496C167.232 158.976 150.24 153.216 129.216 153.216C109.632 153.216 93.216 158.976 79.68 170.496C66.144 181.728 58.368 196.704 56.064 215.424L93.216 221.184C93.504 202.752 107.904 190.656 128.352 190.656C146.496 190.656 158.592 200.736 158.592 215.712C158.592 229.824 144.768 239.04 124.32 239.04H115.392V273.6H127.776C148.224 273.6 161.76 283.68 161.76 298.944C161.76 315.072 149.088 326.016 129.792 326.016C109.056 326.016 94.368 313.344 93.216 294.624L56.064 300.672C58.08 319.392 66.144 334.656 79.68 346.176C93.216 357.696 110.208 363.456 130.368 363.456C151.968 363.456 169.536 357.984 182.784 347.04C196.32 335.808 202.944 321.408 202.944 303.264C202.944 281.088 191.424 264.096 172.704 256.32Z" fill="#2A1B3C" fill-opacity="0.2"/>
<path d="M172.704 256.32L171.197 252.615L162.183 256.281L171.17 260.014L172.704 256.32ZM180.192 170.496L177.535 173.486L177.553 173.502L177.572 173.519L180.192 170.496ZM79.68 170.496L82.2343 173.574L82.2535 173.558L82.2725 173.542L79.68 170.496ZM56.064 215.424L52.094 214.935L51.6204 218.783L55.4512 219.377L56.064 215.424ZM93.216 221.184L92.6032 225.137L97.1437 225.841L97.2155 221.246L93.216 221.184ZM115.392 239.04V235.04H111.392V239.04H115.392ZM115.392 273.6H111.392V277.6H115.392V273.6ZM93.216 294.624L97.2085 294.378L96.9369 289.966L92.5733 290.676L93.216 294.624ZM56.064 300.672L55.4213 296.724L51.6813 297.333L52.087 301.1L56.064 300.672ZM79.68 346.176L77.0875 349.222L79.68 346.176ZM182.784 347.04L185.332 350.124L185.338 350.118L182.784 347.04ZM174.211 260.025C192.771 252.475 203.488 236.281 203.488 215.424H195.488C195.488 233.159 186.621 246.34 171.197 252.615L174.211 260.025ZM203.488 215.424C203.488 195.689 196.752 179.555 182.812 167.473L177.572 173.519C189.552 183.901 195.488 197.719 195.488 215.424H203.488ZM182.849 167.506C169.009 155.204 151.001 149.216 129.216 149.216V157.216C149.479 157.216 165.455 162.748 177.535 173.486L182.849 167.506ZM129.216 149.216C108.778 149.216 91.4167 155.255 77.0875 167.45L82.2725 173.542C95.0154 162.697 110.486 157.216 129.216 157.216V149.216ZM77.1257 167.418C62.7289 179.364 54.5099 195.306 52.094 214.935L60.034 215.913C62.2261 198.102 69.5591 184.092 82.2343 173.574L77.1257 167.418ZM55.4512 219.377L92.6032 225.137L93.8288 217.231L56.6768 211.471L55.4512 219.377ZM97.2155 221.246C97.3424 213.128 100.541 206.593 105.833 202.04C111.171 197.447 118.902 194.656 128.352 194.656V186.656C117.354 186.656 107.661 189.913 100.615 195.976C93.5227 202.079 89.3776 210.808 89.2165 221.122L97.2155 221.246ZM128.352 194.656C136.71 194.656 143.3 196.976 147.721 200.646C152.079 204.263 154.592 209.39 154.592 215.712H162.592C162.592 207.058 159.057 199.657 152.831 194.49C146.668 189.376 138.138 186.656 128.352 186.656V194.656ZM154.592 215.712C154.592 221.276 151.938 225.934 146.882 229.355C141.717 232.85 134.002 235.04 124.32 235.04V243.04C135.086 243.04 144.507 240.622 151.366 235.981C158.334 231.266 162.592 224.26 162.592 215.712H154.592ZM124.32 235.04H115.392V243.04H124.32V235.04ZM111.392 239.04V273.6H119.392V239.04H111.392ZM115.392 277.6H127.776V269.6H115.392V277.6ZM127.776 277.6C137.39 277.6 144.974 279.974 150.045 283.755C155.019 287.462 157.76 292.632 157.76 298.944H165.76C165.76 289.992 161.733 282.49 154.827 277.341C148.018 272.266 138.61 269.6 127.776 269.6V277.6ZM157.76 298.944C157.76 305.883 155.071 311.521 150.419 315.483C145.711 319.492 138.705 322.016 129.792 322.016V330.016C140.175 330.016 149.153 327.068 155.605 321.573C162.113 316.031 165.76 308.133 165.76 298.944H157.76ZM129.792 322.016C120.239 322.016 112.349 319.104 106.767 314.307C101.211 309.53 97.7208 302.703 97.2085 294.378L89.2236 294.87C89.8632 305.265 94.2932 314.134 101.553 320.373C108.787 326.592 118.609 330.016 129.792 330.016V322.016ZM92.5733 290.676L55.4213 296.724L56.7067 304.62L93.8587 298.572L92.5733 290.676ZM52.087 301.1C54.2089 320.804 62.7464 337.017 77.0875 349.222L82.2725 343.13C69.5416 332.295 61.9511 317.98 60.041 300.244L52.087 301.1ZM77.0875 349.222C91.4492 361.445 109.401 367.456 130.368 367.456V359.456C111.015 359.456 94.9828 353.947 82.2725 343.13L77.0875 349.222ZM130.368 367.456C152.645 367.456 171.193 361.803 185.332 350.124L180.236 343.956C167.879 354.165 151.291 359.456 130.368 359.456V367.456ZM185.338 350.118C199.824 338.098 206.944 322.553 206.944 303.264H198.944C198.944 320.263 192.816 333.518 180.23 343.962L185.338 350.118ZM206.944 303.264C206.944 279.536 194.51 261.046 174.238 252.626L171.17 260.014C188.338 267.146 198.944 282.64 198.944 303.264H206.944Z" fill="black" fill-opacity="0.2"/>
<path d="M166.704 250.32C183.696 243.408 193.488 228.72 193.488 209.424C193.488 190.704 187.152 175.728 174.192 164.496C161.232 152.976 144.24 147.216 123.216 147.216C103.632 147.216 87.216 152.976 73.68 164.496C60.144 175.728 52.368 190.704 50.064 209.424L87.216 215.184C87.504 196.752 101.904 184.656 122.352 184.656C140.496 184.656 152.592 194.736 152.592 209.712C152.592 223.824 138.768 233.04 118.32 233.04H109.392V267.6H121.776C142.224 267.6 155.76 277.68 155.76 292.944C155.76 309.072 143.088 320.016 123.792 320.016C103.056 320.016 88.368 307.344 87.216 288.624L50.064 294.672C52.08 313.392 60.144 328.656 73.68 340.176C87.216 351.696 104.208 357.456 124.368 357.456C145.968 357.456 163.536 351.984 176.784 341.04C190.32 329.808 196.944 315.408 196.944 297.264C196.944 275.088 185.424 258.096 166.704 250.32Z" fill="#2A1B3C" fill-opacity="0.3"/>
<path d="M166.704 250.32L165.197 246.615L156.183 250.281L165.17 254.014L166.704 250.32ZM174.192 164.496L171.535 167.486L171.553 167.502L171.572 167.519L174.192 164.496ZM73.68 164.496L76.2343 167.574L76.2535 167.558L76.2725 167.542L73.68 164.496ZM50.064 209.424L46.094 208.935L45.6204 212.783L49.4512 213.377L50.064 209.424ZM87.216 215.184L86.6032 219.137L91.1437 219.841L91.2155 215.246L87.216 215.184ZM109.392 233.04V229.04H105.392V233.04H109.392ZM109.392 267.6H105.392V271.6H109.392V267.6ZM87.216 288.624L91.2085 288.378L90.9369 283.966L86.5733 284.676L87.216 288.624ZM50.064 294.672L49.4213 290.724L45.6813 291.333L46.087 295.1L50.064 294.672ZM73.68 340.176L71.0875 343.222L73.68 340.176ZM176.784 341.04L179.332 344.124L179.338 344.118L176.784 341.04ZM168.211 254.025C186.771 246.475 197.488 230.281 197.488 209.424H189.488C189.488 227.159 180.621 240.34 165.197 246.615L168.211 254.025ZM197.488 209.424C197.488 189.689 190.752 173.555 176.812 161.473L171.572 167.519C183.552 177.901 189.488 191.719 189.488 209.424H197.488ZM176.849 161.506C163.009 149.204 145.001 143.216 123.216 143.216V151.216C143.479 151.216 159.455 156.748 171.535 167.486L176.849 161.506ZM123.216 143.216C102.778 143.216 85.4167 149.255 71.0875 161.45L76.2725 167.542C89.0154 156.697 104.486 151.216 123.216 151.216V143.216ZM71.1257 161.418C56.7289 173.364 48.5099 189.306 46.094 208.935L54.034 209.913C56.2261 192.102 63.5591 178.092 76.2343 167.574L71.1257 161.418ZM49.4512 213.377L86.6032 219.137L87.8288 211.231L50.6768 205.471L49.4512 213.377ZM91.2155 215.246C91.3424 207.128 94.5413 200.593 99.833 196.04C105.171 191.447 112.902 188.656 122.352 188.656V180.656C111.354 180.656 101.661 183.913 94.615 189.976C87.5227 196.079 83.3776 204.808 83.2165 215.122L91.2155 215.246ZM122.352 188.656C130.71 188.656 137.3 190.976 141.721 194.646C146.079 198.263 148.592 203.39 148.592 209.712H156.592C156.592 201.058 153.057 193.657 146.831 188.49C140.668 183.376 132.138 180.656 122.352 180.656V188.656ZM148.592 209.712C148.592 215.276 145.938 219.934 140.882 223.355C135.717 226.85 128.002 229.04 118.32 229.04V237.04C129.086 237.04 138.507 234.622 145.366 229.981C152.334 225.266 156.592 218.26 156.592 209.712H148.592ZM118.32 229.04H109.392V237.04H118.32V229.04ZM105.392 233.04V267.6H113.392V233.04H105.392ZM109.392 271.6H121.776V263.6H109.392V271.6ZM121.776 271.6C131.39 271.6 138.974 273.974 144.045 277.755C149.019 281.462 151.76 286.632 151.76 292.944H159.76C159.76 283.992 155.733 276.49 148.827 271.341C142.018 266.266 132.61 263.6 121.776 263.6V271.6ZM151.76 292.944C151.76 299.883 149.071 305.521 144.419 309.483C139.711 313.492 132.705 316.016 123.792 316.016V324.016C134.175 324.016 143.153 321.068 149.605 315.573C156.113 310.031 159.76 302.133 159.76 292.944H151.76ZM123.792 316.016C114.239 316.016 106.349 313.104 100.767 308.307C95.2108 303.53 91.7208 296.703 91.2085 288.378L83.2236 288.87C83.8632 299.265 88.2932 308.134 95.5526 314.373C102.787 320.592 112.609 324.016 123.792 324.016V316.016ZM86.5733 284.676L49.4213 290.724L50.7067 298.62L87.8587 292.572L86.5733 284.676ZM46.087 295.1C48.2089 314.804 56.7464 331.017 71.0875 343.222L76.2725 337.13C63.5416 326.295 55.9511 311.98 54.041 294.244L46.087 295.1ZM71.0875 343.222C85.4492 355.445 103.401 361.456 124.368 361.456V353.456C105.015 353.456 88.9828 347.947 76.2725 337.13L71.0875 343.222ZM124.368 361.456C146.645 361.456 165.193 355.803 179.332 344.124L174.236 337.956C161.879 348.165 145.291 353.456 124.368 353.456V361.456ZM179.338 344.118C193.824 332.098 200.944 316.553 200.944 297.264H192.944C192.944 314.263 186.816 327.518 174.23 337.962L179.338 344.118ZM200.944 297.264C200.944 273.536 188.51 255.046 168.238 246.626L165.17 254.014C182.338 261.146 192.944 276.64 192.944 297.264H200.944Z" fill="black" fill-opacity="0.3"/>
<path d="M160.704 244.32C177.696 237.408 187.488 222.72 187.488 203.424C187.488 184.704 181.152 169.728 168.192 158.496C155.232 146.976 138.24 141.216 117.216 141.216C97.632 141.216 81.216 146.976 67.68 158.496C54.144 169.728 46.368 184.704 44.064 203.424L81.216 209.184C81.504 190.752 95.904 178.656 116.352 178.656C134.496 178.656 146.592 188.736 146.592 203.712C146.592 217.824 132.768 227.04 112.32 227.04H103.392V261.6H115.776C136.224 261.6 149.76 271.68 149.76 286.944C149.76 303.072 137.088 314.016 117.792 314.016C97.056 314.016 82.368 301.344 81.216 282.624L44.064 288.672C46.08 307.392 54.144 322.656 67.68 334.176C81.216 345.696 98.208 351.456 118.368 351.456C139.968 351.456 157.536 345.984 170.784 335.04C184.32 323.808 190.944 309.408 190.944 291.264C190.944 269.088 179.424 252.096 160.704 244.32Z" fill="#2A1B3C" fill-opacity="0.4"/>
<path d="M160.704 244.32L159.197 240.615L150.183 244.281L159.17 248.014L160.704 244.32ZM168.192 158.496L165.535 161.486L165.553 161.502L165.572 161.519L168.192 158.496ZM67.68 158.496L70.2343 161.574L70.2535 161.558L70.2725 161.542L67.68 158.496ZM44.064 203.424L40.094 202.935L39.6204 206.783L43.4512 207.377L44.064 203.424ZM81.216 209.184L80.6032 213.137L85.1437 213.841L85.2155 209.246L81.216 209.184ZM103.392 227.04V223.04H99.392V227.04H103.392ZM103.392 261.6H99.392V265.6H103.392V261.6ZM81.216 282.624L85.2085 282.378L84.9369 277.966L80.5733 278.676L81.216 282.624ZM44.064 288.672L43.4213 284.724L39.6813 285.333L40.087 289.1L44.064 288.672ZM67.68 334.176L65.0875 337.222L67.68 334.176ZM170.784 335.04L173.332 338.124L173.338 338.118L170.784 335.04ZM162.211 248.025C180.771 240.475 191.488 224.281 191.488 203.424H183.488C183.488 221.159 174.621 234.34 159.197 240.615L162.211 248.025ZM191.488 203.424C191.488 183.689 184.752 167.555 170.812 155.473L165.572 161.519C177.552 171.901 183.488 185.719 183.488 203.424H191.488ZM170.849 155.506C157.009 143.204 139.001 137.216 117.216 137.216V145.216C137.479 145.216 153.455 150.748 165.535 161.486L170.849 155.506ZM117.216 137.216C96.7776 137.216 79.4167 143.255 65.0875 155.45L70.2725 161.542C83.0154 150.697 98.4864 145.216 117.216 145.216V137.216ZM65.1257 155.418C50.7289 167.364 42.5099 183.306 40.094 202.935L48.034 203.913C50.2261 186.102 57.5591 172.092 70.2343 161.574L65.1257 155.418ZM43.4512 207.377L80.6032 213.137L81.8288 205.231L44.6768 199.471L43.4512 207.377ZM85.2155 209.246C85.3424 201.128 88.5413 194.593 93.833 190.04C99.1713 185.447 106.902 182.656 116.352 182.656V174.656C105.354 174.656 95.6608 177.913 88.615 183.976C81.5227 190.079 77.3776 198.808 77.2165 209.122L85.2155 209.246ZM116.352 182.656C124.71 182.656 131.3 184.976 135.721 188.646C140.079 192.263 142.592 197.39 142.592 203.712H150.592C150.592 195.058 147.057 187.657 140.831 182.49C134.668 177.376 126.138 174.656 116.352 174.656V182.656ZM142.592 203.712C142.592 209.276 139.938 213.934 134.882 217.355C129.717 220.85 122.002 223.04 112.32 223.04V231.04C123.086 231.04 132.507 228.622 139.366 223.981C146.334 219.266 150.592 212.26 150.592 203.712H142.592ZM112.32 223.04H103.392V231.04H112.32V223.04ZM99.392 227.04V261.6H107.392V227.04H99.392ZM103.392 265.6H115.776V257.6H103.392V265.6ZM115.776 265.6C125.39 265.6 132.974 267.974 138.045 271.755C143.019 275.462 145.76 280.632 145.76 286.944H153.76C153.76 277.992 149.733 270.49 142.827 265.341C136.018 260.266 126.61 257.6 115.776 257.6V265.6ZM145.76 286.944C145.76 293.883 143.071 299.521 138.419 303.483C133.711 307.492 126.705 310.016 117.792 310.016V318.016C128.175 318.016 137.153 315.068 143.605 309.573C150.113 304.031 153.76 296.133 153.76 286.944H145.76ZM117.792 310.016C108.239 310.016 100.349 307.104 94.7674 302.307C89.2108 297.53 85.7208 290.703 85.2085 282.378L77.2236 282.87C77.8632 293.265 82.2932 302.134 89.5526 308.373C96.7872 314.592 106.609 318.016 117.792 318.016V310.016ZM80.5733 278.676L43.4213 284.724L44.7067 292.62L81.8587 286.572L80.5733 278.676ZM40.087 289.1C42.2089 308.804 50.7464 325.017 65.0875 337.222L70.2725 331.13C57.5416 320.295 49.9511 305.98 48.041 288.244L40.087 289.1ZM65.0875 337.222C79.4492 349.445 97.4015 355.456 118.368 355.456V347.456C99.0145 347.456 82.9828 341.947 70.2725 331.13L65.0875 337.222ZM118.368 355.456C140.645 355.456 159.193 349.803 173.332 338.124L168.236 331.956C155.879 342.165 139.291 347.456 118.368 347.456V355.456ZM173.338 338.118C187.824 326.098 194.944 310.553 194.944 291.264H186.944C186.944 308.263 180.816 321.518 168.23 331.962L173.338 338.118ZM194.944 291.264C194.944 267.536 182.51 249.046 162.238 240.626L159.17 248.014C176.338 255.146 186.944 270.64 186.944 291.264H194.944Z" fill="black" fill-opacity="0.4"/>
<path d="M154.704 238.32C171.696 231.408 181.488 216.72 181.488 197.424C181.488 178.704 175.152 163.728 162.192 152.496C149.232 140.976 132.24 135.216 111.216 135.216C91.632 135.216 75.216 140.976 61.68 152.496C48.144 163.728 40.368 178.704 38.064 197.424L75.216 203.184C75.504 184.752 89.904 172.656 110.352 172.656C128.496 172.656 140.592 182.736 140.592 197.712C140.592 211.824 126.768 221.04 106.32 221.04H97.392V255.6H109.776C130.224 255.6 143.76 265.68 143.76 280.944C143.76 297.072 131.088 308.016 111.792 308.016C91.056 308.016 76.368 295.344 75.216 276.624L38.064 282.672C40.08 301.392 48.144 316.656 61.68 328.176C75.216 339.696 92.208 345.456 112.368 345.456C133.968 345.456 151.536 339.984 164.784 329.04C178.32 317.808 184.944 303.408 184.944 285.264C184.944 263.088 173.424 246.096 154.704 238.32Z" fill="#2A1B3C" fill-opacity="0.5"/>
<path d="M154.704 238.32L153.197 234.615L144.183 238.281L153.17 242.014L154.704 238.32ZM162.192 152.496L159.535 155.486L159.553 155.502L159.572 155.519L162.192 152.496ZM61.68 152.496L64.2343 155.574L64.2535 155.558L64.2725 155.542L61.68 152.496ZM38.064 197.424L34.094 196.935L33.6204 200.783L37.4512 201.377L38.064 197.424ZM75.216 203.184L74.6032 207.137L79.1437 207.841L79.2155 203.246L75.216 203.184ZM97.392 221.04V217.04H93.392V221.04H97.392ZM97.392 255.6H93.392V259.6H97.392V255.6ZM75.216 276.624L79.2085 276.378L78.9369 271.966L74.5733 272.676L75.216 276.624ZM38.064 282.672L37.4213 278.724L33.6813 279.333L34.087 283.1L38.064 282.672ZM61.68 328.176L59.0875 331.222L61.68 328.176ZM164.784 329.04L167.332 332.124L167.338 332.118L164.784 329.04ZM156.211 242.025C174.771 234.475 185.488 218.281 185.488 197.424H177.488C177.488 215.159 168.621 228.34 153.197 234.615L156.211 242.025ZM185.488 197.424C185.488 177.689 178.752 161.555 164.812 149.473L159.572 155.519C171.552 165.901 177.488 179.719 177.488 197.424H185.488ZM164.849 149.506C151.009 137.204 133.001 131.216 111.216 131.216V139.216C131.479 139.216 147.455 144.748 159.535 155.486L164.849 149.506ZM111.216 131.216C90.7776 131.216 73.4167 137.255 59.0875 149.45L64.2725 155.542C77.0154 144.697 92.4864 139.216 111.216 139.216V131.216ZM59.1257 149.418C44.7289 161.364 36.5099 177.306 34.094 196.935L42.034 197.913C44.2261 180.102 51.5591 166.092 64.2343 155.574L59.1257 149.418ZM37.4512 201.377L74.6032 207.137L75.8288 199.231L38.6768 193.471L37.4512 201.377ZM79.2155 203.246C79.3424 195.128 82.5413 188.593 87.833 184.04C93.1713 179.447 100.902 176.656 110.352 176.656V168.656C99.354 168.656 89.6608 171.913 82.615 177.976C75.5227 184.079 71.3776 192.808 71.2165 203.122L79.2155 203.246ZM110.352 176.656C118.71 176.656 125.3 178.976 129.721 182.646C134.079 186.263 136.592 191.39 136.592 197.712H144.592C144.592 189.058 141.057 181.657 134.831 176.49C128.668 171.376 120.138 168.656 110.352 168.656V176.656ZM136.592 197.712C136.592 203.276 133.938 207.934 128.882 211.355C123.717 214.85 116.002 217.04 106.32 217.04V225.04C117.086 225.04 126.507 222.622 133.366 217.981C140.334 213.266 144.592 206.26 144.592 197.712H136.592ZM106.32 217.04H97.392V225.04H106.32V217.04ZM93.392 221.04V255.6H101.392V221.04H93.392ZM97.392 259.6H109.776V251.6H97.392V259.6ZM109.776 259.6C119.39 259.6 126.974 261.974 132.045 265.755C137.019 269.462 139.76 274.632 139.76 280.944H147.76C147.76 271.992 143.733 264.49 136.827 259.341C130.018 254.266 120.61 251.6 109.776 251.6V259.6ZM139.76 280.944C139.76 287.883 137.071 293.521 132.419 297.483C127.711 301.492 120.705 304.016 111.792 304.016V312.016C122.175 312.016 131.153 309.068 137.605 303.573C144.113 298.031 147.76 290.133 147.76 280.944H139.76ZM111.792 304.016C102.239 304.016 94.3488 301.104 88.7674 296.307C83.2108 291.53 79.7208 284.703 79.2085 276.378L71.2236 276.87C71.8632 287.265 76.2932 296.134 83.5526 302.373C90.7872 308.592 100.609 312.016 111.792 312.016V304.016ZM74.5733 272.676L37.4213 278.724L38.7067 286.62L75.8587 280.572L74.5733 272.676ZM34.087 283.1C36.2089 302.804 44.7464 319.017 59.0875 331.222L64.2725 325.13C51.5416 314.295 43.9511 299.98 42.041 282.244L34.087 283.1ZM59.0875 331.222C73.4492 343.445 91.4015 349.456 112.368 349.456V341.456C93.0145 341.456 76.9828 335.947 64.2725 325.13L59.0875 331.222ZM112.368 349.456C134.645 349.456 153.193 343.803 167.332 332.124L162.236 325.956C149.879 336.165 133.291 341.456 112.368 341.456V349.456ZM167.338 332.118C181.824 320.098 188.944 304.553 188.944 285.264H180.944C180.944 302.263 174.816 315.518 162.23 325.962L167.338 332.118ZM188.944 285.264C188.944 261.536 176.51 243.046 156.238 234.626L153.17 242.014C170.338 249.146 180.944 264.64 180.944 285.264H188.944Z" fill="black" fill-opacity="0.5"/>
<path d="M148.704 232.32C165.696 225.408 175.488 210.72 175.488 191.424C175.488 172.704 169.152 157.728 156.192 146.496C143.232 134.976 126.24 129.216 105.216 129.216C85.632 129.216 69.216 134.976 55.68 146.496C42.144 157.728 34.368 172.704 32.064 191.424L69.216 197.184C69.504 178.752 83.904 166.656 104.352 166.656C122.496 166.656 134.592 176.736 134.592 191.712C134.592 205.824 120.768 215.04 100.32 215.04H91.392V249.6H103.776C124.224 249.6 137.76 259.68 137.76 274.944C137.76 291.072 125.088 302.016 105.792 302.016C85.056 302.016 70.368 289.344 69.216 270.624L32.064 276.672C34.08 295.392 42.144 310.656 55.68 322.176C69.216 333.696 86.208 339.456 106.368 339.456C127.968 339.456 145.536 333.984 158.784 323.04C172.32 311.808 178.944 297.408 178.944 279.264C178.944 257.088 167.424 240.096 148.704 232.32Z" fill="#2A1B3C" fill-opacity="0.6"/>
<path d="M148.704 232.32L147.197 228.615L138.183 232.281L147.17 236.014L148.704 232.32ZM156.192 146.496L153.535 149.486L153.553 149.502L153.572 149.519L156.192 146.496ZM55.68 146.496L58.2343 149.574L58.2535 149.558L58.2725 149.542L55.68 146.496ZM32.064 191.424L28.094 190.935L27.6204 194.783L31.4512 195.377L32.064 191.424ZM69.216 197.184L68.6032 201.137L73.1437 201.841L73.2155 197.246L69.216 197.184ZM91.392 215.04V211.04H87.392V215.04H91.392ZM91.392 249.6H87.392V253.6H91.392V249.6ZM69.216 270.624L73.2085 270.378L72.9369 265.966L68.5733 266.676L69.216 270.624ZM32.064 276.672L31.4213 272.724L27.6813 273.333L28.087 277.1L32.064 276.672ZM55.68 322.176L53.0875 325.222L55.68 322.176ZM158.784 323.04L161.332 326.124L161.338 326.118L158.784 323.04ZM150.211 236.025C168.771 228.475 179.488 212.281 179.488 191.424H171.488C171.488 209.159 162.621 222.34 147.197 228.615L150.211 236.025ZM179.488 191.424C179.488 171.689 172.752 155.555 158.812 143.473L153.572 149.519C165.552 159.901 171.488 173.719 171.488 191.424H179.488ZM158.849 143.506C145.009 131.204 127.001 125.216 105.216 125.216V133.216C125.479 133.216 141.455 138.748 153.535 149.486L158.849 143.506ZM105.216 125.216C84.7776 125.216 67.4167 131.255 53.0875 143.45L58.2725 149.542C71.0154 138.697 86.4864 133.216 105.216 133.216V125.216ZM53.1257 143.418C38.7289 155.364 30.5099 171.306 28.094 190.935L36.034 191.913C38.2261 174.102 45.5591 160.092 58.2343 149.574L53.1257 143.418ZM31.4512 195.377L68.6032 201.137L69.8288 193.231L32.6768 187.471L31.4512 195.377ZM73.2155 197.246C73.3424 189.128 76.5413 182.593 81.833 178.04C87.1713 173.447 94.902 170.656 104.352 170.656V162.656C93.354 162.656 83.6608 165.913 76.615 171.976C69.5227 178.079 65.3776 186.808 65.2165 197.122L73.2155 197.246ZM104.352 170.656C112.71 170.656 119.3 172.976 123.721 176.646C128.079 180.263 130.592 185.39 130.592 191.712H138.592C138.592 183.058 135.057 175.657 128.831 170.49C122.668 165.376 114.138 162.656 104.352 162.656V170.656ZM130.592 191.712C130.592 197.276 127.938 201.934 122.882 205.355C117.717 208.85 110.002 211.04 100.32 211.04V219.04C111.086 219.04 120.507 216.622 127.366 211.981C134.334 207.266 138.592 200.26 138.592 191.712H130.592ZM100.32 211.04H91.392V219.04H100.32V211.04ZM87.392 215.04V249.6H95.392V215.04H87.392ZM91.392 253.6H103.776V245.6H91.392V253.6ZM103.776 253.6C113.39 253.6 120.974 255.974 126.045 259.755C131.019 263.462 133.76 268.632 133.76 274.944H141.76C141.76 265.992 137.733 258.49 130.827 253.341C124.018 248.266 114.61 245.6 103.776 245.6V253.6ZM133.76 274.944C133.76 281.883 131.071 287.521 126.419 291.483C121.711 295.492 114.705 298.016 105.792 298.016V306.016C116.175 306.016 125.153 303.068 131.605 297.573C138.113 292.031 141.76 284.133 141.76 274.944H133.76ZM105.792 298.016C96.2386 298.016 88.3488 295.104 82.7674 290.307C77.2108 285.53 73.7208 278.703 73.2085 270.378L65.2236 270.87C65.8632 281.265 70.2932 290.134 77.5526 296.373C84.7872 302.592 94.6094 306.016 105.792 306.016V298.016ZM68.5733 266.676L31.4213 272.724L32.7067 280.62L69.8587 274.572L68.5733 266.676ZM28.087 277.1C30.2089 296.804 38.7464 313.017 53.0875 325.222L58.2725 319.13C45.5416 308.295 37.9511 293.98 36.041 276.244L28.087 277.1ZM53.0875 325.222C67.4492 337.445 85.4015 343.456 106.368 343.456V335.456C87.0145 335.456 70.9828 329.947 58.2725 319.13L53.0875 325.222ZM106.368 343.456C128.645 343.456 147.193 337.803 161.332 326.124L156.236 319.956C143.879 330.165 127.291 335.456 106.368 335.456V343.456ZM161.338 326.118C175.824 314.098 182.944 298.553 182.944 279.264H174.944C174.944 296.263 168.816 309.518 156.23 319.962L161.338 326.118ZM182.944 279.264C182.944 255.536 170.51 237.046 150.238 228.626L147.17 236.014C164.338 243.146 174.944 258.64 174.944 279.264H182.944Z" fill="black" fill-opacity="0.6"/>
<path d="M142.704 226.32C159.696 219.408 169.488 204.72 169.488 185.424C169.488 166.704 163.152 151.728 150.192 140.496C137.232 128.976 120.24 123.216 99.216 123.216C79.632 123.216 63.216 128.976 49.68 140.496C36.144 151.728 28.368 166.704 26.064 185.424L63.216 191.184C63.504 172.752 77.904 160.656 98.352 160.656C116.496 160.656 128.592 170.736 128.592 185.712C128.592 199.824 114.768 209.04 94.32 209.04H85.392V243.6H97.776C118.224 243.6 131.76 253.68 131.76 268.944C131.76 285.072 119.088 296.016 99.792 296.016C79.056 296.016 64.368 283.344 63.216 264.624L26.064 270.672C28.08 289.392 36.144 304.656 49.68 316.176C63.216 327.696 80.208 333.456 100.368 333.456C121.968 333.456 139.536 327.984 152.784 317.04C166.32 305.808 172.944 291.408 172.944 273.264C172.944 251.088 161.424 234.096 142.704 226.32Z" fill="#2A1B3C" fill-opacity="0.7"/>
<path d="M142.704 226.32L141.197 222.615L132.183 226.281L141.17 230.014L142.704 226.32ZM150.192 140.496L147.535 143.486L147.553 143.502L147.572 143.519L150.192 140.496ZM49.68 140.496L52.2343 143.574L52.2535 143.558L52.2725 143.542L49.68 140.496ZM26.064 185.424L22.094 184.935L21.6204 188.783L25.4512 189.377L26.064 185.424ZM63.216 191.184L62.6032 195.137L67.1437 195.841L67.2155 191.246L63.216 191.184ZM85.392 209.04V205.04H81.392V209.04H85.392ZM85.392 243.6H81.392V247.6H85.392V243.6ZM63.216 264.624L67.2085 264.378L66.9369 259.966L62.5733 260.676L63.216 264.624ZM26.064 270.672L25.4213 266.724L21.6813 267.333L22.087 271.1L26.064 270.672ZM49.68 316.176L47.0875 319.222L49.68 316.176ZM152.784 317.04L155.332 320.124L155.338 320.118L152.784 317.04ZM144.211 230.025C162.771 222.475 173.488 206.281 173.488 185.424H165.488C165.488 203.159 156.621 216.34 141.197 222.615L144.211 230.025ZM173.488 185.424C173.488 165.689 166.752 149.555 152.812 137.473L147.572 143.519C159.552 153.901 165.488 167.719 165.488 185.424H173.488ZM152.849 137.506C139.009 125.204 121.001 119.216 99.216 119.216V127.216C119.479 127.216 135.455 132.748 147.535 143.486L152.849 137.506ZM99.216 119.216C78.7776 119.216 61.4167 125.255 47.0875 137.45L52.2725 143.542C65.0154 132.697 80.4864 127.216 99.216 127.216V119.216ZM47.1257 137.418C32.7289 149.364 24.5099 165.306 22.094 184.935L30.034 185.913C32.2261 168.102 39.5591 154.092 52.2343 143.574L47.1257 137.418ZM25.4512 189.377L62.6032 195.137L63.8288 187.231L26.6768 181.471L25.4512 189.377ZM67.2155 191.246C67.3424 183.128 70.5413 176.593 75.833 172.04C81.1713 167.447 88.902 164.656 98.352 164.656V156.656C87.354 156.656 77.6608 159.913 70.615 165.976C63.5227 172.079 59.3776 180.808 59.2165 191.122L67.2155 191.246ZM98.352 164.656C106.71 164.656 113.3 166.976 117.721 170.646C122.079 174.263 124.592 179.39 124.592 185.712H132.592C132.592 177.058 129.057 169.657 122.831 164.49C116.668 159.376 108.138 156.656 98.352 156.656V164.656ZM124.592 185.712C124.592 191.276 121.938 195.934 116.882 199.355C111.717 202.85 104.002 205.04 94.32 205.04V213.04C105.086 213.04 114.507 210.622 121.366 205.981C128.334 201.266 132.592 194.26 132.592 185.712H124.592ZM94.32 205.04H85.392V213.04H94.32V205.04ZM81.392 209.04V243.6H89.392V209.04H81.392ZM85.392 247.6H97.776V239.6H85.392V247.6ZM97.776 247.6C107.39 247.6 114.974 249.974 120.045 253.755C125.019 257.462 127.76 262.632 127.76 268.944H135.76C135.76 259.992 131.733 252.49 124.827 247.341C118.018 242.266 108.61 239.6 97.776 239.6V247.6ZM127.76 268.944C127.76 275.883 125.071 281.521 120.419 285.483C115.711 289.492 108.705 292.016 99.792 292.016V300.016C110.175 300.016 119.153 297.068 125.605 291.573C132.113 286.031 135.76 278.133 135.76 268.944H127.76ZM99.792 292.016C90.2386 292.016 82.3488 289.104 76.7674 284.307C71.2108 279.53 67.7208 272.703 67.2085 264.378L59.2236 264.87C59.8632 275.265 64.2932 284.134 71.5526 290.373C78.7872 296.592 88.6094 300.016 99.792 300.016V292.016ZM62.5733 260.676L25.4213 266.724L26.7067 274.62L63.8587 268.572L62.5733 260.676ZM22.087 271.1C24.2089 290.804 32.7464 307.017 47.0875 319.222L52.2725 313.13C39.5416 302.295 31.9511 287.98 30.041 270.244L22.087 271.1ZM47.0875 319.222C61.4492 331.445 79.4015 337.456 100.368 337.456V329.456C81.0145 329.456 64.9828 323.947 52.2725 313.13L47.0875 319.222ZM100.368 337.456C122.645 337.456 141.193 331.803 155.332 320.124L150.236 313.956C137.879 324.165 121.291 329.456 100.368 329.456V337.456ZM155.338 320.118C169.824 308.098 176.944 292.553 176.944 273.264H168.944C168.944 290.263 162.816 303.518 150.23 313.962L155.338 320.118ZM176.944 273.264C176.944 249.536 164.51 231.046 144.238 222.626L141.17 230.014C158.338 237.146 168.944 252.64 168.944 273.264H176.944Z" fill="black" fill-opacity="0.7"/>
<path d="M136.704 219.32C153.696 212.408 163.488 197.72 163.488 178.424C163.488 159.704 157.152 144.728 144.192 133.496C131.232 121.976 114.24 116.216 93.216 116.216C73.632 116.216 57.216 121.976 43.68 133.496C30.144 144.728 22.368 159.704 20.064 178.424L57.216 184.184C57.504 165.752 71.904 153.656 92.352 153.656C110.496 153.656 122.592 163.736 122.592 178.712C122.592 192.824 108.768 202.04 88.32 202.04H79.392V236.6H91.776C112.224 236.6 125.76 246.68 125.76 261.944C125.76 278.072 113.088 289.016 93.792 289.016C73.056 289.016 58.368 276.344 57.216 257.624L20.064 263.672C22.08 282.392 30.144 297.656 43.68 309.176C57.216 320.696 74.208 326.456 94.368 326.456C115.968 326.456 133.536 320.984 146.784 310.04C160.32 298.808 166.944 284.408 166.944 266.264C166.944 244.088 155.424 227.096 136.704 219.32Z" fill="#2A1B3C" fill-opacity="0.8"/>
<path d="M136.704 219.32L135.197 215.615L126.183 219.281L135.17 223.014L136.704 219.32ZM144.192 133.496L141.535 136.486L141.553 136.502L141.572 136.519L144.192 133.496ZM43.68 133.496L46.2343 136.574L46.2535 136.558L46.2725 136.542L43.68 133.496ZM20.064 178.424L16.094 177.935L15.6204 181.783L19.4512 182.377L20.064 178.424ZM57.216 184.184L56.6032 188.137L61.1437 188.841L61.2155 184.246L57.216 184.184ZM79.392 202.04V198.04H75.392V202.04H79.392ZM79.392 236.6H75.392V240.6H79.392V236.6ZM57.216 257.624L61.2085 257.378L60.9369 252.966L56.5733 253.676L57.216 257.624ZM20.064 263.672L19.4213 259.724L15.6813 260.333L16.087 264.1L20.064 263.672ZM43.68 309.176L41.0875 312.222L43.68 309.176ZM146.784 310.04L149.332 313.124L149.338 313.118L146.784 310.04ZM138.211 223.025C156.771 215.475 167.488 199.281 167.488 178.424H159.488C159.488 196.159 150.621 209.34 135.197 215.615L138.211 223.025ZM167.488 178.424C167.488 158.689 160.752 142.555 146.812 130.473L141.572 136.519C153.552 146.901 159.488 160.719 159.488 178.424H167.488ZM146.849 130.506C133.009 118.204 115.001 112.216 93.216 112.216V120.216C113.479 120.216 129.455 125.748 141.535 136.486L146.849 130.506ZM93.216 112.216C72.7776 112.216 55.4167 118.255 41.0875 130.45L46.2725 136.542C59.0154 125.697 74.4864 120.216 93.216 120.216V112.216ZM41.1257 130.418C26.7289 142.364 18.5099 158.306 16.094 177.935L24.034 178.913C26.2261 161.102 33.5591 147.092 46.2343 136.574L41.1257 130.418ZM19.4512 182.377L56.6032 188.137L57.8288 180.231L20.6768 174.471L19.4512 182.377ZM61.2155 184.246C61.3424 176.128 64.5413 169.593 69.833 165.04C75.1713 160.447 82.902 157.656 92.352 157.656V149.656C81.354 149.656 71.6608 152.913 64.615 158.976C57.5227 165.079 53.3776 173.808 53.2165 184.122L61.2155 184.246ZM92.352 157.656C100.71 157.656 107.3 159.976 111.721 163.646C116.079 167.263 118.592 172.39 118.592 178.712H126.592C126.592 170.058 123.057 162.657 116.831 157.49C110.668 152.376 102.138 149.656 92.352 149.656V157.656ZM118.592 178.712C118.592 184.276 115.938 188.934 110.882 192.355C105.717 195.85 98.0021 198.04 88.32 198.04V206.04C99.0859 206.04 108.507 203.622 115.366 198.981C122.334 194.266 126.592 187.26 126.592 178.712H118.592ZM88.32 198.04H79.392V206.04H88.32V198.04ZM75.392 202.04V236.6H83.392V202.04H75.392ZM79.392 240.6H91.776V232.6H79.392V240.6ZM91.776 240.6C101.39 240.6 108.974 242.974 114.045 246.755C119.019 250.462 121.76 255.632 121.76 261.944H129.76C129.76 252.992 125.733 245.49 118.827 240.341C112.018 235.266 102.61 232.6 91.776 232.6V240.6ZM121.76 261.944C121.76 268.883 119.071 274.521 114.419 278.483C109.711 282.492 102.705 285.016 93.792 285.016V293.016C104.175 293.016 113.153 290.068 119.605 284.573C126.113 279.031 129.76 271.133 129.76 261.944H121.76ZM93.792 285.016C84.2386 285.016 76.3488 282.104 70.7674 277.307C65.2108 272.53 61.7208 265.703 61.2085 257.378L53.2236 257.87C53.8632 268.265 58.2932 277.134 65.5526 283.373C72.7872 289.592 82.6094 293.016 93.792 293.016V285.016ZM56.5733 253.676L19.4213 259.724L20.7067 267.62L57.8587 261.572L56.5733 253.676ZM16.087 264.1C18.2089 283.804 26.7464 300.017 41.0875 312.222L46.2725 306.13C33.5416 295.295 25.9511 280.98 24.041 263.244L16.087 264.1ZM41.0875 312.222C55.4492 324.445 73.4015 330.456 94.368 330.456V322.456C75.0145 322.456 58.9828 316.947 46.2725 306.13L41.0875 312.222ZM94.368 330.456C116.645 330.456 135.193 324.803 149.332 313.124L144.236 306.956C131.879 317.165 115.291 322.456 94.368 322.456V330.456ZM149.338 313.118C163.824 301.098 170.944 285.553 170.944 266.264H162.944C162.944 283.263 156.816 296.518 144.23 306.962L149.338 313.118ZM170.944 266.264C170.944 242.536 158.51 224.046 138.238 215.626L135.17 223.014C152.338 230.146 162.944 245.64 162.944 266.264H170.944Z" fill="black" fill-opacity="0.8"/>
<path d="M130.704 213.32C147.696 206.408 157.488 191.72 157.488 172.424C157.488 153.704 151.152 138.728 138.192 127.496C125.232 115.976 108.24 110.216 87.216 110.216C67.632 110.216 51.216 115.976 37.68 127.496C24.144 138.728 16.368 153.704 14.064 172.424L51.216 178.184C51.504 159.752 65.904 147.656 86.352 147.656C104.496 147.656 116.592 157.736 116.592 172.712C116.592 186.824 102.768 196.04 82.32 196.04H73.392V230.6H85.776C106.224 230.6 119.76 240.68 119.76 255.944C119.76 272.072 107.088 283.016 87.792 283.016C67.056 283.016 52.368 270.344 51.216 251.624L14.064 257.672C16.08 276.392 24.144 291.656 37.68 303.176C51.216 314.696 68.208 320.456 88.368 320.456C109.968 320.456 127.536 314.984 140.784 304.04C154.32 292.808 160.944 278.408 160.944 260.264C160.944 238.088 149.424 221.096 130.704 213.32Z" fill="#2A1B3C" fill-opacity="0.9"/>
<path d="M130.704 213.32L129.197 209.615L120.183 213.281L129.17 217.014L130.704 213.32ZM138.192 127.496L135.535 130.486L135.553 130.502L135.572 130.519L138.192 127.496ZM37.68 127.496L40.2343 130.574L40.2535 130.558L40.2725 130.542L37.68 127.496ZM14.064 172.424L10.094 171.935L9.62042 175.783L13.4512 176.377L14.064 172.424ZM51.216 178.184L50.6032 182.137L55.1437 182.841L55.2155 178.246L51.216 178.184ZM73.392 196.04V192.04H69.392V196.04H73.392ZM73.392 230.6H69.392V234.6H73.392V230.6ZM51.216 251.624L55.2085 251.378L54.9369 246.966L50.5733 247.676L51.216 251.624ZM14.064 257.672L13.4213 253.724L9.68127 254.333L10.087 258.1L14.064 257.672ZM37.68 303.176L35.0875 306.222L37.68 303.176ZM140.784 304.04L143.332 307.124L143.338 307.118L140.784 304.04ZM132.211 217.025C150.771 209.475 161.488 193.281 161.488 172.424H153.488C153.488 190.159 144.621 203.34 129.197 209.615L132.211 217.025ZM161.488 172.424C161.488 152.689 154.752 136.555 140.812 124.473L135.572 130.519C147.552 140.901 153.488 154.719 153.488 172.424H161.488ZM140.849 124.506C127.009 112.204 109.001 106.216 87.216 106.216V114.216C107.479 114.216 123.455 119.748 135.535 130.486L140.849 124.506ZM87.216 106.216C66.7776 106.216 49.4167 112.255 35.0875 124.45L40.2725 130.542C53.0154 119.697 68.4864 114.216 87.216 114.216V106.216ZM35.1257 124.418C20.7289 136.364 12.5099 152.306 10.094 171.935L18.034 172.913C20.2261 155.102 27.5591 141.092 40.2343 130.574L35.1257 124.418ZM13.4512 176.377L50.6032 182.137L51.8288 174.231L14.6768 168.471L13.4512 176.377ZM55.2155 178.246C55.3424 170.128 58.5413 163.593 63.833 159.04C69.1713 154.447 76.902 151.656 86.352 151.656V143.656C75.354 143.656 65.6608 146.913 58.615 152.976C51.5227 159.079 47.3776 167.808 47.2165 178.122L55.2155 178.246ZM86.352 151.656C94.71 151.656 101.3 153.976 105.721 157.646C110.079 161.263 112.592 166.39 112.592 172.712H120.592C120.592 164.058 117.057 156.657 110.831 151.49C104.668 146.376 96.1381 143.656 86.352 143.656V151.656ZM112.592 172.712C112.592 178.276 109.938 182.934 104.882 186.355C99.7172 189.85 92.0021 192.04 82.32 192.04V200.04C93.0859 200.04 102.507 197.622 109.366 192.981C116.334 188.266 120.592 181.26 120.592 172.712H112.592ZM82.32 192.04H73.392V200.04H82.32V192.04ZM69.392 196.04V230.6H77.392V196.04H69.392ZM73.392 234.6H85.776V226.6H73.392V234.6ZM85.776 234.6C95.3903 234.6 102.974 236.974 108.045 240.755C113.019 244.462 115.76 249.632 115.76 255.944H123.76C123.76 246.992 119.733 239.49 112.827 234.341C106.018 229.266 96.6098 226.6 85.776 226.6V234.6ZM115.76 255.944C115.76 262.883 113.071 268.521 108.419 272.483C103.711 276.492 96.7051 279.016 87.792 279.016V287.016C98.1749 287.016 107.153 284.068 113.605 278.573C120.113 273.031 123.76 265.133 123.76 255.944H115.76ZM87.792 279.016C78.2386 279.016 70.3488 276.104 64.7674 271.307C59.2108 266.53 55.7208 259.703 55.2085 251.378L47.2236 251.87C47.8632 262.265 52.2932 271.134 59.5526 277.373C66.7872 283.592 76.6094 287.016 87.792 287.016V279.016ZM50.5733 247.676L13.4213 253.724L14.7067 261.62L51.8587 255.572L50.5733 247.676ZM10.087 258.1C12.2089 277.804 20.7464 294.017 35.0875 306.222L40.2725 300.13C27.5416 289.295 19.9511 274.98 18.041 257.244L10.087 258.1ZM35.0875 306.222C49.4492 318.445 67.4015 324.456 88.368 324.456V316.456C69.0145 316.456 52.9828 310.947 40.2725 300.13L35.0875 306.222ZM88.368 324.456C110.645 324.456 129.193 318.803 143.332 307.124L138.236 300.956C125.879 311.165 109.291 316.456 88.368 316.456V324.456ZM143.338 307.118C157.824 295.098 164.944 279.553 164.944 260.264H156.944C156.944 277.263 150.816 290.518 138.23 300.962L143.338 307.118ZM164.944 260.264C164.944 236.536 152.51 218.046 132.238 209.626L129.17 217.014C146.338 224.146 156.944 239.64 156.944 260.264H164.944Z" fill="black" fill-opacity="0.9"/>
<path d="M124.704 207.32C141.696 200.408 151.488 185.72 151.488 166.424C151.488 147.704 145.152 132.728 132.192 121.496C119.232 109.976 102.24 104.216 81.216 104.216C61.632 104.216 45.216 109.976 31.68 121.496C18.144 132.728 10.368 147.704 8.064 166.424L45.216 172.184C45.504 153.752 59.904 141.656 80.352 141.656C98.496 141.656 110.592 151.736 110.592 166.712C110.592 180.824 96.768 190.04 76.32 190.04H67.392V224.6H79.776C100.224 224.6 113.76 234.68 113.76 249.944C113.76 266.072 101.088 277.016 81.792 277.016C61.056 277.016 46.368 264.344 45.216 245.624L8.064 251.672C10.08 270.392 18.144 285.656 31.68 297.176C45.216 308.696 62.208 314.456 82.368 314.456C103.968 314.456 121.536 308.984 134.784 298.04C148.32 286.808 154.944 272.408 154.944 254.264C154.944 232.088 143.424 215.096 124.704 207.32Z" fill="white"/>
<path d="M124.704 207.32L123.197 203.615L114.183 207.281L123.17 211.014L124.704 207.32ZM132.192 121.496L129.535 124.486L129.553 124.502L129.572 124.519L132.192 121.496ZM31.68 121.496L34.2343 124.574L34.2535 124.558L34.2725 124.542L31.68 121.496ZM8.064 166.424L4.09396 165.935L3.62042 169.783L7.45117 170.377L8.064 166.424ZM45.216 172.184L44.6032 176.137L49.1437 176.841L49.2155 172.246L45.216 172.184ZM67.392 190.04V186.04H63.392V190.04H67.392ZM67.392 224.6H63.392V228.6H67.392V224.6ZM45.216 245.624L49.2085 245.378L48.9369 240.966L44.5733 241.676L45.216 245.624ZM8.064 251.672L7.4213 247.724L3.68127 248.333L4.087 252.1L8.064 251.672ZM31.68 297.176L29.0875 300.222L31.68 297.176ZM134.784 298.04L137.332 301.124L137.338 301.118L134.784 298.04ZM126.211 211.025C144.771 203.475 155.488 187.281 155.488 166.424H147.488C147.488 184.159 138.621 197.34 123.197 203.615L126.211 211.025ZM155.488 166.424C155.488 146.689 148.752 130.555 134.812 118.473L129.572 124.519C141.552 134.901 147.488 148.719 147.488 166.424H155.488ZM134.849 118.506C121.009 106.204 103.001 100.216 81.216 100.216V108.216C101.479 108.216 117.455 113.748 129.535 124.486L134.849 118.506ZM81.216 100.216C60.7776 100.216 43.4167 106.255 29.0875 118.45L34.2725 124.542C47.0154 113.697 62.4864 108.216 81.216 108.216V100.216ZM29.1257 118.418C14.7289 130.364 6.5099 146.306 4.09396 165.935L12.034 166.913C14.2261 149.102 21.5591 135.092 34.2343 124.574L29.1257 118.418ZM7.45117 170.377L44.6032 176.137L45.8288 168.231L8.67683 162.471L7.45117 170.377ZM49.2155 172.246C49.3424 164.128 52.5413 157.593 57.833 153.04C63.1713 148.447 70.902 145.656 80.352 145.656V137.656C69.354 137.656 59.6608 140.913 52.615 146.976C45.5227 153.079 41.3776 161.808 41.2165 172.122L49.2155 172.246ZM80.352 145.656C88.71 145.656 95.2995 147.976 99.7215 151.646C104.079 155.263 106.592 160.39 106.592 166.712H114.592C114.592 158.058 111.057 150.657 104.831 145.49C98.6685 140.376 90.1381 137.656 80.352 137.656V145.656ZM106.592 166.712C106.592 172.276 103.938 176.934 98.8824 180.355C93.7172 183.85 86.0021 186.04 76.32 186.04V194.04C87.0859 194.04 96.5068 191.622 103.366 186.981C110.334 182.266 114.592 175.26 114.592 166.712H106.592ZM76.32 186.04H67.392V194.04H76.32V186.04ZM63.392 190.04V224.6H71.392V190.04H63.392ZM67.392 228.6H79.776V220.6H67.392V228.6ZM79.776 228.6C89.3903 228.6 96.9738 230.974 102.045 234.755C107.019 238.462 109.76 243.632 109.76 249.944H117.76C117.76 240.992 113.733 233.49 106.827 228.341C100.018 223.266 90.6098 220.6 79.776 220.6V228.6ZM109.76 249.944C109.76 256.883 107.071 262.521 102.419 266.483C97.7109 270.492 90.7051 273.016 81.792 273.016V281.016C92.1749 281.016 101.153 278.068 107.605 272.573C114.113 267.031 117.76 259.133 117.76 249.944H109.76ZM81.792 273.016C72.2386 273.016 64.3488 270.104 58.7674 265.307C53.2108 260.53 49.7208 253.703 49.2085 245.378L41.2236 245.87C41.8632 256.265 46.2932 265.134 53.5526 271.373C60.7872 277.592 70.6094 281.016 81.792 281.016V273.016ZM44.5733 241.676L7.4213 247.724L8.7067 255.62L45.8587 249.572L44.5733 241.676ZM4.087 252.1C6.20892 271.804 14.7464 288.017 29.0875 300.222L34.2725 294.13C21.5416 283.295 13.9511 268.98 12.041 251.244L4.087 252.1ZM29.0875 300.222C43.4492 312.445 61.4015 318.456 82.368 318.456V310.456C63.0145 310.456 46.9828 304.947 34.2725 294.13L29.0875 300.222ZM82.368 318.456C104.645 318.456 123.193 312.803 137.332 301.124L132.236 294.956C119.879 305.165 103.291 310.456 82.368 310.456V318.456ZM137.338 301.118C151.824 289.098 158.944 273.553 158.944 254.264H150.944C150.944 271.263 144.816 284.518 132.23 294.962L137.338 301.118ZM158.944 254.264C158.944 230.536 146.51 212.046 126.238 203.626L123.17 211.014C140.338 218.146 150.944 233.64 150.944 254.264H158.944Z" fill="black"/>
</svg>
