<svg width="245" height="534" viewBox="0 0 245 534" fill="none" xmlns="http://www.w3.org/2000/svg">
<path d="M208.224 306.24V180.672H165.888L78.048 305.088V342.528H167.328V384H208.224V342.528H238.752V306.24H208.224ZM167.328 237.408V306.24H118.656L167.328 237.408Z" fill="#2A1B3C" fill-opacity="0.01"/>
<path d="M208.224 306.24H204.224V310.24H208.224V306.24ZM208.224 180.672H212.224V176.672H208.224V180.672ZM165.888 180.672V176.672H163.816L162.62 178.365L165.888 180.672ZM78.048 305.088L74.7803 302.781L74.048 303.818V305.088H78.048ZM78.048 342.528H74.048V346.528H78.048V342.528ZM167.328 342.528H171.328V338.528H167.328V342.528ZM167.328 384H163.328V388H167.328V384ZM208.224 384V388H212.224V384H208.224ZM208.224 342.528V338.528H204.224V342.528H208.224ZM238.752 342.528V346.528H242.752V342.528H238.752ZM238.752 306.24H242.752V302.24H238.752V306.24ZM167.328 237.408H171.328V224.823L164.062 235.099L167.328 237.408ZM167.328 306.24V310.24H171.328V306.24H167.328ZM118.656 306.24L115.39 303.931L110.929 310.24H118.656V306.24ZM212.224 306.24V180.672H204.224V306.24H212.224ZM208.224 176.672H165.888V184.672H208.224V176.672ZM162.62 178.365L74.7803 302.781L81.3157 307.395L169.156 182.979L162.62 178.365ZM74.048 305.088V342.528H82.048V305.088H74.048ZM78.048 346.528H167.328V338.528H78.048V346.528ZM163.328 342.528V384H171.328V342.528H163.328ZM167.328 388H208.224V380H167.328V388ZM212.224 384V342.528H204.224V384H212.224ZM208.224 346.528H238.752V338.528H208.224V346.528ZM242.752 342.528V306.24H234.752V342.528H242.752ZM238.752 302.24H208.224V310.24H238.752V302.24ZM163.328 237.408V306.24H171.328V237.408H163.328ZM167.328 302.24H118.656V310.24H167.328V302.24ZM121.922 308.549L170.594 239.717L164.062 235.099L115.39 303.931L121.922 308.549Z" fill="black" fill-opacity="0.01"/>
<path d="M202.224 300.24V174.672H159.888L72.048 299.088V336.528H161.328V378H202.224V336.528H232.752V300.24H202.224ZM161.328 231.408V300.24H112.656L161.328 231.408Z" fill="#2A1B3C" fill-opacity="0.03"/>
<path d="M202.224 300.24H198.224V304.24H202.224V300.24ZM202.224 174.672H206.224V170.672H202.224V174.672ZM159.888 174.672V170.672H157.816L156.62 172.365L159.888 174.672ZM72.048 299.088L68.7803 296.781L68.048 297.818V299.088H72.048ZM72.048 336.528H68.048V340.528H72.048V336.528ZM161.328 336.528H165.328V332.528H161.328V336.528ZM161.328 378H157.328V382H161.328V378ZM202.224 378V382H206.224V378H202.224ZM202.224 336.528V332.528H198.224V336.528H202.224ZM232.752 336.528V340.528H236.752V336.528H232.752ZM232.752 300.24H236.752V296.24H232.752V300.24ZM161.328 231.408H165.328V218.823L158.062 229.099L161.328 231.408ZM161.328 300.24V304.24H165.328V300.24H161.328ZM112.656 300.24L109.39 297.931L104.929 304.24H112.656V300.24ZM206.224 300.24V174.672H198.224V300.24H206.224ZM202.224 170.672H159.888V178.672H202.224V170.672ZM156.62 172.365L68.7803 296.781L75.3157 301.395L163.156 176.979L156.62 172.365ZM68.048 299.088V336.528H76.048V299.088H68.048ZM72.048 340.528H161.328V332.528H72.048V340.528ZM157.328 336.528V378H165.328V336.528H157.328ZM161.328 382H202.224V374H161.328V382ZM206.224 378V336.528H198.224V378H206.224ZM202.224 340.528H232.752V332.528H202.224V340.528ZM236.752 336.528V300.24H228.752V336.528H236.752ZM232.752 296.24H202.224V304.24H232.752V296.24ZM157.328 231.408V300.24H165.328V231.408H157.328ZM161.328 296.24H112.656V304.24H161.328V296.24ZM115.922 302.549L164.594 233.717L158.062 229.099L109.39 297.931L115.922 302.549Z" fill="black" fill-opacity="0.03"/>
<path d="M196.224 294.24V168.672H153.888L66.048 293.088V330.528H155.328V372H196.224V330.528H226.752V294.24H196.224ZM155.328 225.408V294.24H106.656L155.328 225.408Z" fill="#2A1B3C" fill-opacity="0.05"/>
<path d="M196.224 294.24H192.224V298.24H196.224V294.24ZM196.224 168.672H200.224V164.672H196.224V168.672ZM153.888 168.672V164.672H151.816L150.62 166.365L153.888 168.672ZM66.048 293.088L62.7803 290.781L62.048 291.818V293.088H66.048ZM66.048 330.528H62.048V334.528H66.048V330.528ZM155.328 330.528H159.328V326.528H155.328V330.528ZM155.328 372H151.328V376H155.328V372ZM196.224 372V376H200.224V372H196.224ZM196.224 330.528V326.528H192.224V330.528H196.224ZM226.752 330.528V334.528H230.752V330.528H226.752ZM226.752 294.24H230.752V290.24H226.752V294.24ZM155.328 225.408H159.328V212.823L152.062 223.099L155.328 225.408ZM155.328 294.24V298.24H159.328V294.24H155.328ZM106.656 294.24L103.39 291.931L98.9286 298.24H106.656V294.24ZM200.224 294.24V168.672H192.224V294.24H200.224ZM196.224 164.672H153.888V172.672H196.224V164.672ZM150.62 166.365L62.7803 290.781L69.3157 295.395L157.156 170.979L150.62 166.365ZM62.048 293.088V330.528H70.048V293.088H62.048ZM66.048 334.528H155.328V326.528H66.048V334.528ZM151.328 330.528V372H159.328V330.528H151.328ZM155.328 376H196.224V368H155.328V376ZM200.224 372V330.528H192.224V372H200.224ZM196.224 334.528H226.752V326.528H196.224V334.528ZM230.752 330.528V294.24H222.752V330.528H230.752ZM226.752 290.24H196.224V298.24H226.752V290.24ZM151.328 225.408V294.24H159.328V225.408H151.328ZM155.328 290.24H106.656V298.24H155.328V290.24ZM109.922 296.549L158.594 227.717L152.062 223.099L103.39 291.931L109.922 296.549Z" fill="black" fill-opacity="0.05"/>
<path d="M190.224 288.24V162.672H147.888L60.048 287.088V324.528H149.328V366H190.224V324.528H220.752V288.24H190.224ZM149.328 219.408V288.24H100.656L149.328 219.408Z" fill="#2A1B3C" fill-opacity="0.1"/>
<path d="M190.224 288.24H186.224V292.24H190.224V288.24ZM190.224 162.672H194.224V158.672H190.224V162.672ZM147.888 162.672V158.672H145.816L144.62 160.365L147.888 162.672ZM60.048 287.088L56.7803 284.781L56.048 285.818V287.088H60.048ZM60.048 324.528H56.048V328.528H60.048V324.528ZM149.328 324.528H153.328V320.528H149.328V324.528ZM149.328 366H145.328V370H149.328V366ZM190.224 366V370H194.224V366H190.224ZM190.224 324.528V320.528H186.224V324.528H190.224ZM220.752 324.528V328.528H224.752V324.528H220.752ZM220.752 288.24H224.752V284.24H220.752V288.24ZM149.328 219.408H153.328V206.823L146.062 217.099L149.328 219.408ZM149.328 288.24V292.24H153.328V288.24H149.328ZM100.656 288.24L97.39 285.931L92.9286 292.24H100.656V288.24ZM194.224 288.24V162.672H186.224V288.24H194.224ZM190.224 158.672H147.888V166.672H190.224V158.672ZM144.62 160.365L56.7803 284.781L63.3157 289.395L151.156 164.979L144.62 160.365ZM56.048 287.088V324.528H64.048V287.088H56.048ZM60.048 328.528H149.328V320.528H60.048V328.528ZM145.328 324.528V366H153.328V324.528H145.328ZM149.328 370H190.224V362H149.328V370ZM194.224 366V324.528H186.224V366H194.224ZM190.224 328.528H220.752V320.528H190.224V328.528ZM224.752 324.528V288.24H216.752V324.528H224.752ZM220.752 284.24H190.224V292.24H220.752V284.24ZM145.328 219.408V288.24H153.328V219.408H145.328ZM149.328 284.24H100.656V292.24H149.328V284.24ZM103.922 290.549L152.594 221.717L146.062 217.099L97.39 285.931L103.922 290.549Z" fill="black" fill-opacity="0.1"/>
<path d="M184.224 282.24V156.672H141.888L54.048 281.088V318.528H143.328V360H184.224V318.528H214.752V282.24H184.224ZM143.328 213.408V282.24H94.656L143.328 213.408Z" fill="#2A1B3C" fill-opacity="0.2"/>
<path d="M184.224 282.24H180.224V286.24H184.224V282.24ZM184.224 156.672H188.224V152.672H184.224V156.672ZM141.888 156.672V152.672H139.816L138.62 154.365L141.888 156.672ZM54.048 281.088L50.7803 278.781L50.048 279.818V281.088H54.048ZM54.048 318.528H50.048V322.528H54.048V318.528ZM143.328 318.528H147.328V314.528H143.328V318.528ZM143.328 360H139.328V364H143.328V360ZM184.224 360V364H188.224V360H184.224ZM184.224 318.528V314.528H180.224V318.528H184.224ZM214.752 318.528V322.528H218.752V318.528H214.752ZM214.752 282.24H218.752V278.24H214.752V282.24ZM143.328 213.408H147.328V200.823L140.062 211.099L143.328 213.408ZM143.328 282.24V286.24H147.328V282.24H143.328ZM94.656 282.24L91.39 279.931L86.9286 286.24H94.656V282.24ZM188.224 282.24V156.672H180.224V282.24H188.224ZM184.224 152.672H141.888V160.672H184.224V152.672ZM138.62 154.365L50.7803 278.781L57.3157 283.395L145.156 158.979L138.62 154.365ZM50.048 281.088V318.528H58.048V281.088H50.048ZM54.048 322.528H143.328V314.528H54.048V322.528ZM139.328 318.528V360H147.328V318.528H139.328ZM143.328 364H184.224V356H143.328V364ZM188.224 360V318.528H180.224V360H188.224ZM184.224 322.528H214.752V314.528H184.224V322.528ZM218.752 318.528V282.24H210.752V318.528H218.752ZM214.752 278.24H184.224V286.24H214.752V278.24ZM139.328 213.408V282.24H147.328V213.408H139.328ZM143.328 278.24H94.656V286.24H143.328V278.24ZM97.922 284.549L146.594 215.717L140.062 211.099L91.39 279.931L97.922 284.549Z" fill="black" fill-opacity="0.2"/>
<path d="M178.224 276.24V150.672H135.888L48.048 275.088V312.528H137.328V354H178.224V312.528H208.752V276.24H178.224ZM137.328 207.408V276.24H88.656L137.328 207.408Z" fill="#2A1B3C" fill-opacity="0.3"/>
<path d="M178.224 276.24H174.224V280.24H178.224V276.24ZM178.224 150.672H182.224V146.672H178.224V150.672ZM135.888 150.672V146.672H133.816L132.62 148.365L135.888 150.672ZM48.048 275.088L44.7803 272.781L44.048 273.818V275.088H48.048ZM48.048 312.528H44.048V316.528H48.048V312.528ZM137.328 312.528H141.328V308.528H137.328V312.528ZM137.328 354H133.328V358H137.328V354ZM178.224 354V358H182.224V354H178.224ZM178.224 312.528V308.528H174.224V312.528H178.224ZM208.752 312.528V316.528H212.752V312.528H208.752ZM208.752 276.24H212.752V272.24H208.752V276.24ZM137.328 207.408H141.328V194.823L134.062 205.099L137.328 207.408ZM137.328 276.24V280.24H141.328V276.24H137.328ZM88.656 276.24L85.39 273.931L80.9286 280.24H88.656V276.24ZM182.224 276.24V150.672H174.224V276.24H182.224ZM178.224 146.672H135.888V154.672H178.224V146.672ZM132.62 148.365L44.7803 272.781L51.3157 277.395L139.156 152.979L132.62 148.365ZM44.048 275.088V312.528H52.048V275.088H44.048ZM48.048 316.528H137.328V308.528H48.048V316.528ZM133.328 312.528V354H141.328V312.528H133.328ZM137.328 358H178.224V350H137.328V358ZM182.224 354V312.528H174.224V354H182.224ZM178.224 316.528H208.752V308.528H178.224V316.528ZM212.752 312.528V276.24H204.752V312.528H212.752ZM208.752 272.24H178.224V280.24H208.752V272.24ZM133.328 207.408V276.24H141.328V207.408H133.328ZM137.328 272.24H88.656V280.24H137.328V272.24ZM91.922 278.549L140.594 209.717L134.062 205.099L85.39 273.931L91.922 278.549Z" fill="black" fill-opacity="0.3"/>
<path d="M172.224 270.24V144.672H129.888L42.048 269.088V306.528H131.328V348H172.224V306.528H202.752V270.24H172.224ZM131.328 201.408V270.24H82.656L131.328 201.408Z" fill="#2A1B3C" fill-opacity="0.4"/>
<path d="M172.224 270.24H168.224V274.24H172.224V270.24ZM172.224 144.672H176.224V140.672H172.224V144.672ZM129.888 144.672V140.672H127.816L126.62 142.365L129.888 144.672ZM42.048 269.088L38.7803 266.781L38.048 267.818V269.088H42.048ZM42.048 306.528H38.048V310.528H42.048V306.528ZM131.328 306.528H135.328V302.528H131.328V306.528ZM131.328 348H127.328V352H131.328V348ZM172.224 348V352H176.224V348H172.224ZM172.224 306.528V302.528H168.224V306.528H172.224ZM202.752 306.528V310.528H206.752V306.528H202.752ZM202.752 270.24H206.752V266.24H202.752V270.24ZM131.328 201.408H135.328V188.823L128.062 199.099L131.328 201.408ZM131.328 270.24V274.24H135.328V270.24H131.328ZM82.656 270.24L79.39 267.931L74.9286 274.24H82.656V270.24ZM176.224 270.24V144.672H168.224V270.24H176.224ZM172.224 140.672H129.888V148.672H172.224V140.672ZM126.62 142.365L38.7803 266.781L45.3157 271.395L133.156 146.979L126.62 142.365ZM38.048 269.088V306.528H46.048V269.088H38.048ZM42.048 310.528H131.328V302.528H42.048V310.528ZM127.328 306.528V348H135.328V306.528H127.328ZM131.328 352H172.224V344H131.328V352ZM176.224 348V306.528H168.224V348H176.224ZM172.224 310.528H202.752V302.528H172.224V310.528ZM206.752 306.528V270.24H198.752V306.528H206.752ZM202.752 266.24H172.224V274.24H202.752V266.24ZM127.328 201.408V270.24H135.328V201.408H127.328ZM131.328 266.24H82.656V274.24H131.328V266.24ZM85.922 272.549L134.594 203.717L128.062 199.099L79.39 267.931L85.922 272.549Z" fill="black" fill-opacity="0.4"/>
<path d="M166.224 264.24V138.672H123.888L36.048 263.088V300.528H125.328V342H166.224V300.528H196.752V264.24H166.224ZM125.328 195.408V264.24H76.656L125.328 195.408Z" fill="#2A1B3C" fill-opacity="0.5"/>
<path d="M166.224 264.24H162.224V268.24H166.224V264.24ZM166.224 138.672H170.224V134.672H166.224V138.672ZM123.888 138.672V134.672H121.816L120.62 136.365L123.888 138.672ZM36.048 263.088L32.7803 260.781L32.048 261.818V263.088H36.048ZM36.048 300.528H32.048V304.528H36.048V300.528ZM125.328 300.528H129.328V296.528H125.328V300.528ZM125.328 342H121.328V346H125.328V342ZM166.224 342V346H170.224V342H166.224ZM166.224 300.528V296.528H162.224V300.528H166.224ZM196.752 300.528V304.528H200.752V300.528H196.752ZM196.752 264.24H200.752V260.24H196.752V264.24ZM125.328 195.408H129.328V182.823L122.062 193.099L125.328 195.408ZM125.328 264.24V268.24H129.328V264.24H125.328ZM76.656 264.24L73.39 261.931L68.9286 268.24H76.656V264.24ZM170.224 264.24V138.672H162.224V264.24H170.224ZM166.224 134.672H123.888V142.672H166.224V134.672ZM120.62 136.365L32.7803 260.781L39.3157 265.395L127.156 140.979L120.62 136.365ZM32.048 263.088V300.528H40.048V263.088H32.048ZM36.048 304.528H125.328V296.528H36.048V304.528ZM121.328 300.528V342H129.328V300.528H121.328ZM125.328 346H166.224V338H125.328V346ZM170.224 342V300.528H162.224V342H170.224ZM166.224 304.528H196.752V296.528H166.224V304.528ZM200.752 300.528V264.24H192.752V300.528H200.752ZM196.752 260.24H166.224V268.24H196.752V260.24ZM121.328 195.408V264.24H129.328V195.408H121.328ZM125.328 260.24H76.656V268.24H125.328V260.24ZM79.922 266.549L128.594 197.717L122.062 193.099L73.39 261.931L79.922 266.549Z" fill="black" fill-opacity="0.5"/>
<path d="M160.224 258.24V132.672H117.888L30.048 257.088V294.528H119.328V336H160.224V294.528H190.752V258.24H160.224ZM119.328 189.408V258.24H70.656L119.328 189.408Z" fill="#2A1B3C" fill-opacity="0.6"/>
<path d="M160.224 258.24H156.224V262.24H160.224V258.24ZM160.224 132.672H164.224V128.672H160.224V132.672ZM117.888 132.672V128.672H115.816L114.62 130.365L117.888 132.672ZM30.048 257.088L26.7803 254.781L26.048 255.818V257.088H30.048ZM30.048 294.528H26.048V298.528H30.048V294.528ZM119.328 294.528H123.328V290.528H119.328V294.528ZM119.328 336H115.328V340H119.328V336ZM160.224 336V340H164.224V336H160.224ZM160.224 294.528V290.528H156.224V294.528H160.224ZM190.752 294.528V298.528H194.752V294.528H190.752ZM190.752 258.24H194.752V254.24H190.752V258.24ZM119.328 189.408H123.328V176.823L116.062 187.099L119.328 189.408ZM119.328 258.24V262.24H123.328V258.24H119.328ZM70.656 258.24L67.39 255.931L62.9286 262.24H70.656V258.24ZM164.224 258.24V132.672H156.224V258.24H164.224ZM160.224 128.672H117.888V136.672H160.224V128.672ZM114.62 130.365L26.7803 254.781L33.3157 259.395L121.156 134.979L114.62 130.365ZM26.048 257.088V294.528H34.048V257.088H26.048ZM30.048 298.528H119.328V290.528H30.048V298.528ZM115.328 294.528V336H123.328V294.528H115.328ZM119.328 340H160.224V332H119.328V340ZM164.224 336V294.528H156.224V336H164.224ZM160.224 298.528H190.752V290.528H160.224V298.528ZM194.752 294.528V258.24H186.752V294.528H194.752ZM190.752 254.24H160.224V262.24H190.752V254.24ZM115.328 189.408V258.24H123.328V189.408H115.328ZM119.328 254.24H70.656V262.24H119.328V254.24ZM73.922 260.549L122.594 191.717L116.062 187.099L67.39 255.931L73.922 260.549Z" fill="black" fill-opacity="0.6"/>
<path d="M154.224 252.24V126.672H111.888L24.048 251.088V288.528H113.328V330H154.224V288.528H184.752V252.24H154.224ZM113.328 183.408V252.24H64.656L113.328 183.408Z" fill="#2A1B3C" fill-opacity="0.7"/>
<path d="M154.224 252.24H150.224V256.24H154.224V252.24ZM154.224 126.672H158.224V122.672H154.224V126.672ZM111.888 126.672V122.672H109.816L108.62 124.365L111.888 126.672ZM24.048 251.088L20.7803 248.781L20.048 249.818V251.088H24.048ZM24.048 288.528H20.048V292.528H24.048V288.528ZM113.328 288.528H117.328V284.528H113.328V288.528ZM113.328 330H109.328V334H113.328V330ZM154.224 330V334H158.224V330H154.224ZM154.224 288.528V284.528H150.224V288.528H154.224ZM184.752 288.528V292.528H188.752V288.528H184.752ZM184.752 252.24H188.752V248.24H184.752V252.24ZM113.328 183.408H117.328V170.823L110.062 181.099L113.328 183.408ZM113.328 252.24V256.24H117.328V252.24H113.328ZM64.656 252.24L61.39 249.931L56.9286 256.24H64.656V252.24ZM158.224 252.24V126.672H150.224V252.24H158.224ZM154.224 122.672H111.888V130.672H154.224V122.672ZM108.62 124.365L20.7803 248.781L27.3157 253.395L115.156 128.979L108.62 124.365ZM20.048 251.088V288.528H28.048V251.088H20.048ZM24.048 292.528H113.328V284.528H24.048V292.528ZM109.328 288.528V330H117.328V288.528H109.328ZM113.328 334H154.224V326H113.328V334ZM158.224 330V288.528H150.224V330H158.224ZM154.224 292.528H184.752V284.528H154.224V292.528ZM188.752 288.528V252.24H180.752V288.528H188.752ZM184.752 248.24H154.224V256.24H184.752V248.24ZM109.328 183.408V252.24H117.328V183.408H109.328ZM113.328 248.24H64.656V256.24H113.328V248.24ZM67.922 254.549L116.594 185.717L110.062 181.099L61.39 249.931L67.922 254.549Z" fill="black" fill-opacity="0.7"/>
<path d="M148.224 245.24V119.672H105.888L18.048 244.088V281.528H107.328V323H148.224V281.528H178.752V245.24H148.224ZM107.328 176.408V245.24H58.656L107.328 176.408Z" fill="#2A1B3C" fill-opacity="0.8"/>
<path d="M148.224 245.24H144.224V249.24H148.224V245.24ZM148.224 119.672H152.224V115.672H148.224V119.672ZM105.888 119.672V115.672H103.816L102.62 117.365L105.888 119.672ZM18.048 244.088L14.7803 241.781L14.048 242.818V244.088H18.048ZM18.048 281.528H14.048V285.528H18.048V281.528ZM107.328 281.528H111.328V277.528H107.328V281.528ZM107.328 323H103.328V327H107.328V323ZM148.224 323V327H152.224V323H148.224ZM148.224 281.528V277.528H144.224V281.528H148.224ZM178.752 281.528V285.528H182.752V281.528H178.752ZM178.752 245.24H182.752V241.24H178.752V245.24ZM107.328 176.408H111.328V163.823L104.062 174.099L107.328 176.408ZM107.328 245.24V249.24H111.328V245.24H107.328ZM58.656 245.24L55.39 242.931L50.9286 249.24H58.656V245.24ZM152.224 245.24V119.672H144.224V245.24H152.224ZM148.224 115.672H105.888V123.672H148.224V115.672ZM102.62 117.365L14.7803 241.781L21.3157 246.395L109.156 121.979L102.62 117.365ZM14.048 244.088V281.528H22.048V244.088H14.048ZM18.048 285.528H107.328V277.528H18.048V285.528ZM103.328 281.528V323H111.328V281.528H103.328ZM107.328 327H148.224V319H107.328V327ZM152.224 323V281.528H144.224V323H152.224ZM148.224 285.528H178.752V277.528H148.224V285.528ZM182.752 281.528V245.24H174.752V281.528H182.752ZM178.752 241.24H148.224V249.24H178.752V241.24ZM103.328 176.408V245.24H111.328V176.408H103.328ZM107.328 241.24H58.656V249.24H107.328V241.24ZM61.922 247.549L110.594 178.717L104.062 174.099L55.39 242.931L61.922 247.549Z" fill="black" fill-opacity="0.8"/>
<path d="M142.224 239.24V113.672H99.888L12.048 238.088V275.528H101.328V317H142.224V275.528H172.752V239.24H142.224ZM101.328 170.408V239.24H52.656L101.328 170.408Z" fill="#2A1B3C" fill-opacity="0.9"/>
<path d="M142.224 239.24H138.224V243.24H142.224V239.24ZM142.224 113.672H146.224V109.672H142.224V113.672ZM99.888 113.672V109.672H97.8156L96.6203 111.365L99.888 113.672ZM12.048 238.088L8.78034 235.781L8.048 236.818V238.088H12.048ZM12.048 275.528H8.048V279.528H12.048V275.528ZM101.328 275.528H105.328V271.528H101.328V275.528ZM101.328 317H97.328V321H101.328V317ZM142.224 317V321H146.224V317H142.224ZM142.224 275.528V271.528H138.224V275.528H142.224ZM172.752 275.528V279.528H176.752V275.528H172.752ZM172.752 239.24H176.752V235.24H172.752V239.24ZM101.328 170.408H105.328V157.823L98.062 168.099L101.328 170.408ZM101.328 239.24V243.24H105.328V239.24H101.328ZM52.656 239.24L49.39 236.931L44.9286 243.24H52.656V239.24ZM146.224 239.24V113.672H138.224V239.24H146.224ZM142.224 109.672H99.888V117.672H142.224V109.672ZM96.6203 111.365L8.78034 235.781L15.3157 240.395L103.156 115.979L96.6203 111.365ZM8.048 238.088V275.528H16.048V238.088H8.048ZM12.048 279.528H101.328V271.528H12.048V279.528ZM97.328 275.528V317H105.328V275.528H97.328ZM101.328 321H142.224V313H101.328V321ZM146.224 317V275.528H138.224V317H146.224ZM142.224 279.528H172.752V271.528H142.224V279.528ZM176.752 275.528V239.24H168.752V275.528H176.752ZM172.752 235.24H142.224V243.24H172.752V235.24ZM97.328 170.408V239.24H105.328V170.408H97.328ZM101.328 235.24H52.656V243.24H101.328V235.24ZM55.922 241.549L104.594 172.717L98.062 168.099L49.39 236.931L55.922 241.549Z" fill="black" fill-opacity="0.9"/>
<path d="M136.224 233.24V107.672H93.888L6.048 232.088V269.528H95.328V311H136.224V269.528H166.752V233.24H136.224ZM95.328 164.408V233.24H46.656L95.328 164.408Z" fill="white"/>
<path d="M136.224 233.24H132.224V237.24H136.224V233.24ZM136.224 107.672H140.224V103.672H136.224V107.672ZM93.888 107.672V103.672H91.8156L90.6203 105.365L93.888 107.672ZM6.048 232.088L2.78034 229.781L2.048 230.818V232.088H6.048ZM6.048 269.528H2.048V273.528H6.048V269.528ZM95.328 269.528H99.328V265.528H95.328V269.528ZM95.328 311H91.328V315H95.328V311ZM136.224 311V315H140.224V311H136.224ZM136.224 269.528V265.528H132.224V269.528H136.224ZM166.752 269.528V273.528H170.752V269.528H166.752ZM166.752 233.24H170.752V229.24H166.752V233.24ZM95.328 164.408H99.328V151.823L92.062 162.099L95.328 164.408ZM95.328 233.24V237.24H99.328V233.24H95.328ZM46.656 233.24L43.39 230.931L38.9286 237.24H46.656V233.24ZM140.224 233.24V107.672H132.224V233.24H140.224ZM136.224 103.672H93.888V111.672H136.224V103.672ZM90.6203 105.365L2.78034 229.781L9.31566 234.395L97.1557 109.979L90.6203 105.365ZM2.048 232.088V269.528H10.048V232.088H2.048ZM6.048 273.528H95.328V265.528H6.048V273.528ZM91.328 269.528V311H99.328V269.528H91.328ZM95.328 315H136.224V307H95.328V315ZM140.224 311V269.528H132.224V311H140.224ZM136.224 273.528H166.752V265.528H136.224V273.528ZM170.752 269.528V233.24H162.752V269.528H170.752ZM166.752 229.24H136.224V237.24H166.752V229.24ZM91.328 164.408V233.24H99.328V164.408H91.328ZM95.328 229.24H46.656V237.24H95.328V229.24ZM49.922 235.549L98.594 166.717L92.062 162.099L43.39 230.931L49.922 235.549Z" fill="black"/>
</svg>
