<svg width="25" height="24" viewBox="0 0 25 24" fill="none" xmlns="http://www.w3.org/2000/svg">
<path d="M12.3104 5.8031C8.81788 5.8031 6.00077 8.48275 6.00077 11.8049C6.00077 15.127 8.81788 17.8067 12.3104 17.8067C15.803 17.8067 18.6201 15.127 18.6201 11.8049C18.6201 8.48275 15.803 5.8031 12.3104 5.8031ZM12.3104 15.7069C10.0535 15.7069 8.20833 13.957 8.20833 11.8049C8.20833 9.65282 10.048 7.90295 12.3104 7.90295C14.5729 7.90295 16.4125 9.65282 16.4125 11.8049C16.4125 13.957 14.5674 15.7069 12.3104 15.7069ZM20.3499 5.55759C20.3499 6.3359 19.6909 6.95749 18.8782 6.95749C18.06 6.95749 17.4065 6.33067 17.4065 5.55759C17.4065 4.78452 18.0655 4.1577 18.8782 4.1577C19.6909 4.1577 20.3499 4.78452 20.3499 5.55759ZM24.5289 6.97839C24.4355 5.10315 23.9852 3.44208 22.541 2.07352C21.1022 0.704962 19.356 0.276635 17.3845 0.182612C15.3527 0.0729184 9.26269 0.0729184 7.23086 0.182612C5.26492 0.271411 3.51864 0.699738 2.07439 2.0683C0.630143 3.43685 0.185336 5.09793 0.0864902 6.97316C-0.0288301 8.90586 -0.0288301 14.6987 0.0864902 16.6314C0.179845 18.5067 0.630143 20.1677 2.07439 21.5363C3.51864 22.9048 5.25943 23.3332 7.23086 23.4272C9.26269 23.5369 15.3527 23.5369 17.3845 23.4272C19.356 23.3384 21.1022 22.9101 22.541 21.5363C23.9798 20.1677 24.4301 18.5067 24.5289 16.6314C24.6442 14.6987 24.6442 8.91108 24.5289 6.97839ZM21.904 18.7051C21.4757 19.729 20.6465 20.5177 19.5646 20.9304C17.9447 21.5415 14.1006 21.4005 12.3104 21.4005C10.5202 21.4005 6.67073 21.5363 5.05624 20.9304C3.97992 20.5229 3.15071 19.7342 2.71689 18.7051C2.07439 17.1642 2.22266 13.5078 2.22266 11.8049C2.22266 10.102 2.07988 6.44037 2.71689 4.90466C3.14522 3.88085 3.97443 3.0921 5.05624 2.67945C6.67622 2.0683 10.5202 2.20933 12.3104 2.20933C14.1006 2.20933 17.9502 2.07352 19.5646 2.67945C20.641 3.08688 21.4702 3.87563 21.904 4.90466C22.5465 6.44559 22.3982 10.102 22.3982 11.8049C22.3982 13.5078 22.5465 17.1694 21.904 18.7051Z" fill="#2A1B3C"/>
</svg>
