<svg width="919" height="318" viewBox="0 0 919 318" fill="none" xmlns="http://www.w3.org/2000/svg">
<rect width="291" height="303" fill="#A4B3B6"/>
<rect x="15" y="15" width="291" height="303" fill="#FFECF5"/>
<path d="M75.249 113.943C75.249 112.007 74.5654 110.525 73.1982 109.5C71.8311 108.452 69.3701 107.358 65.8154 106.219C62.2607 105.057 59.4466 103.917 57.373 102.801C51.722 99.7474 48.8965 95.6344 48.8965 90.4619C48.8965 87.7731 49.6484 85.3805 51.1523 83.2842C52.679 81.165 54.8551 79.513 57.6807 78.3281C60.529 77.1432 63.7191 76.5508 67.251 76.5508C70.8057 76.5508 73.973 77.2002 76.7529 78.499C79.5329 79.7751 81.6862 81.5866 83.2129 83.9336C84.7624 86.2806 85.5371 88.9466 85.5371 91.9316H75.2832C75.2832 89.653 74.5654 87.887 73.1299 86.6338C71.6943 85.3577 69.6777 84.7197 67.0801 84.7197C64.5736 84.7197 62.6253 85.2552 61.2354 86.3262C59.8454 87.3743 59.1504 88.7643 59.1504 90.4961C59.1504 92.1139 59.9593 93.4697 61.5771 94.5635C63.2178 95.6572 65.6217 96.6826 68.7891 97.6396C74.6224 99.3942 78.8721 101.57 81.5381 104.168C84.2041 106.766 85.5371 110.001 85.5371 113.875C85.5371 118.182 83.9079 121.565 80.6494 124.026C77.391 126.465 73.0046 127.684 67.4902 127.684C63.6621 127.684 60.1758 126.989 57.0312 125.599C53.8867 124.186 51.4827 122.26 49.8193 119.822C48.1787 117.384 47.3584 114.559 47.3584 111.346H57.6465C57.6465 116.837 60.9277 119.583 67.4902 119.583C69.9284 119.583 71.8311 119.093 73.1982 118.113C74.5654 117.111 75.249 115.721 75.249 113.943ZM101.499 94.0508C104.119 90.9062 107.412 89.334 111.377 89.334C119.398 89.334 123.465 93.9938 123.579 103.313V127H113.701V103.587C113.701 101.468 113.245 99.9069 112.334 98.9043C111.423 97.8789 109.907 97.3662 107.788 97.3662C104.894 97.3662 102.798 98.4827 101.499 100.716V127H91.6211V74.5H101.499V94.0508ZM152.461 127C152.005 126.111 151.675 125.006 151.47 123.685C149.077 126.351 145.967 127.684 142.139 127.684C138.516 127.684 135.508 126.635 133.115 124.539C130.745 122.443 129.561 119.799 129.561 116.609C129.561 112.69 131.007 109.682 133.901 107.586C136.818 105.49 141.022 104.43 146.514 104.407H151.06V102.288C151.06 100.579 150.615 99.2119 149.727 98.1865C148.861 97.1611 147.482 96.6484 145.591 96.6484C143.927 96.6484 142.617 97.0472 141.66 97.8447C140.726 98.6423 140.259 99.736 140.259 101.126H130.381C130.381 98.984 131.042 97.0016 132.363 95.1787C133.685 93.3558 135.553 91.9316 137.969 90.9062C140.384 89.8581 143.096 89.334 146.104 89.334C150.661 89.334 154.272 90.4847 156.938 92.7861C159.627 95.0648 160.972 98.2777 160.972 102.425V118.455C160.994 121.964 161.484 124.619 162.441 126.419V127H152.461ZM144.292 120.13C145.75 120.13 147.095 119.811 148.325 119.173C149.556 118.512 150.467 117.635 151.06 116.541V110.184H147.368C142.424 110.184 139.792 111.893 139.473 115.311L139.438 115.892C139.438 117.122 139.871 118.136 140.737 118.934C141.603 119.731 142.788 120.13 144.292 120.13ZM189.341 99.2803C187.996 99.098 186.812 99.0068 185.786 99.0068C182.049 99.0068 179.6 100.271 178.438 102.801V127H168.56V90.0176H177.891L178.164 94.4268C180.146 91.0316 182.892 89.334 186.401 89.334C187.495 89.334 188.521 89.4821 189.478 89.7783L189.341 99.2803ZM204.551 127H194.639V90.0176H204.551V127ZM194.058 80.4473C194.058 78.9661 194.548 77.7471 195.527 76.79C196.53 75.833 197.886 75.3545 199.595 75.3545C201.281 75.3545 202.625 75.833 203.628 76.79C204.631 77.7471 205.132 78.9661 205.132 80.4473C205.132 81.9512 204.619 83.1816 203.594 84.1387C202.591 85.0957 201.258 85.5742 199.595 85.5742C197.931 85.5742 196.587 85.0957 195.562 84.1387C194.559 83.1816 194.058 81.9512 194.058 80.4473ZM221.812 90.0176L222.119 94.29C224.762 90.986 228.306 89.334 232.749 89.334C236.668 89.334 239.585 90.4847 241.499 92.7861C243.413 95.0876 244.393 98.5283 244.438 103.108V127H234.561V103.348C234.561 101.251 234.105 99.736 233.193 98.8018C232.282 97.8447 230.767 97.3662 228.647 97.3662C225.868 97.3662 223.783 98.5511 222.393 100.921V127H212.515V90.0176H221.812ZM250.522 108.235C250.522 102.562 251.867 97.9928 254.556 94.5293C257.267 91.0658 260.913 89.334 265.493 89.334C269.549 89.334 272.705 90.724 274.961 93.5039L275.371 90.0176H284.326V125.77C284.326 129.005 283.586 131.819 282.104 134.212C280.646 136.604 278.584 138.427 275.918 139.681C273.252 140.934 270.13 141.561 266.553 141.561C263.841 141.561 261.198 141.014 258.623 139.92C256.048 138.849 254.1 137.459 252.778 135.75L257.153 129.734C259.614 132.492 262.599 133.87 266.108 133.87C268.729 133.87 270.768 133.164 272.227 131.751C273.685 130.361 274.414 128.379 274.414 125.804V123.821C272.135 126.396 269.139 127.684 265.425 127.684C260.981 127.684 257.381 125.952 254.624 122.488C251.89 119.002 250.522 114.388 250.522 108.646V108.235ZM260.4 108.953C260.4 112.303 261.073 114.935 262.417 116.849C263.761 118.74 265.607 119.686 267.954 119.686C270.962 119.686 273.115 118.558 274.414 116.302V100.75C273.092 98.4941 270.962 97.3662 268.022 97.3662C265.653 97.3662 263.784 98.3346 262.417 100.271C261.073 102.208 260.4 105.102 260.4 108.953ZM335.835 113.943C335.835 112.007 335.151 110.525 333.784 109.5C332.417 108.452 329.956 107.358 326.401 106.219C322.847 105.057 320.033 103.917 317.959 102.801C312.308 99.7474 309.482 95.6344 309.482 90.4619C309.482 87.7731 310.234 85.3805 311.738 83.2842C313.265 81.165 315.441 79.513 318.267 78.3281C321.115 77.1432 324.305 76.5508 327.837 76.5508C331.392 76.5508 334.559 77.2002 337.339 78.499C340.119 79.7751 342.272 81.5866 343.799 83.9336C345.348 86.2806 346.123 88.9466 346.123 91.9316H335.869C335.869 89.653 335.151 87.887 333.716 86.6338C332.28 85.3577 330.264 84.7197 327.666 84.7197C325.16 84.7197 323.211 85.2552 321.821 86.3262C320.431 87.3743 319.736 88.7643 319.736 90.4961C319.736 92.1139 320.545 93.4697 322.163 94.5635C323.804 95.6572 326.208 96.6826 329.375 97.6396C335.208 99.3942 339.458 101.57 342.124 104.168C344.79 106.766 346.123 110.001 346.123 113.875C346.123 118.182 344.494 121.565 341.235 124.026C337.977 126.465 333.59 127.684 328.076 127.684C324.248 127.684 320.762 126.989 317.617 125.599C314.473 124.186 312.069 122.26 310.405 119.822C308.765 117.384 307.944 114.559 307.944 111.346H318.232C318.232 116.837 321.514 119.583 328.076 119.583C330.514 119.583 332.417 119.093 333.784 118.113C335.151 117.111 335.835 115.721 335.835 113.943ZM374.595 123.24C372.157 126.202 368.784 127.684 364.478 127.684C360.513 127.684 357.482 126.544 355.386 124.266C353.312 121.987 352.253 118.649 352.207 114.251V90.0176H362.085V113.909C362.085 117.76 363.84 119.686 367.349 119.686C370.698 119.686 373 118.523 374.253 116.199V90.0176H384.165V127H374.868L374.595 123.24ZM424.907 108.851C424.907 114.547 423.608 119.116 421.011 122.557C418.436 125.975 414.95 127.684 410.552 127.684C406.815 127.684 403.796 126.385 401.494 123.787V141.219H391.616V90.0176H400.776L401.118 93.6406C403.511 90.7695 406.632 89.334 410.483 89.334C415.041 89.334 418.584 91.0202 421.113 94.3926C423.643 97.765 424.907 102.413 424.907 108.338V108.851ZM415.029 108.133C415.029 104.692 414.414 102.037 413.184 100.169C411.976 98.3005 410.21 97.3662 407.886 97.3662C404.787 97.3662 402.656 98.5511 401.494 100.921V116.062C402.702 118.501 404.855 119.72 407.954 119.72C412.671 119.72 415.029 115.857 415.029 108.133ZM464.351 108.851C464.351 114.547 463.052 119.116 460.454 122.557C457.879 125.975 454.393 127.684 449.995 127.684C446.258 127.684 443.239 126.385 440.938 123.787V141.219H431.06V90.0176H440.22L440.562 93.6406C442.954 90.7695 446.076 89.334 449.927 89.334C454.484 89.334 458.027 91.0202 460.557 94.3926C463.086 97.765 464.351 102.413 464.351 108.338V108.851ZM454.473 108.133C454.473 104.692 453.857 102.037 452.627 100.169C451.419 98.3005 449.653 97.3662 447.329 97.3662C444.23 97.3662 442.1 98.5511 440.938 100.921V116.062C442.145 118.501 444.299 119.72 447.397 119.72C452.114 119.72 454.473 115.857 454.473 108.133ZM468.965 108.167C468.965 104.498 469.671 101.229 471.084 98.3574C472.497 95.4863 474.525 93.2646 477.168 91.6924C479.834 90.1201 482.922 89.334 486.431 89.334C491.421 89.334 495.488 90.8607 498.633 93.9141C501.8 96.9674 503.566 101.115 503.931 106.355L503.999 108.885C503.999 114.559 502.415 119.116 499.248 122.557C496.081 125.975 491.831 127.684 486.499 127.684C481.167 127.684 476.906 125.975 473.716 122.557C470.549 119.139 468.965 114.49 468.965 108.611V108.167ZM478.843 108.885C478.843 112.394 479.504 115.083 480.825 116.951C482.147 118.797 484.038 119.72 486.499 119.72C488.892 119.72 490.76 118.808 492.104 116.985C493.449 115.14 494.121 112.2 494.121 108.167C494.121 104.726 493.449 102.06 492.104 100.169C490.76 98.2777 488.869 97.332 486.431 97.332C484.015 97.332 482.147 98.2777 480.825 100.169C479.504 102.037 478.843 104.943 478.843 108.885ZM530.864 99.2803C529.52 99.098 528.335 99.0068 527.31 99.0068C523.573 99.0068 521.123 100.271 519.961 102.801V127H510.083V90.0176H519.414L519.688 94.4268C521.67 91.0316 524.416 89.334 527.925 89.334C529.019 89.334 530.044 89.4821 531.001 89.7783L530.864 99.2803ZM549.185 80.9258V90.0176H555.508V97.2637H549.185V115.721C549.185 117.088 549.447 118.068 549.971 118.66C550.495 119.253 551.497 119.549 552.979 119.549C554.072 119.549 555.041 119.469 555.884 119.31V126.795C553.947 127.387 551.953 127.684 549.902 127.684C542.975 127.684 539.443 124.186 539.307 117.19V97.2637H533.906V90.0176H539.307V80.9258H549.185Z" fill="#2A1B3C"/>
<path d="M56.625 199.113H49.2305V205.16H57.8203V207H46.9805V189.938H57.7031V191.789H49.2305V197.273H56.625V199.113ZM63.5273 189.938L69.1055 203.859L74.6836 189.938H77.6016V207H75.3516V200.355L75.5625 193.184L69.9609 207H68.2383L62.6484 193.219L62.8711 200.355V207H60.6211V189.938H63.5273ZM93.0117 191.789H87.5273V207H85.2891V191.789H79.8164V189.938H93.0117V191.789ZM97.957 207H95.707V189.938H97.957V207ZM115.523 207C115.398 206.75 115.297 206.305 115.219 205.664C114.211 206.711 113.008 207.234 111.609 207.234C110.359 207.234 109.332 206.883 108.527 206.18C107.73 205.469 107.332 204.57 107.332 203.484C107.332 202.164 107.832 201.141 108.832 200.414C109.84 199.68 111.254 199.312 113.074 199.312H115.184V198.316C115.184 197.559 114.957 196.957 114.504 196.512C114.051 196.059 113.383 195.832 112.5 195.832C111.727 195.832 111.078 196.027 110.555 196.418C110.031 196.809 109.77 197.281 109.77 197.836H107.59C107.59 197.203 107.812 196.594 108.258 196.008C108.711 195.414 109.32 194.945 110.086 194.602C110.859 194.258 111.707 194.086 112.629 194.086C114.09 194.086 115.234 194.453 116.062 195.188C116.891 195.914 117.32 196.918 117.352 198.199V204.035C117.352 205.199 117.5 206.125 117.797 206.812V207H115.523ZM111.926 205.348C112.605 205.348 113.25 205.172 113.859 204.82C114.469 204.469 114.91 204.012 115.184 203.449V200.848H113.484C110.828 200.848 109.5 201.625 109.5 203.18C109.5 203.859 109.727 204.391 110.18 204.773C110.633 205.156 111.215 205.348 111.926 205.348ZM124.289 201.129L122.93 202.547V207H120.762V189H122.93V199.887L124.09 198.492L128.039 194.32H130.676L125.742 199.617L131.25 207H128.707L124.289 201.129ZM140.742 207C140.617 206.75 140.516 206.305 140.438 205.664C139.43 206.711 138.227 207.234 136.828 207.234C135.578 207.234 134.551 206.883 133.746 206.18C132.949 205.469 132.551 204.57 132.551 203.484C132.551 202.164 133.051 201.141 134.051 200.414C135.059 199.68 136.473 199.312 138.293 199.312H140.402V198.316C140.402 197.559 140.176 196.957 139.723 196.512C139.27 196.059 138.602 195.832 137.719 195.832C136.945 195.832 136.297 196.027 135.773 196.418C135.25 196.809 134.988 197.281 134.988 197.836H132.809C132.809 197.203 133.031 196.594 133.477 196.008C133.93 195.414 134.539 194.945 135.305 194.602C136.078 194.258 136.926 194.086 137.848 194.086C139.309 194.086 140.453 194.453 141.281 195.188C142.109 195.914 142.539 196.918 142.57 198.199V204.035C142.57 205.199 142.719 206.125 143.016 206.812V207H140.742ZM137.145 205.348C137.824 205.348 138.469 205.172 139.078 204.82C139.688 204.469 140.129 204.012 140.402 203.449V200.848H138.703C136.047 200.848 134.719 201.625 134.719 203.18C134.719 203.859 134.945 204.391 135.398 204.773C135.852 205.156 136.434 205.348 137.145 205.348ZM148.02 194.32L148.09 195.914C149.059 194.695 150.324 194.086 151.887 194.086C154.566 194.086 155.918 195.598 155.941 198.621V207H153.773V198.609C153.766 197.695 153.555 197.02 153.141 196.582C152.734 196.145 152.098 195.926 151.23 195.926C150.527 195.926 149.91 196.113 149.379 196.488C148.848 196.863 148.434 197.355 148.137 197.965V207H145.969V194.32H148.02ZM172.547 203.637C172.547 203.051 172.324 202.598 171.879 202.277C171.441 201.949 170.672 201.668 169.57 201.434C168.477 201.199 167.605 200.918 166.957 200.59C166.316 200.262 165.84 199.871 165.527 199.418C165.223 198.965 165.07 198.426 165.07 197.801C165.07 196.762 165.508 195.883 166.383 195.164C167.266 194.445 168.391 194.086 169.758 194.086C171.195 194.086 172.359 194.457 173.25 195.199C174.148 195.941 174.598 196.891 174.598 198.047H172.418C172.418 197.453 172.164 196.941 171.656 196.512C171.156 196.082 170.523 195.867 169.758 195.867C168.969 195.867 168.352 196.039 167.906 196.383C167.461 196.727 167.238 197.176 167.238 197.73C167.238 198.254 167.445 198.648 167.859 198.914C168.273 199.18 169.02 199.434 170.098 199.676C171.184 199.918 172.062 200.207 172.734 200.543C173.406 200.879 173.902 201.285 174.223 201.762C174.551 202.23 174.715 202.805 174.715 203.484C174.715 204.617 174.262 205.527 173.355 206.215C172.449 206.895 171.273 207.234 169.828 207.234C168.812 207.234 167.914 207.055 167.133 206.695C166.352 206.336 165.738 205.836 165.293 205.195C164.855 204.547 164.637 203.848 164.637 203.098H166.805C166.844 203.824 167.133 204.402 167.672 204.832C168.219 205.254 168.938 205.465 169.828 205.465C170.648 205.465 171.305 205.301 171.797 204.973C172.297 204.637 172.547 204.191 172.547 203.637ZM182.801 207.234C181.082 207.234 179.684 206.672 178.605 205.547C177.527 204.414 176.988 202.902 176.988 201.012V200.613C176.988 199.355 177.227 198.234 177.703 197.25C178.188 196.258 178.859 195.484 179.719 194.93C180.586 194.367 181.523 194.086 182.531 194.086C184.18 194.086 185.461 194.629 186.375 195.715C187.289 196.801 187.746 198.355 187.746 200.379V201.281H179.156C179.188 202.531 179.551 203.543 180.246 204.316C180.949 205.082 181.84 205.465 182.918 205.465C183.684 205.465 184.332 205.309 184.863 204.996C185.395 204.684 185.859 204.27 186.258 203.754L187.582 204.785C186.52 206.418 184.926 207.234 182.801 207.234ZM182.531 195.867C181.656 195.867 180.922 196.188 180.328 196.828C179.734 197.461 179.367 198.352 179.227 199.5H185.578V199.336C185.516 198.234 185.219 197.383 184.688 196.781C184.156 196.172 183.438 195.867 182.531 195.867ZM192.621 207H190.453V189H192.621V207ZM203.93 207C203.805 206.75 203.703 206.305 203.625 205.664C202.617 206.711 201.414 207.234 200.016 207.234C198.766 207.234 197.738 206.883 196.934 206.18C196.137 205.469 195.738 204.57 195.738 203.484C195.738 202.164 196.238 201.141 197.238 200.414C198.246 199.68 199.66 199.312 201.48 199.312H203.59V198.316C203.59 197.559 203.363 196.957 202.91 196.512C202.457 196.059 201.789 195.832 200.906 195.832C200.133 195.832 199.484 196.027 198.961 196.418C198.438 196.809 198.176 197.281 198.176 197.836H195.996C195.996 197.203 196.219 196.594 196.664 196.008C197.117 195.414 197.727 194.945 198.492 194.602C199.266 194.258 200.113 194.086 201.035 194.086C202.496 194.086 203.641 194.453 204.469 195.188C205.297 195.914 205.727 196.918 205.758 198.199V204.035C205.758 205.199 205.906 206.125 206.203 206.812V207H203.93ZM200.332 205.348C201.012 205.348 201.656 205.172 202.266 204.82C202.875 204.469 203.316 204.012 203.59 203.449V200.848H201.891C199.234 200.848 197.906 201.625 197.906 203.18C197.906 203.859 198.133 204.391 198.586 204.773C199.039 205.156 199.621 205.348 200.332 205.348ZM211.512 207H209.344V189H211.512V207ZM222.82 205.746C221.977 206.738 220.738 207.234 219.105 207.234C217.754 207.234 216.723 206.844 216.012 206.062C215.309 205.273 214.953 204.109 214.945 202.57V194.32H217.113V202.512C217.113 204.434 217.895 205.395 219.457 205.395C221.113 205.395 222.215 204.777 222.762 203.543V194.32H224.93V207H222.867L222.82 205.746ZM236.227 194.32L236.285 195.727C237.215 194.633 238.469 194.086 240.047 194.086C241.82 194.086 243.027 194.766 243.668 196.125C244.09 195.516 244.637 195.023 245.309 194.648C245.988 194.273 246.789 194.086 247.711 194.086C250.492 194.086 251.906 195.559 251.953 198.504V207H249.785V198.633C249.785 197.727 249.578 197.051 249.164 196.605C248.75 196.152 248.055 195.926 247.078 195.926C246.273 195.926 245.605 196.168 245.074 196.652C244.543 197.129 244.234 197.773 244.148 198.586V207H241.969V198.691C241.969 196.848 241.066 195.926 239.262 195.926C237.84 195.926 236.867 196.531 236.344 197.742V207H234.176V194.32H236.227ZM260.496 207.234C258.777 207.234 257.379 206.672 256.301 205.547C255.223 204.414 254.684 202.902 254.684 201.012V200.613C254.684 199.355 254.922 198.234 255.398 197.25C255.883 196.258 256.555 195.484 257.414 194.93C258.281 194.367 259.219 194.086 260.227 194.086C261.875 194.086 263.156 194.629 264.07 195.715C264.984 196.801 265.441 198.355 265.441 200.379V201.281H256.852C256.883 202.531 257.246 203.543 257.941 204.316C258.645 205.082 259.535 205.465 260.613 205.465C261.379 205.465 262.027 205.309 262.559 204.996C263.09 204.684 263.555 204.27 263.953 203.754L265.277 204.785C264.215 206.418 262.621 207.234 260.496 207.234ZM260.227 195.867C259.352 195.867 258.617 196.188 258.023 196.828C257.43 197.461 257.062 198.352 256.922 199.5H263.273V199.336C263.211 198.234 262.914 197.383 262.383 196.781C261.852 196.172 261.133 195.867 260.227 195.867ZM270.012 194.32L270.082 195.914C271.051 194.695 272.316 194.086 273.879 194.086C276.559 194.086 277.91 195.598 277.934 198.621V207H275.766V198.609C275.758 197.695 275.547 197.02 275.133 196.582C274.727 196.145 274.09 195.926 273.223 195.926C272.52 195.926 271.902 196.113 271.371 196.488C270.84 196.863 270.426 197.355 270.129 197.965V207H267.961V194.32H270.012ZM283.441 194.32V208.465C283.441 210.902 282.336 212.121 280.125 212.121C279.648 212.121 279.207 212.051 278.801 211.91V210.176C279.051 210.238 279.379 210.27 279.785 210.27C280.27 210.27 280.637 210.137 280.887 209.871C281.145 209.613 281.273 209.16 281.273 208.512V194.32H283.441ZM281.051 190.957C281.051 190.613 281.156 190.32 281.367 190.078C281.586 189.828 281.902 189.703 282.316 189.703C282.738 189.703 283.059 189.824 283.277 190.066C283.496 190.309 283.605 190.605 283.605 190.957C283.605 191.309 283.496 191.602 283.277 191.836C283.059 192.07 282.738 192.188 282.316 192.188C281.895 192.188 281.578 192.07 281.367 191.836C281.156 191.602 281.051 191.309 281.051 190.957ZM294.773 207C294.648 206.75 294.547 206.305 294.469 205.664C293.461 206.711 292.258 207.234 290.859 207.234C289.609 207.234 288.582 206.883 287.777 206.18C286.98 205.469 286.582 204.57 286.582 203.484C286.582 202.164 287.082 201.141 288.082 200.414C289.09 199.68 290.504 199.312 292.324 199.312H294.434V198.316C294.434 197.559 294.207 196.957 293.754 196.512C293.301 196.059 292.633 195.832 291.75 195.832C290.977 195.832 290.328 196.027 289.805 196.418C289.281 196.809 289.02 197.281 289.02 197.836H286.84C286.84 197.203 287.062 196.594 287.508 196.008C287.961 195.414 288.57 194.945 289.336 194.602C290.109 194.258 290.957 194.086 291.879 194.086C293.34 194.086 294.484 194.453 295.312 195.188C296.141 195.914 296.57 196.918 296.602 198.199V204.035C296.602 205.199 296.75 206.125 297.047 206.812V207H294.773ZM291.176 205.348C291.855 205.348 292.5 205.172 293.109 204.82C293.719 204.469 294.16 204.012 294.434 203.449V200.848H292.734C290.078 200.848 288.75 201.625 288.75 203.18C288.75 203.859 288.977 204.391 289.43 204.773C289.883 205.156 290.465 205.348 291.176 205.348ZM299.473 200.555C299.473 198.609 299.934 197.047 300.855 195.867C301.777 194.68 302.984 194.086 304.477 194.086C305.961 194.086 307.137 194.594 308.004 195.609V189H310.172V207H308.18L308.074 205.641C307.207 206.703 306 207.234 304.453 207.234C302.984 207.234 301.785 206.633 300.855 205.43C299.934 204.227 299.473 202.656 299.473 200.719V200.555ZM301.641 200.801C301.641 202.238 301.938 203.363 302.531 204.176C303.125 204.988 303.945 205.395 304.992 205.395C306.367 205.395 307.371 204.777 308.004 203.543V197.719C307.355 196.523 306.359 195.926 305.016 195.926C303.953 195.926 303.125 196.336 302.531 197.156C301.938 197.977 301.641 199.191 301.641 200.801ZM315.902 207H313.734V194.32H315.902V207ZM313.559 190.957C313.559 190.605 313.664 190.309 313.875 190.066C314.094 189.824 314.414 189.703 314.836 189.703C315.258 189.703 315.578 189.824 315.797 190.066C316.016 190.309 316.125 190.605 316.125 190.957C316.125 191.309 316.016 191.602 315.797 191.836C315.578 192.07 315.258 192.188 314.836 192.188C314.414 192.188 314.094 192.07 313.875 191.836C313.664 191.602 313.559 191.309 313.559 190.957ZM332.719 203.637C332.719 203.051 332.496 202.598 332.051 202.277C331.613 201.949 330.844 201.668 329.742 201.434C328.648 201.199 327.777 200.918 327.129 200.59C326.488 200.262 326.012 199.871 325.699 199.418C325.395 198.965 325.242 198.426 325.242 197.801C325.242 196.762 325.68 195.883 326.555 195.164C327.438 194.445 328.562 194.086 329.93 194.086C331.367 194.086 332.531 194.457 333.422 195.199C334.32 195.941 334.77 196.891 334.77 198.047H332.59C332.59 197.453 332.336 196.941 331.828 196.512C331.328 196.082 330.695 195.867 329.93 195.867C329.141 195.867 328.523 196.039 328.078 196.383C327.633 196.727 327.41 197.176 327.41 197.73C327.41 198.254 327.617 198.648 328.031 198.914C328.445 199.18 329.191 199.434 330.27 199.676C331.355 199.918 332.234 200.207 332.906 200.543C333.578 200.879 334.074 201.285 334.395 201.762C334.723 202.23 334.887 202.805 334.887 203.484C334.887 204.617 334.434 205.527 333.527 206.215C332.621 206.895 331.445 207.234 330 207.234C328.984 207.234 328.086 207.055 327.305 206.695C326.523 206.336 325.91 205.836 325.465 205.195C325.027 204.547 324.809 203.848 324.809 203.098H326.977C327.016 203.824 327.305 204.402 327.844 204.832C328.391 205.254 329.109 205.465 330 205.465C330.82 205.465 331.477 205.301 331.969 204.973C332.469 204.637 332.719 204.191 332.719 203.637ZM345.539 205.746C344.695 206.738 343.457 207.234 341.824 207.234C340.473 207.234 339.441 206.844 338.73 206.062C338.027 205.273 337.672 204.109 337.664 202.57V194.32H339.832V202.512C339.832 204.434 340.613 205.395 342.176 205.395C343.832 205.395 344.934 204.777 345.48 203.543V194.32H347.648V207H345.586L345.539 205.746ZM361.664 200.801C361.664 202.73 361.223 204.285 360.34 205.465C359.457 206.645 358.262 207.234 356.754 207.234C355.215 207.234 354.004 206.746 353.121 205.77V211.875H350.953V194.32H352.934L353.039 195.727C353.922 194.633 355.148 194.086 356.719 194.086C358.242 194.086 359.445 194.66 360.328 195.809C361.219 196.957 361.664 198.555 361.664 200.602V200.801ZM359.496 200.555C359.496 199.125 359.191 197.996 358.582 197.168C357.973 196.34 357.137 195.926 356.074 195.926C354.762 195.926 353.777 196.508 353.121 197.672V203.73C353.77 204.887 354.762 205.465 356.098 205.465C357.137 205.465 357.961 205.055 358.57 204.234C359.188 203.406 359.496 202.18 359.496 200.555ZM375.141 200.801C375.141 202.73 374.699 204.285 373.816 205.465C372.934 206.645 371.738 207.234 370.23 207.234C368.691 207.234 367.48 206.746 366.598 205.77V211.875H364.43V194.32H366.41L366.516 195.727C367.398 194.633 368.625 194.086 370.195 194.086C371.719 194.086 372.922 194.66 373.805 195.809C374.695 196.957 375.141 198.555 375.141 200.602V200.801ZM372.973 200.555C372.973 199.125 372.668 197.996 372.059 197.168C371.449 196.34 370.613 195.926 369.551 195.926C368.238 195.926 367.254 196.508 366.598 197.672V203.73C367.246 204.887 368.238 205.465 369.574 205.465C370.613 205.465 371.438 205.055 372.047 204.234C372.664 203.406 372.973 202.18 372.973 200.555ZM377.332 200.543C377.332 199.301 377.574 198.184 378.059 197.191C378.551 196.199 379.23 195.434 380.098 194.895C380.973 194.355 381.969 194.086 383.086 194.086C384.812 194.086 386.207 194.684 387.27 195.879C388.34 197.074 388.875 198.664 388.875 200.648V200.801C388.875 202.035 388.637 203.145 388.16 204.129C387.691 205.105 387.016 205.867 386.133 206.414C385.258 206.961 384.25 207.234 383.109 207.234C381.391 207.234 379.996 206.637 378.926 205.441C377.863 204.246 377.332 202.664 377.332 200.695V200.543ZM379.512 200.801C379.512 202.207 379.836 203.336 380.484 204.188C381.141 205.039 382.016 205.465 383.109 205.465C384.211 205.465 385.086 205.035 385.734 204.176C386.383 203.309 386.707 202.098 386.707 200.543C386.707 199.152 386.375 198.027 385.711 197.168C385.055 196.301 384.18 195.867 383.086 195.867C382.016 195.867 381.152 196.293 380.496 197.145C379.84 197.996 379.512 199.215 379.512 200.801ZM397.723 196.266C397.395 196.211 397.039 196.184 396.656 196.184C395.234 196.184 394.27 196.789 393.762 198V207H391.594V194.32H393.703L393.738 195.785C394.449 194.652 395.457 194.086 396.762 194.086C397.184 194.086 397.504 194.141 397.723 194.25V196.266ZM403.254 191.25V194.32H405.621V195.996H403.254V203.859C403.254 204.367 403.359 204.75 403.57 205.008C403.781 205.258 404.141 205.383 404.648 205.383C404.898 205.383 405.242 205.336 405.68 205.242V207C405.109 207.156 404.555 207.234 404.016 207.234C403.047 207.234 402.316 206.941 401.824 206.355C401.332 205.77 401.086 204.938 401.086 203.859V195.996H398.777V194.32H401.086V191.25H403.254ZM410.52 207H408.352V194.32H410.52V207ZM408.176 190.957C408.176 190.605 408.281 190.309 408.492 190.066C408.711 189.824 409.031 189.703 409.453 189.703C409.875 189.703 410.195 189.824 410.414 190.066C410.633 190.309 410.742 190.605 410.742 190.957C410.742 191.309 410.633 191.602 410.414 191.836C410.195 192.07 409.875 192.188 409.453 192.188C409.031 192.188 408.711 192.07 408.492 191.836C408.281 191.602 408.176 191.309 408.176 190.957ZM416.051 194.32L416.121 195.914C417.09 194.695 418.355 194.086 419.918 194.086C422.598 194.086 423.949 195.598 423.973 198.621V207H421.805V198.609C421.797 197.695 421.586 197.02 421.172 196.582C420.766 196.145 420.129 195.926 419.262 195.926C418.559 195.926 417.941 196.113 417.41 196.488C416.879 196.863 416.465 197.355 416.168 197.965V207H414V194.32H416.051ZM426.727 200.555C426.727 198.578 427.184 197.008 428.098 195.844C429.012 194.672 430.223 194.086 431.73 194.086C433.277 194.086 434.484 194.633 435.352 195.727L435.457 194.32H437.438V206.695C437.438 208.336 436.949 209.629 435.973 210.574C435.004 211.52 433.699 211.992 432.059 211.992C431.145 211.992 430.25 211.797 429.375 211.406C428.5 211.016 427.832 210.48 427.371 209.801L428.496 208.5C429.426 209.648 430.562 210.223 431.906 210.223C432.961 210.223 433.781 209.926 434.367 209.332C434.961 208.738 435.258 207.902 435.258 206.824V205.734C434.391 206.734 433.207 207.234 431.707 207.234C430.223 207.234 429.02 206.637 428.098 205.441C427.184 204.246 426.727 202.617 426.727 200.555ZM428.906 200.801C428.906 202.23 429.199 203.355 429.785 204.176C430.371 204.988 431.191 205.395 432.246 205.395C433.613 205.395 434.617 204.773 435.258 203.531V197.742C434.594 196.531 433.598 195.926 432.27 195.926C431.215 195.926 430.391 196.336 429.797 197.156C429.203 197.977 428.906 199.191 428.906 200.801ZM454.055 203.637C454.055 203.051 453.832 202.598 453.387 202.277C452.949 201.949 452.18 201.668 451.078 201.434C449.984 201.199 449.113 200.918 448.465 200.59C447.824 200.262 447.348 199.871 447.035 199.418C446.73 198.965 446.578 198.426 446.578 197.801C446.578 196.762 447.016 195.883 447.891 195.164C448.773 194.445 449.898 194.086 451.266 194.086C452.703 194.086 453.867 194.457 454.758 195.199C455.656 195.941 456.105 196.891 456.105 198.047H453.926C453.926 197.453 453.672 196.941 453.164 196.512C452.664 196.082 452.031 195.867 451.266 195.867C450.477 195.867 449.859 196.039 449.414 196.383C448.969 196.727 448.746 197.176 448.746 197.73C448.746 198.254 448.953 198.648 449.367 198.914C449.781 199.18 450.527 199.434 451.605 199.676C452.691 199.918 453.57 200.207 454.242 200.543C454.914 200.879 455.41 201.285 455.73 201.762C456.059 202.23 456.223 202.805 456.223 203.484C456.223 204.617 455.77 205.527 454.863 206.215C453.957 206.895 452.781 207.234 451.336 207.234C450.32 207.234 449.422 207.055 448.641 206.695C447.859 206.336 447.246 205.836 446.801 205.195C446.363 204.547 446.145 203.848 446.145 203.098H448.312C448.352 203.824 448.641 204.402 449.18 204.832C449.727 205.254 450.445 205.465 451.336 205.465C452.156 205.465 452.812 205.301 453.305 204.973C453.805 204.637 454.055 204.191 454.055 203.637ZM463.195 203.824L466.148 194.32H468.469L463.371 208.957C462.582 211.066 461.328 212.121 459.609 212.121L459.199 212.086L458.391 211.934V210.176L458.977 210.223C459.711 210.223 460.281 210.074 460.688 209.777C461.102 209.48 461.441 208.938 461.707 208.148L462.188 206.859L457.664 194.32H460.031L463.195 203.824ZM477.797 203.637C477.797 203.051 477.574 202.598 477.129 202.277C476.691 201.949 475.922 201.668 474.82 201.434C473.727 201.199 472.855 200.918 472.207 200.59C471.566 200.262 471.09 199.871 470.777 199.418C470.473 198.965 470.32 198.426 470.32 197.801C470.32 196.762 470.758 195.883 471.633 195.164C472.516 194.445 473.641 194.086 475.008 194.086C476.445 194.086 477.609 194.457 478.5 195.199C479.398 195.941 479.848 196.891 479.848 198.047H477.668C477.668 197.453 477.414 196.941 476.906 196.512C476.406 196.082 475.773 195.867 475.008 195.867C474.219 195.867 473.602 196.039 473.156 196.383C472.711 196.727 472.488 197.176 472.488 197.73C472.488 198.254 472.695 198.648 473.109 198.914C473.523 199.18 474.27 199.434 475.348 199.676C476.434 199.918 477.312 200.207 477.984 200.543C478.656 200.879 479.152 201.285 479.473 201.762C479.801 202.23 479.965 202.805 479.965 203.484C479.965 204.617 479.512 205.527 478.605 206.215C477.699 206.895 476.523 207.234 475.078 207.234C474.062 207.234 473.164 207.055 472.383 206.695C471.602 206.336 470.988 205.836 470.543 205.195C470.105 204.547 469.887 203.848 469.887 203.098H472.055C472.094 203.824 472.383 204.402 472.922 204.832C473.469 205.254 474.188 205.465 475.078 205.465C475.898 205.465 476.555 205.301 477.047 204.973C477.547 204.637 477.797 204.191 477.797 203.637ZM485.73 191.25V194.32H488.098V195.996H485.73V203.859C485.73 204.367 485.836 204.75 486.047 205.008C486.258 205.258 486.617 205.383 487.125 205.383C487.375 205.383 487.719 205.336 488.156 205.242V207C487.586 207.156 487.031 207.234 486.492 207.234C485.523 207.234 484.793 206.941 484.301 206.355C483.809 205.77 483.562 204.938 483.562 203.859V195.996H481.254V194.32H483.562V191.25H485.73ZM495.902 207.234C494.184 207.234 492.785 206.672 491.707 205.547C490.629 204.414 490.09 202.902 490.09 201.012V200.613C490.09 199.355 490.328 198.234 490.805 197.25C491.289 196.258 491.961 195.484 492.82 194.93C493.688 194.367 494.625 194.086 495.633 194.086C497.281 194.086 498.562 194.629 499.477 195.715C500.391 196.801 500.848 198.355 500.848 200.379V201.281H492.258C492.289 202.531 492.652 203.543 493.348 204.316C494.051 205.082 494.941 205.465 496.02 205.465C496.785 205.465 497.434 205.309 497.965 204.996C498.496 204.684 498.961 204.27 499.359 203.754L500.684 204.785C499.621 206.418 498.027 207.234 495.902 207.234ZM495.633 195.867C494.758 195.867 494.023 196.188 493.43 196.828C492.836 197.461 492.469 198.352 492.328 199.5H498.68V199.336C498.617 198.234 498.32 197.383 497.789 196.781C497.258 196.172 496.539 195.867 495.633 195.867ZM505.406 194.32L505.465 195.727C506.395 194.633 507.648 194.086 509.227 194.086C511 194.086 512.207 194.766 512.848 196.125C513.27 195.516 513.816 195.023 514.488 194.648C515.168 194.273 515.969 194.086 516.891 194.086C519.672 194.086 521.086 195.559 521.133 198.504V207H518.965V198.633C518.965 197.727 518.758 197.051 518.344 196.605C517.93 196.152 517.234 195.926 516.258 195.926C515.453 195.926 514.785 196.168 514.254 196.652C513.723 197.129 513.414 197.773 513.328 198.586V207H511.148V198.691C511.148 196.848 510.246 195.926 508.441 195.926C507.02 195.926 506.047 196.531 505.523 197.742V207H503.355V194.32H505.406ZM538.195 205.746C537.352 206.738 536.113 207.234 534.48 207.234C533.129 207.234 532.098 206.844 531.387 206.062C530.684 205.273 530.328 204.109 530.32 202.57V194.32H532.488V202.512C532.488 204.434 533.27 205.395 534.832 205.395C536.488 205.395 537.59 204.777 538.137 203.543V194.32H540.305V207H538.242L538.195 205.746ZM545.66 194.32L545.73 195.914C546.699 194.695 547.965 194.086 549.527 194.086C552.207 194.086 553.559 195.598 553.582 198.621V207H551.414V198.609C551.406 197.695 551.195 197.02 550.781 196.582C550.375 196.145 549.738 195.926 548.871 195.926C548.168 195.926 547.551 196.113 547.02 196.488C546.488 196.863 546.074 197.355 545.777 197.965V207H543.609V194.32H545.66ZM559.793 191.25V194.32H562.16V195.996H559.793V203.859C559.793 204.367 559.898 204.75 560.109 205.008C560.32 205.258 560.68 205.383 561.188 205.383C561.438 205.383 561.781 205.336 562.219 205.242V207C561.648 207.156 561.094 207.234 560.555 207.234C559.586 207.234 558.855 206.941 558.363 206.355C557.871 205.77 557.625 204.938 557.625 203.859V195.996H555.316V194.32H557.625V191.25H559.793ZM572.531 205.746C571.688 206.738 570.449 207.234 568.816 207.234C567.465 207.234 566.434 206.844 565.723 206.062C565.02 205.273 564.664 204.109 564.656 202.57V194.32H566.824V202.512C566.824 204.434 567.605 205.395 569.168 205.395C570.824 205.395 571.926 204.777 572.473 203.543V194.32H574.641V207H572.578L572.531 205.746ZM581.484 201.129L580.125 202.547V207H577.957V189H580.125V199.887L581.285 198.492L585.234 194.32H587.871L582.938 199.617L588.445 207H585.902L581.484 201.129ZM599.602 201.129L598.242 202.547V207H596.074V189H598.242V199.887L599.402 198.492L603.352 194.32H605.988L601.055 199.617L606.562 207H604.02L599.602 201.129ZM610.582 207H608.414V194.32H610.582V207ZM608.238 190.957C608.238 190.605 608.344 190.309 608.555 190.066C608.773 189.824 609.094 189.703 609.516 189.703C609.938 189.703 610.258 189.824 610.477 190.066C610.695 190.309 610.805 190.605 610.805 190.957C610.805 191.309 610.695 191.602 610.477 191.836C610.258 192.07 609.938 192.188 609.516 192.188C609.094 192.188 608.773 192.07 608.555 191.836C608.344 191.602 608.238 191.309 608.238 190.957ZM617.004 191.25V194.32H619.371V195.996H617.004V203.859C617.004 204.367 617.109 204.75 617.32 205.008C617.531 205.258 617.891 205.383 618.398 205.383C618.648 205.383 618.992 205.336 619.43 205.242V207C618.859 207.156 618.305 207.234 617.766 207.234C616.797 207.234 616.066 206.941 615.574 206.355C615.082 205.77 614.836 204.938 614.836 203.859V195.996H612.527V194.32H614.836V191.25H617.004ZM629.742 207C629.617 206.75 629.516 206.305 629.438 205.664C628.43 206.711 627.227 207.234 625.828 207.234C624.578 207.234 623.551 206.883 622.746 206.18C621.949 205.469 621.551 204.57 621.551 203.484C621.551 202.164 622.051 201.141 623.051 200.414C624.059 199.68 625.473 199.312 627.293 199.312H629.402V198.316C629.402 197.559 629.176 196.957 628.723 196.512C628.27 196.059 627.602 195.832 626.719 195.832C625.945 195.832 625.297 196.027 624.773 196.418C624.25 196.809 623.988 197.281 623.988 197.836H621.809C621.809 197.203 622.031 196.594 622.477 196.008C622.93 195.414 623.539 194.945 624.305 194.602C625.078 194.258 625.926 194.086 626.848 194.086C628.309 194.086 629.453 194.453 630.281 195.188C631.109 195.914 631.539 196.918 631.57 198.199V204.035C631.57 205.199 631.719 206.125 632.016 206.812V207H629.742ZM626.145 205.348C626.824 205.348 627.469 205.172 628.078 204.82C628.688 204.469 629.129 204.012 629.402 203.449V200.848H627.703C625.047 200.848 623.719 201.625 623.719 203.18C623.719 203.859 623.945 204.391 624.398 204.773C624.852 205.156 625.434 205.348 626.145 205.348ZM640.395 200.555C640.395 198.609 640.855 197.047 641.777 195.867C642.699 194.68 643.906 194.086 645.398 194.086C646.883 194.086 648.059 194.594 648.926 195.609V189H651.094V207H649.102L648.996 205.641C648.129 206.703 646.922 207.234 645.375 207.234C643.906 207.234 642.707 206.633 641.777 205.43C640.855 204.227 640.395 202.656 640.395 200.719V200.555ZM642.562 200.801C642.562 202.238 642.859 203.363 643.453 204.176C644.047 204.988 644.867 205.395 645.914 205.395C647.289 205.395 648.293 204.777 648.926 203.543V197.719C648.277 196.523 647.281 195.926 645.938 195.926C644.875 195.926 644.047 196.336 643.453 197.156C642.859 197.977 642.562 199.191 642.562 200.801ZM662.297 207C662.172 206.75 662.07 206.305 661.992 205.664C660.984 206.711 659.781 207.234 658.383 207.234C657.133 207.234 656.105 206.883 655.301 206.18C654.504 205.469 654.105 204.57 654.105 203.484C654.105 202.164 654.605 201.141 655.605 200.414C656.613 199.68 658.027 199.312 659.848 199.312H661.957V198.316C661.957 197.559 661.73 196.957 661.277 196.512C660.824 196.059 660.156 195.832 659.273 195.832C658.5 195.832 657.852 196.027 657.328 196.418C656.805 196.809 656.543 197.281 656.543 197.836H654.363C654.363 197.203 654.586 196.594 655.031 196.008C655.484 195.414 656.094 194.945 656.859 194.602C657.633 194.258 658.48 194.086 659.402 194.086C660.863 194.086 662.008 194.453 662.836 195.188C663.664 195.914 664.094 196.918 664.125 198.199V204.035C664.125 205.199 664.273 206.125 664.57 206.812V207H662.297ZM658.699 205.348C659.379 205.348 660.023 205.172 660.633 204.82C661.242 204.469 661.684 204.012 661.957 203.449V200.848H660.258C657.602 200.848 656.273 201.625 656.273 203.18C656.273 203.859 656.5 204.391 656.953 204.773C657.406 205.156 657.988 205.348 658.699 205.348ZM669.879 207H667.711V189H669.879V207ZM681.188 207C681.062 206.75 680.961 206.305 680.883 205.664C679.875 206.711 678.672 207.234 677.273 207.234C676.023 207.234 674.996 206.883 674.191 206.18C673.395 205.469 672.996 204.57 672.996 203.484C672.996 202.164 673.496 201.141 674.496 200.414C675.504 199.68 676.918 199.312 678.738 199.312H680.848V198.316C680.848 197.559 680.621 196.957 680.168 196.512C679.715 196.059 679.047 195.832 678.164 195.832C677.391 195.832 676.742 196.027 676.219 196.418C675.695 196.809 675.434 197.281 675.434 197.836H673.254C673.254 197.203 673.477 196.594 673.922 196.008C674.375 195.414 674.984 194.945 675.75 194.602C676.523 194.258 677.371 194.086 678.293 194.086C679.754 194.086 680.898 194.453 681.727 195.188C682.555 195.914 682.984 196.918 683.016 198.199V204.035C683.016 205.199 683.164 206.125 683.461 206.812V207H681.188ZM677.59 205.348C678.27 205.348 678.914 205.172 679.523 204.82C680.133 204.469 680.574 204.012 680.848 203.449V200.848H679.148C676.492 200.848 675.164 201.625 675.164 203.18C675.164 203.859 675.391 204.391 675.844 204.773C676.297 205.156 676.879 205.348 677.59 205.348ZM688.453 194.32L688.512 195.727C689.441 194.633 690.695 194.086 692.273 194.086C694.047 194.086 695.254 194.766 695.895 196.125C696.316 195.516 696.863 195.023 697.535 194.648C698.215 194.273 699.016 194.086 699.938 194.086C702.719 194.086 704.133 195.559 704.18 198.504V207H702.012V198.633C702.012 197.727 701.805 197.051 701.391 196.605C700.977 196.152 700.281 195.926 699.305 195.926C698.5 195.926 697.832 196.168 697.301 196.652C696.77 197.129 696.461 197.773 696.375 198.586V207H694.195V198.691C694.195 196.848 693.293 195.926 691.488 195.926C690.066 195.926 689.094 196.531 688.57 197.742V207H686.402V194.32H688.453ZM715.453 194.32L715.512 195.727C716.441 194.633 717.695 194.086 719.273 194.086C721.047 194.086 722.254 194.766 722.895 196.125C723.316 195.516 723.863 195.023 724.535 194.648C725.215 194.273 726.016 194.086 726.938 194.086C729.719 194.086 731.133 195.559 731.18 198.504V207H729.012V198.633C729.012 197.727 728.805 197.051 728.391 196.605C727.977 196.152 727.281 195.926 726.305 195.926C725.5 195.926 724.832 196.168 724.301 196.652C723.77 197.129 723.461 197.773 723.375 198.586V207H721.195V198.691C721.195 196.848 720.293 195.926 718.488 195.926C717.066 195.926 716.094 196.531 715.57 197.742V207H713.402V194.32H715.453ZM739.723 207.234C738.004 207.234 736.605 206.672 735.527 205.547C734.449 204.414 733.91 202.902 733.91 201.012V200.613C733.91 199.355 734.148 198.234 734.625 197.25C735.109 196.258 735.781 195.484 736.641 194.93C737.508 194.367 738.445 194.086 739.453 194.086C741.102 194.086 742.383 194.629 743.297 195.715C744.211 196.801 744.668 198.355 744.668 200.379V201.281H736.078C736.109 202.531 736.473 203.543 737.168 204.316C737.871 205.082 738.762 205.465 739.84 205.465C740.605 205.465 741.254 205.309 741.785 204.996C742.316 204.684 742.781 204.27 743.18 203.754L744.504 204.785C743.441 206.418 741.848 207.234 739.723 207.234ZM739.453 195.867C738.578 195.867 737.844 196.188 737.25 196.828C736.656 197.461 736.289 198.352 736.148 199.5H742.5V199.336C742.438 198.234 742.141 197.383 741.609 196.781C741.078 196.172 740.359 195.867 739.453 195.867ZM749.238 194.32L749.309 195.914C750.277 194.695 751.543 194.086 753.105 194.086C755.785 194.086 757.137 195.598 757.16 198.621V207H754.992V198.609C754.984 197.695 754.773 197.02 754.359 196.582C753.953 196.145 753.316 195.926 752.449 195.926C751.746 195.926 751.129 196.113 750.598 196.488C750.066 196.863 749.652 197.355 749.355 197.965V207H747.188V194.32H749.238ZM762.668 194.32V208.465C762.668 210.902 761.562 212.121 759.352 212.121C758.875 212.121 758.434 212.051 758.027 211.91V210.176C758.277 210.238 758.605 210.27 759.012 210.27C759.496 210.27 759.863 210.137 760.113 209.871C760.371 209.613 760.5 209.16 760.5 208.512V194.32H762.668ZM760.277 190.957C760.277 190.613 760.383 190.32 760.594 190.078C760.812 189.828 761.129 189.703 761.543 189.703C761.965 189.703 762.285 189.824 762.504 190.066C762.723 190.309 762.832 190.605 762.832 190.957C762.832 191.309 762.723 191.602 762.504 191.836C762.285 192.07 761.965 192.188 761.543 192.188C761.121 192.188 760.805 192.07 760.594 191.836C760.383 191.602 760.277 191.309 760.277 190.957ZM774 207C773.875 206.75 773.773 206.305 773.695 205.664C772.688 206.711 771.484 207.234 770.086 207.234C768.836 207.234 767.809 206.883 767.004 206.18C766.207 205.469 765.809 204.57 765.809 203.484C765.809 202.164 766.309 201.141 767.309 200.414C768.316 199.68 769.73 199.312 771.551 199.312H773.66V198.316C773.66 197.559 773.434 196.957 772.98 196.512C772.527 196.059 771.859 195.832 770.977 195.832C770.203 195.832 769.555 196.027 769.031 196.418C768.508 196.809 768.246 197.281 768.246 197.836H766.066C766.066 197.203 766.289 196.594 766.734 196.008C767.188 195.414 767.797 194.945 768.562 194.602C769.336 194.258 770.184 194.086 771.105 194.086C772.566 194.086 773.711 194.453 774.539 195.188C775.367 195.914 775.797 196.918 775.828 198.199V204.035C775.828 205.199 775.977 206.125 776.273 206.812V207H774ZM770.402 205.348C771.082 205.348 771.727 205.172 772.336 204.82C772.945 204.469 773.387 204.012 773.66 203.449V200.848H771.961C769.305 200.848 767.977 201.625 767.977 203.18C767.977 203.859 768.203 204.391 768.656 204.773C769.109 205.156 769.691 205.348 770.402 205.348ZM781.582 207H779.414V189H781.582V207ZM792.891 207C792.766 206.75 792.664 206.305 792.586 205.664C791.578 206.711 790.375 207.234 788.977 207.234C787.727 207.234 786.699 206.883 785.895 206.18C785.098 205.469 784.699 204.57 784.699 203.484C784.699 202.164 785.199 201.141 786.199 200.414C787.207 199.68 788.621 199.312 790.441 199.312H792.551V198.316C792.551 197.559 792.324 196.957 791.871 196.512C791.418 196.059 790.75 195.832 789.867 195.832C789.094 195.832 788.445 196.027 787.922 196.418C787.398 196.809 787.137 197.281 787.137 197.836H784.957C784.957 197.203 785.18 196.594 785.625 196.008C786.078 195.414 786.688 194.945 787.453 194.602C788.227 194.258 789.074 194.086 789.996 194.086C791.457 194.086 792.602 194.453 793.43 195.188C794.258 195.914 794.688 196.918 794.719 198.199V204.035C794.719 205.199 794.867 206.125 795.164 206.812V207H792.891ZM789.293 205.348C789.973 205.348 790.617 205.172 791.227 204.82C791.836 204.469 792.277 204.012 792.551 203.449V200.848H790.852C788.195 200.848 786.867 201.625 786.867 203.18C786.867 203.859 787.094 204.391 787.547 204.773C788 205.156 788.582 205.348 789.293 205.348ZM800.168 194.32L800.238 195.914C801.207 194.695 802.473 194.086 804.035 194.086C806.715 194.086 808.066 195.598 808.09 198.621V207H805.922V198.609C805.914 197.695 805.703 197.02 805.289 196.582C804.883 196.145 804.246 195.926 803.379 195.926C802.676 195.926 802.059 196.113 801.527 196.488C800.996 196.863 800.582 197.355 800.285 197.965V207H798.117V194.32H800.168ZM814.898 201.129L813.539 202.547V207H811.371V189H813.539V199.887L814.699 198.492L818.648 194.32H821.285L816.352 199.617L821.859 207H819.316L814.898 201.129ZM831.352 207C831.227 206.75 831.125 206.305 831.047 205.664C830.039 206.711 828.836 207.234 827.438 207.234C826.188 207.234 825.16 206.883 824.355 206.18C823.559 205.469 823.16 204.57 823.16 203.484C823.16 202.164 823.66 201.141 824.66 200.414C825.668 199.68 827.082 199.312 828.902 199.312H831.012V198.316C831.012 197.559 830.785 196.957 830.332 196.512C829.879 196.059 829.211 195.832 828.328 195.832C827.555 195.832 826.906 196.027 826.383 196.418C825.859 196.809 825.598 197.281 825.598 197.836H823.418C823.418 197.203 823.641 196.594 824.086 196.008C824.539 195.414 825.148 194.945 825.914 194.602C826.688 194.258 827.535 194.086 828.457 194.086C829.918 194.086 831.062 194.453 831.891 195.188C832.719 195.914 833.148 196.918 833.18 198.199V204.035C833.18 205.199 833.328 206.125 833.625 206.812V207H831.352ZM827.754 205.348C828.434 205.348 829.078 205.172 829.688 204.82C830.297 204.469 830.738 204.012 831.012 203.449V200.848H829.312C826.656 200.848 825.328 201.625 825.328 203.18C825.328 203.859 825.555 204.391 826.008 204.773C826.461 205.156 827.043 205.348 827.754 205.348ZM838.629 194.32L838.699 195.914C839.668 194.695 840.934 194.086 842.496 194.086C845.176 194.086 846.527 195.598 846.551 198.621V207H844.383V198.609C844.375 197.695 844.164 197.02 843.75 196.582C843.344 196.145 842.707 195.926 841.84 195.926C841.137 195.926 840.52 196.113 839.988 196.488C839.457 196.863 839.043 197.355 838.746 197.965V207H836.578V194.32H838.629ZM863.156 203.637C863.156 203.051 862.934 202.598 862.488 202.277C862.051 201.949 861.281 201.668 860.18 201.434C859.086 201.199 858.215 200.918 857.566 200.59C856.926 200.262 856.449 199.871 856.137 199.418C855.832 198.965 855.68 198.426 855.68 197.801C855.68 196.762 856.117 195.883 856.992 195.164C857.875 194.445 859 194.086 860.367 194.086C861.805 194.086 862.969 194.457 863.859 195.199C864.758 195.941 865.207 196.891 865.207 198.047H863.027C863.027 197.453 862.773 196.941 862.266 196.512C861.766 196.082 861.133 195.867 860.367 195.867C859.578 195.867 858.961 196.039 858.516 196.383C858.07 196.727 857.848 197.176 857.848 197.73C857.848 198.254 858.055 198.648 858.469 198.914C858.883 199.18 859.629 199.434 860.707 199.676C861.793 199.918 862.672 200.207 863.344 200.543C864.016 200.879 864.512 201.285 864.832 201.762C865.16 202.23 865.324 202.805 865.324 203.484C865.324 204.617 864.871 205.527 863.965 206.215C863.059 206.895 861.883 207.234 860.438 207.234C859.422 207.234 858.523 207.055 857.742 206.695C856.961 206.336 856.348 205.836 855.902 205.195C855.465 204.547 855.246 203.848 855.246 203.098H857.414C857.453 203.824 857.742 204.402 858.281 204.832C858.828 205.254 859.547 205.465 860.438 205.465C861.258 205.465 861.914 205.301 862.406 204.973C862.906 204.637 863.156 204.191 863.156 203.637ZM873.41 207.234C871.691 207.234 870.293 206.672 869.215 205.547C868.137 204.414 867.598 202.902 867.598 201.012V200.613C867.598 199.355 867.836 198.234 868.312 197.25C868.797 196.258 869.469 195.484 870.328 194.93C871.195 194.367 872.133 194.086 873.141 194.086C874.789 194.086 876.07 194.629 876.984 195.715C877.898 196.801 878.355 198.355 878.355 200.379V201.281H869.766C869.797 202.531 870.16 203.543 870.855 204.316C871.559 205.082 872.449 205.465 873.527 205.465C874.293 205.465 874.941 205.309 875.473 204.996C876.004 204.684 876.469 204.27 876.867 203.754L878.191 204.785C877.129 206.418 875.535 207.234 873.41 207.234ZM873.141 195.867C872.266 195.867 871.531 196.188 870.938 196.828C870.344 197.461 869.977 198.352 869.836 199.5H876.188V199.336C876.125 198.234 875.828 197.383 875.297 196.781C874.766 196.172 874.047 195.867 873.141 195.867ZM883.816 191.25V194.32H886.184V195.996H883.816V203.859C883.816 204.367 883.922 204.75 884.133 205.008C884.344 205.258 884.703 205.383 885.211 205.383C885.461 205.383 885.805 205.336 886.242 205.242V207C885.672 207.156 885.117 207.234 884.578 207.234C883.609 207.234 882.879 206.941 882.387 206.355C881.895 205.77 881.648 204.938 881.648 203.859V195.996H879.34V194.32H881.648V191.25H883.816ZM891.082 207H888.914V194.32H891.082V207ZM888.738 190.957C888.738 190.605 888.844 190.309 889.055 190.066C889.273 189.824 889.594 189.703 890.016 189.703C890.438 189.703 890.758 189.824 890.977 190.066C891.195 190.309 891.305 190.605 891.305 190.957C891.305 191.309 891.195 191.602 890.977 191.836C890.758 192.07 890.438 192.188 890.016 192.188C889.594 192.188 889.273 192.07 889.055 191.836C888.844 191.602 888.738 191.309 888.738 190.957ZM902.391 207C902.266 206.75 902.164 206.305 902.086 205.664C901.078 206.711 899.875 207.234 898.477 207.234C897.227 207.234 896.199 206.883 895.395 206.18C894.598 205.469 894.199 204.57 894.199 203.484C894.199 202.164 894.699 201.141 895.699 200.414C896.707 199.68 898.121 199.312 899.941 199.312H902.051V198.316C902.051 197.559 901.824 196.957 901.371 196.512C900.918 196.059 900.25 195.832 899.367 195.832C898.594 195.832 897.945 196.027 897.422 196.418C896.898 196.809 896.637 197.281 896.637 197.836H894.457C894.457 197.203 894.68 196.594 895.125 196.008C895.578 195.414 896.188 194.945 896.953 194.602C897.727 194.258 898.574 194.086 899.496 194.086C900.957 194.086 902.102 194.453 902.93 195.188C903.758 195.914 904.188 196.918 904.219 198.199V204.035C904.219 205.199 904.367 206.125 904.664 206.812V207H902.391ZM898.793 205.348C899.473 205.348 900.117 205.172 900.727 204.82C901.336 204.469 901.777 204.012 902.051 203.449V200.848H900.352C897.695 200.848 896.367 201.625 896.367 203.18C896.367 203.859 896.594 204.391 897.047 204.773C897.5 205.156 898.082 205.348 898.793 205.348ZM918.328 200.801C918.328 202.73 917.887 204.285 917.004 205.465C916.121 206.645 914.926 207.234 913.418 207.234C911.879 207.234 910.668 206.746 909.785 205.77V211.875H907.617V194.32H909.598L909.703 195.727C910.586 194.633 911.812 194.086 913.383 194.086C914.906 194.086 916.109 194.66 916.992 195.809C917.883 196.957 918.328 198.555 918.328 200.602V200.801ZM916.16 200.555C916.16 199.125 915.855 197.996 915.246 197.168C914.637 196.34 913.801 195.926 912.738 195.926C911.426 195.926 910.441 196.508 909.785 197.672V203.73C910.434 204.887 911.426 205.465 912.762 205.465C913.801 205.465 914.625 205.055 915.234 204.234C915.852 203.406 916.16 202.18 916.16 200.555ZM51.7266 239.465C52.5 239.465 53.1758 239.23 53.7539 238.762C54.332 238.293 54.6523 237.707 54.7148 237.004H56.7656C56.7266 237.73 56.4766 238.422 56.0156 239.078C55.5547 239.734 54.9375 240.258 54.1641 240.648C53.3984 241.039 52.5859 241.234 51.7266 241.234C50 241.234 48.625 240.66 47.6016 239.512C46.5859 238.355 46.0781 236.777 46.0781 234.777V234.414C46.0781 233.18 46.3047 232.082 46.7578 231.121C47.2109 230.16 47.8594 229.414 48.7031 228.883C49.5547 228.352 50.5586 228.086 51.7148 228.086C53.1367 228.086 54.3164 228.512 55.2539 229.363C56.1992 230.215 56.7031 231.32 56.7656 232.68H54.7148C54.6523 231.859 54.3398 231.188 53.7773 230.664C53.2227 230.133 52.5352 229.867 51.7148 229.867C50.6133 229.867 49.7578 230.266 49.1484 231.062C48.5469 231.852 48.2461 232.996 48.2461 234.496V234.906C48.2461 236.367 48.5469 237.492 49.1484 238.281C49.75 239.07 50.6094 239.465 51.7266 239.465ZM61.3711 229.855C62.332 228.676 63.582 228.086 65.1211 228.086C67.8008 228.086 69.1523 229.598 69.1758 232.621V241H67.0078V232.609C67 231.695 66.7891 231.02 66.375 230.582C65.9688 230.145 65.332 229.926 64.4648 229.926C63.7617 229.926 63.1445 230.113 62.6133 230.488C62.082 230.863 61.668 231.355 61.3711 231.965V241H59.2031V223H61.3711V229.855ZM80.25 241C80.125 240.75 80.0234 240.305 79.9453 239.664C78.9375 240.711 77.7344 241.234 76.3359 241.234C75.0859 241.234 74.0586 240.883 73.2539 240.18C72.457 239.469 72.0586 238.57 72.0586 237.484C72.0586 236.164 72.5586 235.141 73.5586 234.414C74.5664 233.68 75.9805 233.312 77.8008 233.312H79.9102V232.316C79.9102 231.559 79.6836 230.957 79.2305 230.512C78.7773 230.059 78.1094 229.832 77.2266 229.832C76.4531 229.832 75.8047 230.027 75.2812 230.418C74.7578 230.809 74.4961 231.281 74.4961 231.836H72.3164C72.3164 231.203 72.5391 230.594 72.9844 230.008C73.4375 229.414 74.0469 228.945 74.8125 228.602C75.5859 228.258 76.4336 228.086 77.3555 228.086C78.8164 228.086 79.9609 228.453 80.7891 229.188C81.6172 229.914 82.0469 230.918 82.0781 232.199V238.035C82.0781 239.199 82.2266 240.125 82.5234 240.812V241H80.25ZM76.6523 239.348C77.332 239.348 77.9766 239.172 78.5859 238.82C79.1953 238.469 79.6367 238.012 79.9102 237.449V234.848H78.2109C75.5547 234.848 74.2266 235.625 74.2266 237.18C74.2266 237.859 74.4531 238.391 74.9062 238.773C75.3594 239.156 75.9414 239.348 76.6523 239.348ZM87.832 241H85.6641V223H87.832V241ZM93.668 241H91.5V223H93.668V241ZM102.41 241.234C100.691 241.234 99.293 240.672 98.2148 239.547C97.1367 238.414 96.5977 236.902 96.5977 235.012V234.613C96.5977 233.355 96.8359 232.234 97.3125 231.25C97.7969 230.258 98.4688 229.484 99.3281 228.93C100.195 228.367 101.133 228.086 102.141 228.086C103.789 228.086 105.07 228.629 105.984 229.715C106.898 230.801 107.355 232.355 107.355 234.379V235.281H98.7656C98.7969 236.531 99.1602 237.543 99.8555 238.316C100.559 239.082 101.449 239.465 102.527 239.465C103.293 239.465 103.941 239.309 104.473 238.996C105.004 238.684 105.469 238.27 105.867 237.754L107.191 238.785C106.129 240.418 104.535 241.234 102.41 241.234ZM102.141 229.867C101.266 229.867 100.531 230.188 99.9375 230.828C99.3438 231.461 98.9766 232.352 98.8359 233.5H105.188V233.336C105.125 232.234 104.828 231.383 104.297 230.781C103.766 230.172 103.047 229.867 102.141 229.867ZM111.926 228.32L111.996 229.914C112.965 228.695 114.23 228.086 115.793 228.086C118.473 228.086 119.824 229.598 119.848 232.621V241H117.68V232.609C117.672 231.695 117.461 231.02 117.047 230.582C116.641 230.145 116.004 229.926 115.137 229.926C114.434 229.926 113.816 230.113 113.285 230.488C112.754 230.863 112.34 231.355 112.043 231.965V241H109.875V228.32H111.926ZM122.602 234.555C122.602 232.578 123.059 231.008 123.973 229.844C124.887 228.672 126.098 228.086 127.605 228.086C129.152 228.086 130.359 228.633 131.227 229.727L131.332 228.32H133.312V240.695C133.312 242.336 132.824 243.629 131.848 244.574C130.879 245.52 129.574 245.992 127.934 245.992C127.02 245.992 126.125 245.797 125.25 245.406C124.375 245.016 123.707 244.48 123.246 243.801L124.371 242.5C125.301 243.648 126.438 244.223 127.781 244.223C128.836 244.223 129.656 243.926 130.242 243.332C130.836 242.738 131.133 241.902 131.133 240.824V239.734C130.266 240.734 129.082 241.234 127.582 241.234C126.098 241.234 124.895 240.637 123.973 239.441C123.059 238.246 122.602 236.617 122.602 234.555ZM124.781 234.801C124.781 236.23 125.074 237.355 125.66 238.176C126.246 238.988 127.066 239.395 128.121 239.395C129.488 239.395 130.492 238.773 131.133 237.531V231.742C130.469 230.531 129.473 229.926 128.145 229.926C127.09 229.926 126.266 230.336 125.672 231.156C125.078 231.977 124.781 233.191 124.781 234.801ZM141.855 241.234C140.137 241.234 138.738 240.672 137.66 239.547C136.582 238.414 136.043 236.902 136.043 235.012V234.613C136.043 233.355 136.281 232.234 136.758 231.25C137.242 230.258 137.914 229.484 138.773 228.93C139.641 228.367 140.578 228.086 141.586 228.086C143.234 228.086 144.516 228.629 145.43 229.715C146.344 230.801 146.801 232.355 146.801 234.379V235.281H138.211C138.242 236.531 138.605 237.543 139.301 238.316C140.004 239.082 140.895 239.465 141.973 239.465C142.738 239.465 143.387 239.309 143.918 238.996C144.449 238.684 144.914 238.27 145.312 237.754L146.637 238.785C145.574 240.418 143.98 241.234 141.855 241.234ZM141.586 229.867C140.711 229.867 139.977 230.188 139.383 230.828C138.789 231.461 138.422 232.352 138.281 233.5H144.633V233.336C144.57 232.234 144.273 231.383 143.742 230.781C143.211 230.172 142.492 229.867 141.586 229.867ZM162.656 237.637C162.656 237.051 162.434 236.598 161.988 236.277C161.551 235.949 160.781 235.668 159.68 235.434C158.586 235.199 157.715 234.918 157.066 234.59C156.426 234.262 155.949 233.871 155.637 233.418C155.332 232.965 155.18 232.426 155.18 231.801C155.18 230.762 155.617 229.883 156.492 229.164C157.375 228.445 158.5 228.086 159.867 228.086C161.305 228.086 162.469 228.457 163.359 229.199C164.258 229.941 164.707 230.891 164.707 232.047H162.527C162.527 231.453 162.273 230.941 161.766 230.512C161.266 230.082 160.633 229.867 159.867 229.867C159.078 229.867 158.461 230.039 158.016 230.383C157.57 230.727 157.348 231.176 157.348 231.73C157.348 232.254 157.555 232.648 157.969 232.914C158.383 233.18 159.129 233.434 160.207 233.676C161.293 233.918 162.172 234.207 162.844 234.543C163.516 234.879 164.012 235.285 164.332 235.762C164.66 236.23 164.824 236.805 164.824 237.484C164.824 238.617 164.371 239.527 163.465 240.215C162.559 240.895 161.383 241.234 159.938 241.234C158.922 241.234 158.023 241.055 157.242 240.695C156.461 240.336 155.848 239.836 155.402 239.195C154.965 238.547 154.746 237.848 154.746 237.098H156.914C156.953 237.824 157.242 238.402 157.781 238.832C158.328 239.254 159.047 239.465 159.938 239.465C160.758 239.465 161.414 239.301 161.906 238.973C162.406 238.637 162.656 238.191 162.656 237.637ZM172.91 241.234C171.191 241.234 169.793 240.672 168.715 239.547C167.637 238.414 167.098 236.902 167.098 235.012V234.613C167.098 233.355 167.336 232.234 167.812 231.25C168.297 230.258 168.969 229.484 169.828 228.93C170.695 228.367 171.633 228.086 172.641 228.086C174.289 228.086 175.57 228.629 176.484 229.715C177.398 230.801 177.855 232.355 177.855 234.379V235.281H169.266C169.297 236.531 169.66 237.543 170.355 238.316C171.059 239.082 171.949 239.465 173.027 239.465C173.793 239.465 174.441 239.309 174.973 238.996C175.504 238.684 175.969 238.27 176.367 237.754L177.691 238.785C176.629 240.418 175.035 241.234 172.91 241.234ZM172.641 229.867C171.766 229.867 171.031 230.188 170.438 230.828C169.844 231.461 169.477 232.352 169.336 233.5H175.688V233.336C175.625 232.234 175.328 231.383 174.797 230.781C174.266 230.172 173.547 229.867 172.641 229.867ZM182.73 241H180.562V223H182.73V241ZM194.039 241C193.914 240.75 193.812 240.305 193.734 239.664C192.727 240.711 191.523 241.234 190.125 241.234C188.875 241.234 187.848 240.883 187.043 240.18C186.246 239.469 185.848 238.57 185.848 237.484C185.848 236.164 186.348 235.141 187.348 234.414C188.355 233.68 189.77 233.312 191.59 233.312H193.699V232.316C193.699 231.559 193.473 230.957 193.02 230.512C192.566 230.059 191.898 229.832 191.016 229.832C190.242 229.832 189.594 230.027 189.07 230.418C188.547 230.809 188.285 231.281 188.285 231.836H186.105C186.105 231.203 186.328 230.594 186.773 230.008C187.227 229.414 187.836 228.945 188.602 228.602C189.375 228.258 190.223 228.086 191.145 228.086C192.605 228.086 193.75 228.453 194.578 229.188C195.406 229.914 195.836 230.918 195.867 232.199V238.035C195.867 239.199 196.016 240.125 196.312 240.812V241H194.039ZM190.441 239.348C191.121 239.348 191.766 239.172 192.375 238.82C192.984 238.469 193.426 238.012 193.699 237.449V234.848H192C189.344 234.848 188.016 235.625 188.016 237.18C188.016 237.859 188.242 238.391 188.695 238.773C189.148 239.156 189.73 239.348 190.441 239.348ZM201.305 228.32L201.363 229.727C202.293 228.633 203.547 228.086 205.125 228.086C206.898 228.086 208.105 228.766 208.746 230.125C209.168 229.516 209.715 229.023 210.387 228.648C211.066 228.273 211.867 228.086 212.789 228.086C215.57 228.086 216.984 229.559 217.031 232.504V241H214.863V232.633C214.863 231.727 214.656 231.051 214.242 230.605C213.828 230.152 213.133 229.926 212.156 229.926C211.352 229.926 210.684 230.168 210.152 230.652C209.621 231.129 209.312 231.773 209.227 232.586V241H207.047V232.691C207.047 230.848 206.145 229.926 204.34 229.926C202.918 229.926 201.945 230.531 201.422 231.742V241H199.254V228.32H201.305ZM228.141 241C228.016 240.75 227.914 240.305 227.836 239.664C226.828 240.711 225.625 241.234 224.227 241.234C222.977 241.234 221.949 240.883 221.145 240.18C220.348 239.469 219.949 238.57 219.949 237.484C219.949 236.164 220.449 235.141 221.449 234.414C222.457 233.68 223.871 233.312 225.691 233.312H227.801V232.316C227.801 231.559 227.574 230.957 227.121 230.512C226.668 230.059 226 229.832 225.117 229.832C224.344 229.832 223.695 230.027 223.172 230.418C222.648 230.809 222.387 231.281 222.387 231.836H220.207C220.207 231.203 220.43 230.594 220.875 230.008C221.328 229.414 221.938 228.945 222.703 228.602C223.477 228.258 224.324 228.086 225.246 228.086C226.707 228.086 227.852 228.453 228.68 229.188C229.508 229.914 229.938 230.918 229.969 232.199V238.035C229.969 239.199 230.117 240.125 230.414 240.812V241H228.141ZM224.543 239.348C225.223 239.348 225.867 239.172 226.477 238.82C227.086 238.469 227.527 238.012 227.801 237.449V234.848H226.102C223.445 234.848 222.117 235.625 222.117 237.18C222.117 237.859 222.344 238.391 222.797 238.773C223.25 239.156 223.832 239.348 224.543 239.348ZM246.703 237.637C246.703 237.051 246.48 236.598 246.035 236.277C245.598 235.949 244.828 235.668 243.727 235.434C242.633 235.199 241.762 234.918 241.113 234.59C240.473 234.262 239.996 233.871 239.684 233.418C239.379 232.965 239.227 232.426 239.227 231.801C239.227 230.762 239.664 229.883 240.539 229.164C241.422 228.445 242.547 228.086 243.914 228.086C245.352 228.086 246.516 228.457 247.406 229.199C248.305 229.941 248.754 230.891 248.754 232.047H246.574C246.574 231.453 246.32 230.941 245.812 230.512C245.312 230.082 244.68 229.867 243.914 229.867C243.125 229.867 242.508 230.039 242.062 230.383C241.617 230.727 241.395 231.176 241.395 231.73C241.395 232.254 241.602 232.648 242.016 232.914C242.43 233.18 243.176 233.434 244.254 233.676C245.34 233.918 246.219 234.207 246.891 234.543C247.562 234.879 248.059 235.285 248.379 235.762C248.707 236.23 248.871 236.805 248.871 237.484C248.871 238.617 248.418 239.527 247.512 240.215C246.605 240.895 245.43 241.234 243.984 241.234C242.969 241.234 242.07 241.055 241.289 240.695C240.508 240.336 239.895 239.836 239.449 239.195C239.012 238.547 238.793 237.848 238.793 237.098H240.961C241 237.824 241.289 238.402 241.828 238.832C242.375 239.254 243.094 239.465 243.984 239.465C244.805 239.465 245.461 239.301 245.953 238.973C246.453 238.637 246.703 238.191 246.703 237.637ZM259.523 241C259.398 240.75 259.297 240.305 259.219 239.664C258.211 240.711 257.008 241.234 255.609 241.234C254.359 241.234 253.332 240.883 252.527 240.18C251.73 239.469 251.332 238.57 251.332 237.484C251.332 236.164 251.832 235.141 252.832 234.414C253.84 233.68 255.254 233.312 257.074 233.312H259.184V232.316C259.184 231.559 258.957 230.957 258.504 230.512C258.051 230.059 257.383 229.832 256.5 229.832C255.727 229.832 255.078 230.027 254.555 230.418C254.031 230.809 253.77 231.281 253.77 231.836H251.59C251.59 231.203 251.812 230.594 252.258 230.008C252.711 229.414 253.32 228.945 254.086 228.602C254.859 228.258 255.707 228.086 256.629 228.086C258.09 228.086 259.234 228.453 260.062 229.188C260.891 229.914 261.32 230.918 261.352 232.199V238.035C261.352 239.199 261.5 240.125 261.797 240.812V241H259.523ZM255.926 239.348C256.605 239.348 257.25 239.172 257.859 238.82C258.469 238.469 258.91 238.012 259.184 237.449V234.848H257.484C254.828 234.848 253.5 235.625 253.5 237.18C253.5 237.859 253.727 238.391 254.18 238.773C254.633 239.156 255.215 239.348 255.926 239.348ZM267.691 225.25V228.32H270.059V229.996H267.691V237.859C267.691 238.367 267.797 238.75 268.008 239.008C268.219 239.258 268.578 239.383 269.086 239.383C269.336 239.383 269.68 239.336 270.117 239.242V241C269.547 241.156 268.992 241.234 268.453 241.234C267.484 241.234 266.754 240.941 266.262 240.355C265.77 239.77 265.523 238.938 265.523 237.859V229.996H263.215V228.32H265.523V225.25H267.691ZM280.43 239.746C279.586 240.738 278.348 241.234 276.715 241.234C275.363 241.234 274.332 240.844 273.621 240.062C272.918 239.273 272.562 238.109 272.555 236.57V228.32H274.723V236.512C274.723 238.434 275.504 239.395 277.066 239.395C278.723 239.395 279.824 238.777 280.371 237.543V228.32H282.539V241H280.477L280.43 239.746ZM302.508 234.801C302.508 236.73 302.066 238.285 301.184 239.465C300.301 240.645 299.105 241.234 297.598 241.234C296.059 241.234 294.848 240.746 293.965 239.77V245.875H291.797V228.32H293.777L293.883 229.727C294.766 228.633 295.992 228.086 297.562 228.086C299.086 228.086 300.289 228.66 301.172 229.809C302.062 230.957 302.508 232.555 302.508 234.602V234.801ZM300.34 234.555C300.34 233.125 300.035 231.996 299.426 231.168C298.816 230.34 297.98 229.926 296.918 229.926C295.605 229.926 294.621 230.508 293.965 231.672V237.73C294.613 238.887 295.605 239.465 296.941 239.465C297.98 239.465 298.805 239.055 299.414 238.234C300.031 237.406 300.34 236.18 300.34 234.555ZM310.535 241.234C308.816 241.234 307.418 240.672 306.34 239.547C305.262 238.414 304.723 236.902 304.723 235.012V234.613C304.723 233.355 304.961 232.234 305.438 231.25C305.922 230.258 306.594 229.484 307.453 228.93C308.32 228.367 309.258 228.086 310.266 228.086C311.914 228.086 313.195 228.629 314.109 229.715C315.023 230.801 315.48 232.355 315.48 234.379V235.281H306.891C306.922 236.531 307.285 237.543 307.98 238.316C308.684 239.082 309.574 239.465 310.652 239.465C311.418 239.465 312.066 239.309 312.598 238.996C313.129 238.684 313.594 238.27 313.992 237.754L315.316 238.785C314.254 240.418 312.66 241.234 310.535 241.234ZM310.266 229.867C309.391 229.867 308.656 230.188 308.062 230.828C307.469 231.461 307.102 232.352 306.961 233.5H313.312V233.336C313.25 232.234 312.953 231.383 312.422 230.781C311.891 230.172 311.172 229.867 310.266 229.867ZM324.129 230.266C323.801 230.211 323.445 230.184 323.062 230.184C321.641 230.184 320.676 230.789 320.168 232V241H318V228.32H320.109L320.145 229.785C320.855 228.652 321.863 228.086 323.168 228.086C323.59 228.086 323.91 228.141 324.129 228.25V230.266ZM328.488 241H326.32V228.32H328.488V241ZM326.145 224.957C326.145 224.605 326.25 224.309 326.461 224.066C326.68 223.824 327 223.703 327.422 223.703C327.844 223.703 328.164 223.824 328.383 224.066C328.602 224.309 328.711 224.605 328.711 224.957C328.711 225.309 328.602 225.602 328.383 225.836C328.164 226.07 327.844 226.188 327.422 226.188C327 226.188 326.68 226.07 326.461 225.836C326.25 225.602 326.145 225.309 326.145 224.957ZM331.395 234.543C331.395 233.301 331.637 232.184 332.121 231.191C332.613 230.199 333.293 229.434 334.16 228.895C335.035 228.355 336.031 228.086 337.148 228.086C338.875 228.086 340.27 228.684 341.332 229.879C342.402 231.074 342.938 232.664 342.938 234.648V234.801C342.938 236.035 342.699 237.145 342.223 238.129C341.754 239.105 341.078 239.867 340.195 240.414C339.32 240.961 338.312 241.234 337.172 241.234C335.453 241.234 334.059 240.637 332.988 239.441C331.926 238.246 331.395 236.664 331.395 234.695V234.543ZM333.574 234.801C333.574 236.207 333.898 237.336 334.547 238.188C335.203 239.039 336.078 239.465 337.172 239.465C338.273 239.465 339.148 239.035 339.797 238.176C340.445 237.309 340.77 236.098 340.77 234.543C340.77 233.152 340.438 232.027 339.773 231.168C339.117 230.301 338.242 229.867 337.148 229.867C336.078 229.867 335.215 230.293 334.559 231.145C333.902 231.996 333.574 233.215 333.574 234.801ZM345.129 234.555C345.129 232.609 345.59 231.047 346.512 229.867C347.434 228.68 348.641 228.086 350.133 228.086C351.617 228.086 352.793 228.594 353.66 229.609V223H355.828V241H353.836L353.73 239.641C352.863 240.703 351.656 241.234 350.109 241.234C348.641 241.234 347.441 240.633 346.512 239.43C345.59 238.227 345.129 236.656 345.129 234.719V234.555ZM347.297 234.801C347.297 236.238 347.594 237.363 348.188 238.176C348.781 238.988 349.602 239.395 350.648 239.395C352.023 239.395 353.027 238.777 353.66 237.543V231.719C353.012 230.523 352.016 229.926 350.672 229.926C349.609 229.926 348.781 230.336 348.188 231.156C347.594 231.977 347.297 233.191 347.297 234.801ZM364.465 241.234C362.746 241.234 361.348 240.672 360.27 239.547C359.191 238.414 358.652 236.902 358.652 235.012V234.613C358.652 233.355 358.891 232.234 359.367 231.25C359.852 230.258 360.523 229.484 361.383 228.93C362.25 228.367 363.188 228.086 364.195 228.086C365.844 228.086 367.125 228.629 368.039 229.715C368.953 230.801 369.41 232.355 369.41 234.379V235.281H360.82C360.852 236.531 361.215 237.543 361.91 238.316C362.613 239.082 363.504 239.465 364.582 239.465C365.348 239.465 365.996 239.309 366.527 238.996C367.059 238.684 367.523 238.27 367.922 237.754L369.246 238.785C368.184 240.418 366.59 241.234 364.465 241.234ZM364.195 229.867C363.32 229.867 362.586 230.188 361.992 230.828C361.398 231.461 361.031 232.352 360.891 233.5H367.242V233.336C367.18 232.234 366.883 231.383 366.352 230.781C365.82 230.172 365.102 229.867 364.195 229.867ZM381.422 235.129L380.062 236.547V241H377.895V223H380.062V233.887L381.223 232.492L385.172 228.32H387.809L382.875 233.617L388.383 241H385.84L381.422 235.129ZM395.074 241.234C393.355 241.234 391.957 240.672 390.879 239.547C389.801 238.414 389.262 236.902 389.262 235.012V234.613C389.262 233.355 389.5 232.234 389.977 231.25C390.461 230.258 391.133 229.484 391.992 228.93C392.859 228.367 393.797 228.086 394.805 228.086C396.453 228.086 397.734 228.629 398.648 229.715C399.562 230.801 400.02 232.355 400.02 234.379V235.281H391.43C391.461 236.531 391.824 237.543 392.52 238.316C393.223 239.082 394.113 239.465 395.191 239.465C395.957 239.465 396.605 239.309 397.137 238.996C397.668 238.684 398.133 238.27 398.531 237.754L399.855 238.785C398.793 240.418 397.199 241.234 395.074 241.234ZM394.805 229.867C393.93 229.867 393.195 230.188 392.602 230.828C392.008 231.461 391.641 232.352 391.5 233.5H397.852V233.336C397.789 232.234 397.492 231.383 396.961 230.781C396.43 230.172 395.711 229.867 394.805 229.867ZM402.012 234.555C402.012 232.609 402.473 231.047 403.395 229.867C404.316 228.68 405.523 228.086 407.016 228.086C408.5 228.086 409.676 228.594 410.543 229.609V223H412.711V241H410.719L410.613 239.641C409.746 240.703 408.539 241.234 406.992 241.234C405.523 241.234 404.324 240.633 403.395 239.43C402.473 238.227 402.012 236.656 402.012 234.719V234.555ZM404.18 234.801C404.18 236.238 404.477 237.363 405.07 238.176C405.664 238.988 406.484 239.395 407.531 239.395C408.906 239.395 409.91 238.777 410.543 237.543V231.719C409.895 230.523 408.898 229.926 407.555 229.926C406.492 229.926 405.664 230.336 405.07 231.156C404.477 231.977 404.18 233.191 404.18 234.801ZM421.348 241.234C419.629 241.234 418.23 240.672 417.152 239.547C416.074 238.414 415.535 236.902 415.535 235.012V234.613C415.535 233.355 415.773 232.234 416.25 231.25C416.734 230.258 417.406 229.484 418.266 228.93C419.133 228.367 420.07 228.086 421.078 228.086C422.727 228.086 424.008 228.629 424.922 229.715C425.836 230.801 426.293 232.355 426.293 234.379V235.281H417.703C417.734 236.531 418.098 237.543 418.793 238.316C419.496 239.082 420.387 239.465 421.465 239.465C422.23 239.465 422.879 239.309 423.41 238.996C423.941 238.684 424.406 238.27 424.805 237.754L426.129 238.785C425.066 240.418 423.473 241.234 421.348 241.234ZM421.078 229.867C420.203 229.867 419.469 230.188 418.875 230.828C418.281 231.461 417.914 232.352 417.773 233.5H424.125V233.336C424.062 232.234 423.766 231.383 423.234 230.781C422.703 230.172 421.984 229.867 421.078 229.867ZM439.523 234.801C439.523 236.73 439.082 238.285 438.199 239.465C437.316 240.645 436.121 241.234 434.613 241.234C433.074 241.234 431.863 240.746 430.98 239.77V245.875H428.812V228.32H430.793L430.898 229.727C431.781 228.633 433.008 228.086 434.578 228.086C436.102 228.086 437.305 228.66 438.188 229.809C439.078 230.957 439.523 232.555 439.523 234.602V234.801ZM437.355 234.555C437.355 233.125 437.051 231.996 436.441 231.168C435.832 230.34 434.996 229.926 433.934 229.926C432.621 229.926 431.637 230.508 430.98 231.672V237.73C431.629 238.887 432.621 239.465 433.957 239.465C434.996 239.465 435.82 239.055 436.43 238.234C437.047 237.406 437.355 236.18 437.355 234.555ZM450.117 241C449.992 240.75 449.891 240.305 449.812 239.664C448.805 240.711 447.602 241.234 446.203 241.234C444.953 241.234 443.926 240.883 443.121 240.18C442.324 239.469 441.926 238.57 441.926 237.484C441.926 236.164 442.426 235.141 443.426 234.414C444.434 233.68 445.848 233.312 447.668 233.312H449.777V232.316C449.777 231.559 449.551 230.957 449.098 230.512C448.645 230.059 447.977 229.832 447.094 229.832C446.32 229.832 445.672 230.027 445.148 230.418C444.625 230.809 444.363 231.281 444.363 231.836H442.184C442.184 231.203 442.406 230.594 442.852 230.008C443.305 229.414 443.914 228.945 444.68 228.602C445.453 228.258 446.301 228.086 447.223 228.086C448.684 228.086 449.828 228.453 450.656 229.188C451.484 229.914 451.914 230.918 451.945 232.199V238.035C451.945 239.199 452.094 240.125 452.391 240.812V241H450.117ZM446.52 239.348C447.199 239.348 447.844 239.172 448.453 238.82C449.062 238.469 449.504 238.012 449.777 237.449V234.848H448.078C445.422 234.848 444.094 235.625 444.094 237.18C444.094 237.859 444.32 238.391 444.773 238.773C445.227 239.156 445.809 239.348 446.52 239.348ZM457.395 228.32L457.465 229.914C458.434 228.695 459.699 228.086 461.262 228.086C463.941 228.086 465.293 229.598 465.316 232.621V241H463.148V232.609C463.141 231.695 462.93 231.02 462.516 230.582C462.109 230.145 461.473 229.926 460.605 229.926C459.902 229.926 459.285 230.113 458.754 230.488C458.223 230.863 457.809 231.355 457.512 231.965V241H455.344V228.32H457.395ZM474.012 234.555C474.012 232.609 474.473 231.047 475.395 229.867C476.316 228.68 477.523 228.086 479.016 228.086C480.5 228.086 481.676 228.594 482.543 229.609V223H484.711V241H482.719L482.613 239.641C481.746 240.703 480.539 241.234 478.992 241.234C477.523 241.234 476.324 240.633 475.395 239.43C474.473 238.227 474.012 236.656 474.012 234.719V234.555ZM476.18 234.801C476.18 236.238 476.477 237.363 477.07 238.176C477.664 238.988 478.484 239.395 479.531 239.395C480.906 239.395 481.91 238.777 482.543 237.543V231.719C481.895 230.523 480.898 229.926 479.555 229.926C478.492 229.926 477.664 230.336 477.07 231.156C476.477 231.977 476.18 233.191 476.18 234.801ZM495.914 241C495.789 240.75 495.688 240.305 495.609 239.664C494.602 240.711 493.398 241.234 492 241.234C490.75 241.234 489.723 240.883 488.918 240.18C488.121 239.469 487.723 238.57 487.723 237.484C487.723 236.164 488.223 235.141 489.223 234.414C490.23 233.68 491.645 233.312 493.465 233.312H495.574V232.316C495.574 231.559 495.348 230.957 494.895 230.512C494.441 230.059 493.773 229.832 492.891 229.832C492.117 229.832 491.469 230.027 490.945 230.418C490.422 230.809 490.16 231.281 490.16 231.836H487.98C487.98 231.203 488.203 230.594 488.648 230.008C489.102 229.414 489.711 228.945 490.477 228.602C491.25 228.258 492.098 228.086 493.02 228.086C494.48 228.086 495.625 228.453 496.453 229.188C497.281 229.914 497.711 230.918 497.742 232.199V238.035C497.742 239.199 497.891 240.125 498.188 240.812V241H495.914ZM492.316 239.348C492.996 239.348 493.641 239.172 494.25 238.82C494.859 238.469 495.301 238.012 495.574 237.449V234.848H493.875C491.219 234.848 489.891 235.625 489.891 237.18C489.891 237.859 490.117 238.391 490.57 238.773C491.023 239.156 491.605 239.348 492.316 239.348ZM503.496 241H501.328V223H503.496V241ZM514.805 241C514.68 240.75 514.578 240.305 514.5 239.664C513.492 240.711 512.289 241.234 510.891 241.234C509.641 241.234 508.613 240.883 507.809 240.18C507.012 239.469 506.613 238.57 506.613 237.484C506.613 236.164 507.113 235.141 508.113 234.414C509.121 233.68 510.535 233.312 512.355 233.312H514.465V232.316C514.465 231.559 514.238 230.957 513.785 230.512C513.332 230.059 512.664 229.832 511.781 229.832C511.008 229.832 510.359 230.027 509.836 230.418C509.312 230.809 509.051 231.281 509.051 231.836H506.871C506.871 231.203 507.094 230.594 507.539 230.008C507.992 229.414 508.602 228.945 509.367 228.602C510.141 228.258 510.988 228.086 511.91 228.086C513.371 228.086 514.516 228.453 515.344 229.188C516.172 229.914 516.602 230.918 516.633 232.199V238.035C516.633 239.199 516.781 240.125 517.078 240.812V241H514.805ZM511.207 239.348C511.887 239.348 512.531 239.172 513.141 238.82C513.75 238.469 514.191 238.012 514.465 237.449V234.848H512.766C510.109 234.848 508.781 235.625 508.781 237.18C508.781 237.859 509.008 238.391 509.461 238.773C509.914 239.156 510.496 239.348 511.207 239.348ZM522.07 228.32L522.129 229.727C523.059 228.633 524.312 228.086 525.891 228.086C527.664 228.086 528.871 228.766 529.512 230.125C529.934 229.516 530.48 229.023 531.152 228.648C531.832 228.273 532.633 228.086 533.555 228.086C536.336 228.086 537.75 229.559 537.797 232.504V241H535.629V232.633C535.629 231.727 535.422 231.051 535.008 230.605C534.594 230.152 533.898 229.926 532.922 229.926C532.117 229.926 531.449 230.168 530.918 230.652C530.387 231.129 530.078 231.773 529.992 232.586V241H527.812V232.691C527.812 230.848 526.91 229.926 525.105 229.926C523.684 229.926 522.711 230.531 522.188 231.742V241H520.02V228.32H522.07ZM549.07 228.32L549.129 229.727C550.059 228.633 551.312 228.086 552.891 228.086C554.664 228.086 555.871 228.766 556.512 230.125C556.934 229.516 557.48 229.023 558.152 228.648C558.832 228.273 559.633 228.086 560.555 228.086C563.336 228.086 564.75 229.559 564.797 232.504V241H562.629V232.633C562.629 231.727 562.422 231.051 562.008 230.605C561.594 230.152 560.898 229.926 559.922 229.926C559.117 229.926 558.449 230.168 557.918 230.652C557.387 231.129 557.078 231.773 556.992 232.586V241H554.812V232.691C554.812 230.848 553.91 229.926 552.105 229.926C550.684 229.926 549.711 230.531 549.188 231.742V241H547.02V228.32H549.07ZM573.34 241.234C571.621 241.234 570.223 240.672 569.145 239.547C568.066 238.414 567.527 236.902 567.527 235.012V234.613C567.527 233.355 567.766 232.234 568.242 231.25C568.727 230.258 569.398 229.484 570.258 228.93C571.125 228.367 572.062 228.086 573.07 228.086C574.719 228.086 576 228.629 576.914 229.715C577.828 230.801 578.285 232.355 578.285 234.379V235.281H569.695C569.727 236.531 570.09 237.543 570.785 238.316C571.488 239.082 572.379 239.465 573.457 239.465C574.223 239.465 574.871 239.309 575.402 238.996C575.934 238.684 576.398 238.27 576.797 237.754L578.121 238.785C577.059 240.418 575.465 241.234 573.34 241.234ZM573.07 229.867C572.195 229.867 571.461 230.188 570.867 230.828C570.273 231.461 569.906 232.352 569.766 233.5H576.117V233.336C576.055 232.234 575.758 231.383 575.227 230.781C574.695 230.172 573.977 229.867 573.07 229.867ZM586.934 230.266C586.605 230.211 586.25 230.184 585.867 230.184C584.445 230.184 583.48 230.789 582.973 232V241H580.805V228.32H582.914L582.949 229.785C583.66 228.652 584.668 228.086 585.973 228.086C586.395 228.086 586.715 228.141 586.934 228.25V230.266ZM591.293 241H589.125V228.32H591.293V241ZM588.949 224.957C588.949 224.605 589.055 224.309 589.266 224.066C589.484 223.824 589.805 223.703 590.227 223.703C590.648 223.703 590.969 223.824 591.188 224.066C591.406 224.309 591.516 224.605 591.516 224.957C591.516 225.309 591.406 225.602 591.188 225.836C590.969 226.07 590.648 226.188 590.227 226.188C589.805 226.188 589.484 226.07 589.266 225.836C589.055 225.602 588.949 225.309 588.949 224.957ZM596.824 228.32L596.895 229.914C597.863 228.695 599.129 228.086 600.691 228.086C603.371 228.086 604.723 229.598 604.746 232.621V241H602.578V232.609C602.57 231.695 602.359 231.02 601.945 230.582C601.539 230.145 600.902 229.926 600.035 229.926C599.332 229.926 598.715 230.113 598.184 230.488C597.652 230.863 597.238 231.355 596.941 231.965V241H594.773V228.32H596.824ZM610.957 225.25V228.32H613.324V229.996H610.957V237.859C610.957 238.367 611.062 238.75 611.273 239.008C611.484 239.258 611.844 239.383 612.352 239.383C612.602 239.383 612.945 239.336 613.383 239.242V241C612.812 241.156 612.258 241.234 611.719 241.234C610.75 241.234 610.02 240.941 609.527 240.355C609.035 239.77 608.789 238.938 608.789 237.859V229.996H606.48V228.32H608.789V225.25H610.957ZM618.223 241H616.055V228.32H618.223V241ZM615.879 224.957C615.879 224.605 615.984 224.309 616.195 224.066C616.414 223.824 616.734 223.703 617.156 223.703C617.578 223.703 617.898 223.824 618.117 224.066C618.336 224.309 618.445 224.605 618.445 224.957C618.445 225.309 618.336 225.602 618.117 225.836C617.898 226.07 617.578 226.188 617.156 226.188C616.734 226.188 616.414 226.07 616.195 225.836C615.984 225.602 615.879 225.309 615.879 224.957ZM629.086 237.637C629.086 237.051 628.863 236.598 628.418 236.277C627.98 235.949 627.211 235.668 626.109 235.434C625.016 235.199 624.145 234.918 623.496 234.59C622.855 234.262 622.379 233.871 622.066 233.418C621.762 232.965 621.609 232.426 621.609 231.801C621.609 230.762 622.047 229.883 622.922 229.164C623.805 228.445 624.93 228.086 626.297 228.086C627.734 228.086 628.898 228.457 629.789 229.199C630.688 229.941 631.137 230.891 631.137 232.047H628.957C628.957 231.453 628.703 230.941 628.195 230.512C627.695 230.082 627.062 229.867 626.297 229.867C625.508 229.867 624.891 230.039 624.445 230.383C624 230.727 623.777 231.176 623.777 231.73C623.777 232.254 623.984 232.648 624.398 232.914C624.812 233.18 625.559 233.434 626.637 233.676C627.723 233.918 628.602 234.207 629.273 234.543C629.945 234.879 630.441 235.285 630.762 235.762C631.09 236.23 631.254 236.805 631.254 237.484C631.254 238.617 630.801 239.527 629.895 240.215C628.988 240.895 627.812 241.234 626.367 241.234C625.352 241.234 624.453 241.055 623.672 240.695C622.891 240.336 622.277 239.836 621.832 239.195C621.395 238.547 621.176 237.848 621.176 237.098H623.344C623.383 237.824 623.672 238.402 624.211 238.832C624.758 239.254 625.477 239.465 626.367 239.465C627.188 239.465 627.844 239.301 628.336 238.973C628.836 238.637 629.086 238.191 629.086 237.637ZM643.57 235.129L642.211 236.547V241H640.043V223H642.211V233.887L643.371 232.492L647.32 228.32H649.957L645.023 233.617L650.531 241H647.988L643.57 235.129ZM657.223 241.234C655.504 241.234 654.105 240.672 653.027 239.547C651.949 238.414 651.41 236.902 651.41 235.012V234.613C651.41 233.355 651.648 232.234 652.125 231.25C652.609 230.258 653.281 229.484 654.141 228.93C655.008 228.367 655.945 228.086 656.953 228.086C658.602 228.086 659.883 228.629 660.797 229.715C661.711 230.801 662.168 232.355 662.168 234.379V235.281H653.578C653.609 236.531 653.973 237.543 654.668 238.316C655.371 239.082 656.262 239.465 657.34 239.465C658.105 239.465 658.754 239.309 659.285 238.996C659.816 238.684 660.281 238.27 660.68 237.754L662.004 238.785C660.941 240.418 659.348 241.234 657.223 241.234ZM656.953 229.867C656.078 229.867 655.344 230.188 654.75 230.828C654.156 231.461 653.789 232.352 653.648 233.5H660V233.336C659.938 232.234 659.641 231.383 659.109 230.781C658.578 230.172 657.859 229.867 656.953 229.867ZM667.043 241H664.875V223H667.043V241ZM678.352 239.746C677.508 240.738 676.27 241.234 674.637 241.234C673.285 241.234 672.254 240.844 671.543 240.062C670.84 239.273 670.484 238.109 670.477 236.57V228.32H672.645V236.512C672.645 238.434 673.426 239.395 674.988 239.395C676.645 239.395 677.746 238.777 678.293 237.543V228.32H680.461V241H678.398L678.352 239.746ZM691.594 241C691.469 240.75 691.367 240.305 691.289 239.664C690.281 240.711 689.078 241.234 687.68 241.234C686.43 241.234 685.402 240.883 684.598 240.18C683.801 239.469 683.402 238.57 683.402 237.484C683.402 236.164 683.902 235.141 684.902 234.414C685.91 233.68 687.324 233.312 689.145 233.312H691.254V232.316C691.254 231.559 691.027 230.957 690.574 230.512C690.121 230.059 689.453 229.832 688.57 229.832C687.797 229.832 687.148 230.027 686.625 230.418C686.102 230.809 685.84 231.281 685.84 231.836H683.66C683.66 231.203 683.883 230.594 684.328 230.008C684.781 229.414 685.391 228.945 686.156 228.602C686.93 228.258 687.777 228.086 688.699 228.086C690.16 228.086 691.305 228.453 692.133 229.188C692.961 229.914 693.391 230.918 693.422 232.199V238.035C693.422 239.199 693.57 240.125 693.867 240.812V241H691.594ZM687.996 239.348C688.676 239.348 689.32 239.172 689.93 238.82C690.539 238.469 690.98 238.012 691.254 237.449V234.848H689.555C686.898 234.848 685.57 235.625 685.57 237.18C685.57 237.859 685.797 238.391 686.25 238.773C686.703 239.156 687.285 239.348 687.996 239.348ZM702.949 230.266C702.621 230.211 702.266 230.184 701.883 230.184C700.461 230.184 699.496 230.789 698.988 232V241H696.82V228.32H698.93L698.965 229.785C699.676 228.652 700.684 228.086 701.988 228.086C702.41 228.086 702.73 228.141 702.949 228.25V230.266ZM704.203 234.555C704.203 232.578 704.66 231.008 705.574 229.844C706.488 228.672 707.699 228.086 709.207 228.086C710.754 228.086 711.961 228.633 712.828 229.727L712.934 228.32H714.914V240.695C714.914 242.336 714.426 243.629 713.449 244.574C712.48 245.52 711.176 245.992 709.535 245.992C708.621 245.992 707.727 245.797 706.852 245.406C705.977 245.016 705.309 244.48 704.848 243.801L705.973 242.5C706.902 243.648 708.039 244.223 709.383 244.223C710.438 244.223 711.258 243.926 711.844 243.332C712.438 242.738 712.734 241.902 712.734 240.824V239.734C711.867 240.734 710.684 241.234 709.184 241.234C707.699 241.234 706.496 240.637 705.574 239.441C704.66 238.246 704.203 236.617 704.203 234.555ZM706.383 234.801C706.383 236.23 706.676 237.355 707.262 238.176C707.848 238.988 708.668 239.395 709.723 239.395C711.09 239.395 712.094 238.773 712.734 237.531V231.742C712.07 230.531 711.074 229.926 709.746 229.926C708.691 229.926 707.867 230.336 707.273 231.156C706.68 231.977 706.383 233.191 706.383 234.801ZM726.023 241C725.898 240.75 725.797 240.305 725.719 239.664C724.711 240.711 723.508 241.234 722.109 241.234C720.859 241.234 719.832 240.883 719.027 240.18C718.23 239.469 717.832 238.57 717.832 237.484C717.832 236.164 718.332 235.141 719.332 234.414C720.34 233.68 721.754 233.312 723.574 233.312H725.684V232.316C725.684 231.559 725.457 230.957 725.004 230.512C724.551 230.059 723.883 229.832 723 229.832C722.227 229.832 721.578 230.027 721.055 230.418C720.531 230.809 720.27 231.281 720.27 231.836H718.09C718.09 231.203 718.312 230.594 718.758 230.008C719.211 229.414 719.82 228.945 720.586 228.602C721.359 228.258 722.207 228.086 723.129 228.086C724.59 228.086 725.734 228.453 726.562 229.188C727.391 229.914 727.82 230.918 727.852 232.199V238.035C727.852 239.199 728 240.125 728.297 240.812V241H726.023ZM722.426 239.348C723.105 239.348 723.75 239.172 724.359 238.82C724.969 238.469 725.41 238.012 725.684 237.449V234.848H723.984C721.328 234.848 720 235.625 720 237.18C720 237.859 720.227 238.391 720.68 238.773C721.133 239.156 721.715 239.348 722.426 239.348ZM747.938 234.801C747.938 236.738 747.492 238.297 746.602 239.477C745.711 240.648 744.516 241.234 743.016 241.234C741.414 241.234 740.176 240.668 739.301 239.535L739.195 241H737.203V223H739.371V229.715C740.246 228.629 741.453 228.086 742.992 228.086C744.531 228.086 745.738 228.668 746.613 229.832C747.496 230.996 747.938 232.59 747.938 234.613V234.801ZM745.77 234.555C745.77 233.078 745.484 231.938 744.914 231.133C744.344 230.328 743.523 229.926 742.453 229.926C741.023 229.926 739.996 230.59 739.371 231.918V237.402C740.035 238.73 741.07 239.395 742.477 239.395C743.516 239.395 744.324 238.992 744.902 238.188C745.48 237.383 745.77 236.172 745.77 234.555ZM755.941 241.234C754.223 241.234 752.824 240.672 751.746 239.547C750.668 238.414 750.129 236.902 750.129 235.012V234.613C750.129 233.355 750.367 232.234 750.844 231.25C751.328 230.258 752 229.484 752.859 228.93C753.727 228.367 754.664 228.086 755.672 228.086C757.32 228.086 758.602 228.629 759.516 229.715C760.43 230.801 760.887 232.355 760.887 234.379V235.281H752.297C752.328 236.531 752.691 237.543 753.387 238.316C754.09 239.082 754.98 239.465 756.059 239.465C756.824 239.465 757.473 239.309 758.004 238.996C758.535 238.684 759 238.27 759.398 237.754L760.723 238.785C759.66 240.418 758.066 241.234 755.941 241.234ZM755.672 229.867C754.797 229.867 754.062 230.188 753.469 230.828C752.875 231.461 752.508 232.352 752.367 233.5H758.719V233.336C758.656 232.234 758.359 231.383 757.828 230.781C757.297 230.172 756.578 229.867 755.672 229.867ZM770.789 237.637C770.789 237.051 770.566 236.598 770.121 236.277C769.684 235.949 768.914 235.668 767.812 235.434C766.719 235.199 765.848 234.918 765.199 234.59C764.559 234.262 764.082 233.871 763.77 233.418C763.465 232.965 763.312 232.426 763.312 231.801C763.312 230.762 763.75 229.883 764.625 229.164C765.508 228.445 766.633 228.086 768 228.086C769.438 228.086 770.602 228.457 771.492 229.199C772.391 229.941 772.84 230.891 772.84 232.047H770.66C770.66 231.453 770.406 230.941 769.898 230.512C769.398 230.082 768.766 229.867 768 229.867C767.211 229.867 766.594 230.039 766.148 230.383C765.703 230.727 765.48 231.176 765.48 231.73C765.48 232.254 765.688 232.648 766.102 232.914C766.516 233.18 767.262 233.434 768.34 233.676C769.426 233.918 770.305 234.207 770.977 234.543C771.648 234.879 772.145 235.285 772.465 235.762C772.793 236.23 772.957 236.805 772.957 237.484C772.957 238.617 772.504 239.527 771.598 240.215C770.691 240.895 769.516 241.234 768.07 241.234C767.055 241.234 766.156 241.055 765.375 240.695C764.594 240.336 763.98 239.836 763.535 239.195C763.098 238.547 762.879 237.848 762.879 237.098H765.047C765.086 237.824 765.375 238.402 765.914 238.832C766.461 239.254 767.18 239.465 768.07 239.465C768.891 239.465 769.547 239.301 770.039 238.973C770.539 238.637 770.789 238.191 770.789 237.637ZM783.609 241C783.484 240.75 783.383 240.305 783.305 239.664C782.297 240.711 781.094 241.234 779.695 241.234C778.445 241.234 777.418 240.883 776.613 240.18C775.816 239.469 775.418 238.57 775.418 237.484C775.418 236.164 775.918 235.141 776.918 234.414C777.926 233.68 779.34 233.312 781.16 233.312H783.27V232.316C783.27 231.559 783.043 230.957 782.59 230.512C782.137 230.059 781.469 229.832 780.586 229.832C779.812 229.832 779.164 230.027 778.641 230.418C778.117 230.809 777.855 231.281 777.855 231.836H775.676C775.676 231.203 775.898 230.594 776.344 230.008C776.797 229.414 777.406 228.945 778.172 228.602C778.945 228.258 779.793 228.086 780.715 228.086C782.176 228.086 783.32 228.453 784.148 229.188C784.977 229.914 785.406 230.918 785.438 232.199V238.035C785.438 239.199 785.586 240.125 785.883 240.812V241H783.609ZM780.012 239.348C780.691 239.348 781.336 239.172 781.945 238.82C782.555 238.469 782.996 238.012 783.27 237.449V234.848H781.57C778.914 234.848 777.586 235.625 777.586 237.18C777.586 237.859 777.812 238.391 778.266 238.773C778.719 239.156 779.301 239.348 780.012 239.348ZM794.965 230.266C794.637 230.211 794.281 230.184 793.898 230.184C792.477 230.184 791.512 230.789 791.004 232V241H788.836V228.32H790.945L790.98 229.785C791.691 228.652 792.699 228.086 794.004 228.086C794.426 228.086 794.746 228.141 794.965 228.25V230.266ZM806.461 235.129L805.102 236.547V241H802.934V223H805.102V233.887L806.262 232.492L810.211 228.32H812.848L807.914 233.617L813.422 241H810.879L806.461 235.129ZM817.441 241H815.273V228.32H817.441V241ZM815.098 224.957C815.098 224.605 815.203 224.309 815.414 224.066C815.633 223.824 815.953 223.703 816.375 223.703C816.797 223.703 817.117 223.824 817.336 224.066C817.555 224.309 817.664 224.605 817.664 224.957C817.664 225.309 817.555 225.602 817.336 225.836C817.117 226.07 816.797 226.188 816.375 226.188C815.953 226.188 815.633 226.07 815.414 225.836C815.203 225.602 815.098 225.309 815.098 224.957ZM823.863 225.25V228.32H826.23V229.996H823.863V237.859C823.863 238.367 823.969 238.75 824.18 239.008C824.391 239.258 824.75 239.383 825.258 239.383C825.508 239.383 825.852 239.336 826.289 239.242V241C825.719 241.156 825.164 241.234 824.625 241.234C823.656 241.234 822.926 240.941 822.434 240.355C821.941 239.77 821.695 238.938 821.695 237.859V229.996H819.387V228.32H821.695V225.25H823.863ZM836.602 241C836.477 240.75 836.375 240.305 836.297 239.664C835.289 240.711 834.086 241.234 832.688 241.234C831.438 241.234 830.41 240.883 829.605 240.18C828.809 239.469 828.41 238.57 828.41 237.484C828.41 236.164 828.91 235.141 829.91 234.414C830.918 233.68 832.332 233.312 834.152 233.312H836.262V232.316C836.262 231.559 836.035 230.957 835.582 230.512C835.129 230.059 834.461 229.832 833.578 229.832C832.805 229.832 832.156 230.027 831.633 230.418C831.109 230.809 830.848 231.281 830.848 231.836H828.668C828.668 231.203 828.891 230.594 829.336 230.008C829.789 229.414 830.398 228.945 831.164 228.602C831.938 228.258 832.785 228.086 833.707 228.086C835.168 228.086 836.312 228.453 837.141 229.188C837.969 229.914 838.398 230.918 838.43 232.199V238.035C838.43 239.199 838.578 240.125 838.875 240.812V241H836.602ZM833.004 239.348C833.684 239.348 834.328 239.172 834.938 238.82C835.547 238.469 835.988 238.012 836.262 237.449V234.848H834.562C831.906 234.848 830.578 235.625 830.578 237.18C830.578 237.859 830.805 238.391 831.258 238.773C831.711 239.156 832.293 239.348 833.004 239.348ZM850.137 241H847.969V228.32H850.137V241ZM847.793 224.957C847.793 224.605 847.898 224.309 848.109 224.066C848.328 223.824 848.648 223.703 849.07 223.703C849.492 223.703 849.812 223.824 850.031 224.066C850.25 224.309 850.359 224.605 850.359 224.957C850.359 225.309 850.25 225.602 850.031 225.836C849.812 226.07 849.492 226.188 849.07 226.188C848.648 226.188 848.328 226.07 848.109 225.836C847.898 225.602 847.793 225.309 847.793 224.957ZM855.668 228.32L855.738 229.914C856.707 228.695 857.973 228.086 859.535 228.086C862.215 228.086 863.566 229.598 863.59 232.621V241H861.422V232.609C861.414 231.695 861.203 231.02 860.789 230.582C860.383 230.145 859.746 229.926 858.879 229.926C858.176 229.926 857.559 230.113 857.027 230.488C856.496 230.863 856.082 231.355 855.785 231.965V241H853.617V228.32H855.668ZM869.215 241H867.047V228.32H869.215V241ZM866.871 224.957C866.871 224.605 866.977 224.309 867.188 224.066C867.406 223.824 867.727 223.703 868.148 223.703C868.57 223.703 868.891 223.824 869.109 224.066C869.328 224.309 869.438 224.605 869.438 224.957C869.438 225.309 869.328 225.602 869.109 225.836C868.891 226.07 868.57 226.188 868.148 226.188C867.727 226.188 867.406 226.07 867.188 225.836C866.977 225.602 866.871 225.309 866.871 224.957ZM872.742 239.863C872.742 239.488 872.852 239.176 873.07 238.926C873.297 238.676 873.633 238.551 874.078 238.551C874.523 238.551 874.859 238.676 875.086 238.926C875.32 239.176 875.438 239.488 875.438 239.863C875.438 240.223 875.32 240.523 875.086 240.766C874.859 241.008 874.523 241.129 874.078 241.129C873.633 241.129 873.297 241.008 873.07 240.766C872.852 240.523 872.742 240.223 872.742 239.863Z" fill="#2A1B3C"/>
</svg>
