<svg width="874" height="204" viewBox="0 0 874 204" fill="none" xmlns="http://www.w3.org/2000/svg">
<path d="M178.416 204L98.064 87.072L173.52 0.671991H122.544L42.48 92.544V0.671991H0.432001V204H42.48V150.72L69.552 119.616L126.576 204H178.416ZM330.021 98.592C344.133 92.544 353.637 75.552 353.637 55.68C353.637 39.264 347.877 26.016 336.357 15.936C325.125 5.85599 309.861 0.671991 291.141 0.671991H200.997V204H298.629C317.637 204 332.901 198.816 344.421 188.16C355.941 177.504 361.701 163.104 361.701 145.536C361.701 122.496 349.317 104.064 330.021 99.456V98.592ZM284.805 34.656C300.933 34.656 311.589 44.448 311.589 59.136C311.589 74.4 300.933 84.768 284.805 84.768H243.045V34.656H284.805ZM243.045 170.016V116.448H288.837C307.269 116.448 319.365 126.528 319.365 142.368C319.365 158.784 306.981 170.016 288.549 170.016H243.045ZM502.049 151.584L446.753 0.671991H390.593V204H432.641V65.472L482.465 204H521.057L571.457 64.032V204H613.505V0.671991H557.345L502.049 151.584ZM639.806 0.671991V40.128H703.166V204H745.214V40.128H808.574V0.671991H639.806ZM876.521 204V0.671991H834.473V204H876.521Z" fill="#2A1B3C"/>
</svg>
