<svg width="14" height="158" viewBox="0 0 14 158" fill="none" xmlns="http://www.w3.org/2000/svg">
<path d="M11.168 153.66C11.168 152.498 10.902 151.56 10.356 150.846C9.81 150.132 9.096 149.768 8.214 149.768C6.8 149.768 5.792 150.594 5.386 152.204L4.896 154.206C4.714 154.92 4.392 155.27 3.916 155.27C3.202 155.27 2.712 154.64 2.712 153.688C2.712 152.722 3.258 151.994 4.084 151.868L3.524 150.034C2.754 150.216 2.124 150.622 1.662 151.266C1.186 151.91 0.947999 152.68 0.947999 153.562C0.947999 154.696 1.228 155.62 1.774 156.32C2.32 157.02 3.034 157.37 3.916 157.37C5.358 157.37 6.366 156.502 6.744 154.92L7.206 152.904C7.36 152.218 7.696 151.882 8.214 151.882C8.928 151.882 9.404 152.54 9.404 153.534C9.404 154.808 8.746 155.662 7.738 155.718L8.032 157.622C8.97 157.552 9.74 157.146 10.314 156.418C10.888 155.69 11.168 154.766 11.168 153.66ZM11.168 144.937C11.168 144.251 10.986 143.607 10.608 143.033C10.23 142.459 9.726 142.039 9.096 141.787L8.396 143.439C8.97 143.649 9.376 144.265 9.376 144.951C9.376 146.029 8.634 146.729 7.528 146.729C6.422 146.729 5.68 146.029 5.68 144.951C5.68 144.265 6.072 143.649 6.674 143.439L5.96 141.787C5.33 142.039 4.84 142.459 4.462 143.033C4.084 143.607 3.888 144.251 3.888 144.937C3.888 146.071 4.224 146.981 4.896 147.667C5.554 148.353 6.436 148.689 7.528 148.689C8.62 148.689 9.502 148.353 10.174 147.667C10.832 146.981 11.168 146.071 11.168 144.937ZM4.056 136.948C4.056 137.788 4.574 138.446 5.358 138.656V138.67L4.056 138.922V140.588H11V138.67H7.878C6.716 138.67 5.974 138.082 5.974 137.172V136.108H4.056V136.948ZM10.16 129.123C9.488 128.451 8.606 128.115 7.514 128.115C6.422 128.115 5.54 128.451 4.882 129.123C4.21 129.795 3.874 130.677 3.874 131.783C3.874 132.889 4.21 133.771 4.882 134.457C5.54 135.129 6.422 135.465 7.514 135.465C8.606 135.465 9.488 135.129 10.16 134.457C10.818 133.771 11.154 132.889 11.154 131.783C11.154 130.677 10.818 129.795 10.16 129.123ZM8.858 133.029C8.508 133.351 8.06 133.505 7.514 133.505C6.968 133.505 6.52 133.351 6.184 133.029C5.834 132.707 5.666 132.301 5.666 131.783C5.666 131.265 5.834 130.859 6.184 130.551C6.52 130.229 6.968 130.075 7.514 130.075C8.06 130.075 8.508 130.229 8.858 130.551C9.194 130.859 9.362 131.265 9.362 131.783C9.362 132.301 9.194 132.707 8.858 133.029ZM9.194 123.235V124.257C9.194 124.691 8.956 124.929 8.55 124.929H0.695999V126.847H8.662C10.16 126.847 11 125.979 11 124.467V123.235H9.194ZM9.194 118.653V119.675C9.194 120.109 8.956 120.347 8.55 120.347H0.695999L0.695999 122.265H8.662C10.16 122.265 11 121.397 11 119.885V118.653H9.194ZM5.12 109.796V109.838C4.392 110.062 3.888 110.888 3.888 111.896C3.888 112.848 4.224 113.618 4.896 114.192C5.554 114.766 6.436 115.06 7.528 115.06C8.62 115.06 9.502 114.766 10.174 114.192C10.832 113.618 11.168 112.848 11.168 111.896C11.168 110.888 10.664 110.062 9.922 109.838V109.796L11 109.544V107.878H0.695999V109.796H5.12ZM8.9 112.652C8.55 112.946 8.102 113.1 7.528 113.1C6.954 113.1 6.506 112.946 6.156 112.652C5.806 112.344 5.638 111.938 5.638 111.448C5.638 110.958 5.806 110.552 6.156 110.258C6.506 109.95 6.954 109.796 7.528 109.796C8.102 109.796 8.55 109.95 8.9 110.258C9.25 110.552 9.418 110.958 9.418 111.448C9.418 111.938 9.25 112.344 8.9 112.652ZM10.16 100.13C9.488 99.4581 8.606 99.1221 7.514 99.1221C6.422 99.1221 5.54 99.4581 4.882 100.13C4.21 100.802 3.874 101.684 3.874 102.79C3.874 103.896 4.21 104.778 4.882 105.464C5.54 106.136 6.422 106.472 7.514 106.472C8.606 106.472 9.488 106.136 10.16 105.464C10.818 104.778 11.154 103.896 11.154 102.79C11.154 101.684 10.818 100.802 10.16 100.13ZM8.858 104.036C8.508 104.358 8.06 104.512 7.514 104.512C6.968 104.512 6.52 104.358 6.184 104.036C5.834 103.714 5.666 103.308 5.666 102.79C5.666 102.272 5.834 101.866 6.184 101.558C6.52 101.236 6.968 101.082 7.514 101.082C8.06 101.082 8.508 101.236 8.858 101.558C9.194 101.866 9.362 102.272 9.362 102.79C9.362 103.308 9.194 103.714 8.858 104.036ZM9.18 91.2357L4.056 92.5377V94.2737L9.124 95.5617L4.056 96.7097V98.8797L11 96.8497V94.4137L6.73 93.4057L11 92.3977V89.9757L4.056 87.9457V90.0737L9.18 91.2357ZM3.888 82.9205C3.888 83.9425 4.378 84.7965 5.148 85.0345V85.0765L4.056 85.3285L4.056 86.9945H11V85.0765H7.262C6.324 85.0765 5.68 84.5165 5.68 83.6625C5.68 82.8785 6.282 82.3325 7.178 82.3325H11V80.4145H6.52C4.938 80.4145 3.888 81.4085 3.888 82.9205ZM4.056 71.4158V73.4598H1.9V75.3778H4.056V76.9178H5.736V75.3778H8.662C10.16 75.3778 11 74.5098 11 72.9978V71.4158H9.306V72.5638C9.306 73.1238 9.012 73.4598 8.55 73.4598H5.736V71.4158H4.056ZM10.16 64.0965C9.488 63.4245 8.606 63.0885 7.514 63.0885C6.422 63.0885 5.54 63.4245 4.882 64.0965C4.21 64.7685 3.874 65.6505 3.874 66.7565C3.874 67.8625 4.21 68.7445 4.882 69.4305C5.54 70.1025 6.422 70.4385 7.514 70.4385C8.606 70.4385 9.488 70.1025 10.16 69.4305C10.818 68.7445 11.154 67.8625 11.154 66.7565C11.154 65.6505 10.818 64.7685 10.16 64.0965ZM8.858 68.0025C8.508 68.3245 8.06 68.4785 7.514 68.4785C6.968 68.4785 6.52 68.3245 6.184 68.0025C5.834 67.6805 5.666 67.2745 5.666 66.7565C5.666 66.2385 5.834 65.8325 6.184 65.5245C6.52 65.2025 6.968 65.0485 7.514 65.0485C8.06 65.0485 8.508 65.2025 8.858 65.5245C9.194 65.8325 9.362 66.2385 9.362 66.7565C9.362 67.2745 9.194 67.6805 8.858 68.0025ZM3.888 54.9807C3.888 56.0027 4.378 56.8567 5.148 57.0947V57.1367L4.056 57.3887V59.0547H11V57.1367H7.262C6.324 57.1367 5.68 56.5767 5.68 55.7227C5.68 54.9387 6.282 54.3927 7.178 54.3927H11V52.4747H6.52C4.938 52.4747 3.888 53.4687 3.888 54.9807ZM9.418 44.5903C9.418 44.8003 9.292 44.8983 9.026 44.8983H6.38C4.812 44.8983 3.888 45.9903 3.888 47.8803C3.888 49.4903 4.714 50.5963 6.128 50.9463L6.548 49.2523C5.862 49.1403 5.456 48.6223 5.456 47.9083C5.456 47.2363 5.778 46.8163 6.282 46.8163H6.31C6.632 46.8163 6.828 46.9983 6.884 47.3483L7.164 49.1403C7.374 50.4703 8.074 51.2403 9.138 51.2403C10.426 51.2403 11.168 50.3863 11.168 48.9163C11.168 47.9083 10.846 47.1663 10.188 46.6903C10.734 46.4803 11 46.0043 11 45.2763V44.2543H9.418V44.5903ZM9.782 48.2863C9.782 48.9443 9.502 49.3223 9.04 49.3223C8.606 49.3223 8.354 49.0283 8.256 48.4543L8.004 46.8163H8.256C9.166 46.8163 9.782 47.4043 9.782 48.2863ZM9.138 40.4968L4.056 41.9948V44.1928L11 41.7708V39.2648L4.056 36.8428V39.0128L9.138 40.4968ZM2.712 33.9433H0.695999L0.695999 35.9033H2.712V33.9433ZM11 33.9573H4.056V35.8753H11V33.9573ZM5.078 27.2939V27.3499C4.364 27.5599 3.888 28.3999 3.888 29.4219C3.888 30.3599 4.21 31.1159 4.84 31.6899C5.47 32.2639 6.296 32.5439 7.332 32.5439C8.368 32.5439 9.208 32.2639 9.838 31.6899C10.468 31.1159 10.776 30.3599 10.776 29.4219C10.776 28.3999 10.314 27.5739 9.6 27.3499V27.2939H10.286C11.476 27.2939 12.26 28.0499 12.26 29.1559C12.26 29.9539 11.77 30.6819 11.042 30.9619L11.91 32.5439C12.512 32.2499 13.002 31.7879 13.366 31.1579C13.744 30.5279 13.926 29.8419 13.926 29.1139C13.926 27.9939 13.604 27.0979 12.946 26.4119C12.288 25.7259 11.434 25.3759 10.356 25.3759H4.056V27.0559L5.078 27.2939ZM8.634 30.1639C8.312 30.4719 7.878 30.6259 7.332 30.6259C6.786 30.6259 6.352 30.4719 6.03 30.1639C5.694 29.8559 5.526 29.4499 5.526 28.9599C5.526 28.4699 5.694 28.0639 6.03 27.7559C6.352 27.4479 6.786 27.2939 7.332 27.2939C7.878 27.2939 8.312 27.4479 8.634 27.7559C8.956 28.0639 9.124 28.4699 9.124 28.9599C9.124 29.4499 8.956 29.8559 8.634 30.1639ZM9.418 17.4177C9.418 17.6277 9.292 17.7257 9.026 17.7257H6.38C4.812 17.7257 3.888 18.8177 3.888 20.7077C3.888 22.3177 4.714 23.4237 6.128 23.7737L6.548 22.0797C5.862 21.9677 5.456 21.4497 5.456 20.7357C5.456 20.0637 5.778 19.6437 6.282 19.6437H6.31C6.632 19.6437 6.828 19.8257 6.884 20.1757L7.164 21.9677C7.374 23.2977 8.074 24.0677 9.138 24.0677C10.426 24.0677 11.168 23.2137 11.168 21.7437C11.168 20.7357 10.846 19.9937 10.188 19.5177C10.734 19.3077 11 18.8317 11 18.1037V17.0817H9.418V17.4177ZM9.782 21.1137C9.782 21.7717 9.502 22.1497 9.04 22.1497C8.606 22.1497 8.354 21.8557 8.256 21.2817L8.004 19.6437H8.256C9.166 19.6437 9.782 20.2317 9.782 21.1137ZM4.056 11.3131V13.3571H1.9V15.2751H4.056V16.8151H5.736V15.2751H8.662C10.16 15.2751 11 14.4071 11 12.8951V11.3131H9.306V12.4611C9.306 13.0211 9.012 13.3571 8.55 13.3571H5.736V11.3131H4.056ZM7.486 3.48988C6.408 3.48988 5.54 3.79788 4.882 4.42788C4.224 5.04388 3.888 5.85588 3.888 6.86388C3.888 7.91388 4.224 8.75388 4.896 9.38388C5.554 10.0139 6.436 10.3359 7.528 10.3359C8.62 10.3359 9.502 10.0139 10.174 9.35588C10.832 8.69788 11.168 7.82988 11.168 6.75188C11.168 6.07988 11 5.46388 10.65 4.90388C10.3 4.32988 9.852 3.92388 9.292 3.68588L8.662 5.19788C9.208 5.42188 9.53 6.00988 9.53 6.75188C9.53 7.70388 9.026 8.33388 8.13 8.51588V3.48988H7.486ZM5.526 6.91988C5.526 5.96788 6.072 5.40788 7.01 5.30988V8.52988C6.072 8.37588 5.526 7.80188 5.526 6.91988ZM11 2.41658V0.288577H8.872V2.41658H11Z" fill="#2A1B3C"/>
</svg>
