<svg width="778" height="208" viewBox="0 0 778 208" fill="none" xmlns="http://www.w3.org/2000/svg">
<path d="M77.416 206V208H81.2171L79.0643 204.867L77.416 206ZM-2.93599 89.072L-4.44239 87.7564L-5.46339 88.9255L-4.58431 90.2047L-2.93599 89.072ZM72.52 2.67199L74.0264 3.98758L76.922 0.671989H72.52V2.67199ZM21.544 2.67199V0.671989H20.6341L20.0362 1.35799L21.544 2.67199ZM-58.52 94.544H-60.52V99.8831L-57.0122 95.858L-58.52 94.544ZM-58.52 2.67199H-56.52V0.671989H-58.52V2.67199ZM-100.568 2.67199V0.671989H-102.568V2.67199H-100.568ZM-100.568 206H-102.568V208H-100.568V206ZM-58.52 206V208H-56.52V206H-58.52ZM-58.52 152.72L-60.0286 151.407L-60.52 151.972V152.72H-58.52ZM-31.448 121.616L-29.7909 120.496L-31.248 118.34L-32.9566 120.303L-31.448 121.616ZM25.576 206L23.9189 207.12L24.5137 208H25.576V206ZM79.0643 204.867L-1.28767 87.9393L-4.58431 90.2047L75.7677 207.133L79.0643 204.867ZM-1.4296 90.3876L74.0264 3.98758L71.0136 1.35641L-4.44239 87.7564L-1.4296 90.3876ZM72.52 0.671989H21.544V4.67199H72.52V0.671989ZM20.0362 1.35799L-60.0278 93.23L-57.0122 95.858L23.0518 3.98598L20.0362 1.35799ZM-56.52 94.544V2.67199H-60.52V94.544H-56.52ZM-58.52 0.671989H-100.568V4.67199H-58.52V0.671989ZM-102.568 2.67199V206H-98.568V2.67199H-102.568ZM-100.568 208H-58.52V204H-100.568V208ZM-56.52 206V152.72H-60.52V206H-56.52ZM-57.0114 154.033L-29.9394 122.929L-32.9566 120.303L-60.0286 151.407L-57.0114 154.033ZM-33.1051 122.736L23.9189 207.12L27.2331 204.88L-29.7909 120.496L-33.1051 122.736ZM25.576 208H77.416V204H25.576V208ZM229.021 100.592L228.233 98.7537L227.021 99.2732V100.592H229.021ZM235.357 17.936L234.021 19.4245L234.031 19.4329L234.04 19.4411L235.357 17.936ZM99.997 2.67199V0.671989H97.997V2.67199H99.997ZM99.997 206H97.997V208H99.997V206ZM243.421 190.16L244.779 191.628L243.421 190.16ZM229.021 101.456H227.021V103.035L228.556 103.401L229.021 101.456ZM142.045 86.768H140.045V88.768H142.045V86.768ZM142.045 36.656V34.656H140.045V36.656H142.045ZM142.045 172.016H140.045V174.016H142.045V172.016ZM142.045 118.448V116.448H140.045V118.448H142.045ZM229.809 102.43C244.871 95.975 254.637 78.0888 254.637 57.68H250.637C250.637 77.0152 241.395 93.113 228.233 98.7537L229.809 102.43ZM254.637 57.68C254.637 40.7345 248.662 26.9207 236.674 16.4308L234.04 19.4411C245.092 29.1113 250.637 41.7935 250.637 57.68H254.637ZM236.693 16.4475C225.014 5.96644 209.235 0.671989 190.141 0.671989V4.67199C208.487 4.67199 223.236 9.74554 234.021 19.4245L236.693 16.4475ZM190.141 0.671989H99.997V4.67199H190.141V0.671989ZM97.997 2.67199V206H101.997V2.67199H97.997ZM99.997 208H197.629V204H99.997V208ZM197.629 208C217.015 208 232.807 202.703 244.779 191.628L242.063 188.692C230.995 198.929 216.259 204 197.629 204V208ZM244.779 191.628C256.767 180.54 262.701 165.577 262.701 147.536H258.701C258.701 164.631 253.115 178.468 242.063 188.692L244.779 191.628ZM262.701 147.536C262.701 123.815 249.9 104.386 229.486 99.5107L228.556 103.401C246.734 107.742 258.701 125.177 258.701 147.536H262.701ZM231.021 101.456V100.592H227.021V101.456H231.021ZM183.805 38.656C191.467 38.656 197.65 40.9775 201.895 44.8633C206.123 48.7342 208.589 54.3004 208.589 61.136H212.589C212.589 53.2836 209.727 46.6098 204.595 41.9128C199.48 37.2305 192.271 34.656 183.805 34.656V38.656ZM208.589 61.136C208.589 68.2863 206.104 74.1525 201.859 78.2343C197.607 82.3221 191.436 84.768 183.805 84.768V88.768C192.302 88.768 199.523 86.0298 204.631 81.1177C209.746 76.1994 212.589 69.2497 212.589 61.136H208.589ZM183.805 84.768H142.045V88.768H183.805V84.768ZM144.045 86.768V36.656H140.045V86.768H144.045ZM142.045 38.656H183.805V34.656H142.045V38.656ZM144.045 172.016V118.448H140.045V172.016H144.045ZM142.045 120.448H187.837V116.448H142.045V120.448ZM187.837 120.448C196.703 120.448 203.839 122.872 208.723 126.996C213.571 131.091 216.365 136.997 216.365 144.368H220.365C220.365 135.899 217.111 128.845 211.303 123.94C205.531 119.064 197.403 116.448 187.837 116.448V120.448ZM216.365 144.368C216.365 152.045 213.484 158.404 208.531 162.861C203.561 167.335 196.362 170.016 187.549 170.016V174.016C197.168 174.016 205.377 171.081 211.207 165.835C217.054 160.572 220.365 153.107 220.365 144.368H216.365ZM187.549 170.016H142.045V174.016H187.549V170.016ZM401.049 153.584L399.171 154.272L401.049 159.397L402.927 154.272L401.049 153.584ZM345.753 2.67199L347.631 1.9839L347.15 0.671989H345.753V2.67199ZM289.593 2.67199V0.671989H287.593V2.67199H289.593ZM289.593 206H287.593V208H289.593V206ZM331.641 206V208H333.641V206H331.641ZM331.641 67.472L333.523 66.7951L329.641 67.472H331.641ZM381.465 206L379.583 206.677L380.059 208H381.465V206ZM420.057 206V208H421.463L421.939 206.678L420.057 206ZM470.457 66.032H472.457L468.576 65.3544L470.457 66.032ZM470.457 206H468.457V208H470.457V206ZM512.505 206V208H514.505V206H512.505ZM512.505 2.67199H514.505V0.671989H512.505V2.67199ZM456.345 2.67199V0.671989H454.948L454.467 1.9839L456.345 2.67199ZM402.927 152.896L347.631 1.9839L343.875 3.36008L399.171 154.272L402.927 152.896ZM345.753 0.671989H289.593V4.67199H345.753V0.671989ZM287.593 2.67199V206H291.593V2.67199H287.593ZM289.593 208H331.641V204H289.593V208ZM333.641 206V67.472H329.641V206H333.641ZM329.759 68.1489L379.583 206.677L383.347 205.323L333.523 66.7951L329.759 68.1489ZM381.465 208H420.057V204H381.465V208ZM421.939 206.678L472.339 66.7096L468.576 65.3544L418.176 205.322L421.939 206.678ZM468.457 66.032V206H472.457V66.032H468.457ZM470.457 208H512.505V204H470.457V208ZM514.505 206V2.67199H510.505V206H514.505ZM512.505 0.671989H456.345V4.67199H512.505V0.671989ZM454.467 1.9839L399.171 152.896L402.927 154.272L458.223 3.36008L454.467 1.9839ZM538.805 2.67199V0.671989H536.805V2.67199H538.805ZM538.805 42.128H536.805V44.128H538.805V42.128ZM602.166 42.128H604.166V40.128H602.166V42.128ZM602.166 206H600.166V208H602.166V206ZM644.214 206V208H646.214V206H644.214ZM644.214 42.128V40.128H642.214V42.128H644.214ZM707.574 42.128V44.128H709.574V42.128H707.574ZM707.574 2.67199H709.574V0.671989H707.574V2.67199ZM536.805 2.67199V42.128H540.805V2.67199H536.805ZM538.805 44.128H602.166V40.128H538.805V44.128ZM600.166 42.128V206H604.166V42.128H600.166ZM602.166 208H644.214V204H602.166V208ZM646.214 206V42.128H642.214V206H646.214ZM644.214 44.128H707.574V40.128H644.214V44.128ZM709.574 42.128V2.67199H705.574V42.128H709.574ZM707.574 0.671989H538.805V4.67199H707.574V0.671989ZM775.521 206V208H777.521V206H775.521ZM775.521 2.67199H777.521V0.671989H775.521V2.67199ZM733.473 2.67199V0.671989H731.473V2.67199H733.473ZM733.473 206H731.473V208H733.473V206ZM777.521 206V2.67199H773.521V206H777.521ZM775.521 0.671989H733.473V4.67199H775.521V0.671989ZM731.473 2.67199V206H735.473V2.67199H731.473ZM733.473 208H775.521V204H733.473V208Z" fill="#2A1B3C"/>
</svg>
