<svg width="657" height="448" viewBox="0 0 657 448" fill="none" xmlns="http://www.w3.org/2000/svg">
<path d="M238 0H540V448H238V0Z" fill="#FFECF5"/>
<path d="M211.326 120.72L196.326 59.28H176.526L161.766 120.24L145.926 59.28H126.366L151.206 144H170.286L186.486 87.84L202.566 144H221.646L246.486 59.28H227.286L211.326 120.72ZM289.753 83.04C280.993 83.04 273.673 87.24 271.633 93.84H271.273V55.68H254.833V144H271.273V111.96C271.273 103.92 276.073 98.4 283.393 98.4C290.233 98.4 294.793 103.68 294.793 111.36V144H311.233V105.6C311.233 92.04 302.713 83.04 289.753 83.04ZM378.813 130.44C377.013 130.44 376.173 129.36 376.173 127.08V104.4C376.173 90.96 366.813 83.04 350.613 83.04C336.813 83.04 327.333 90.12 324.333 102.24L338.853 105.84C339.813 99.96 344.253 96.48 350.373 96.48C356.133 96.48 359.733 99.24 359.733 103.56V103.8C359.733 106.56 358.173 108.24 355.173 108.72L339.813 111.12C328.413 112.92 321.813 118.92 321.813 128.04C321.813 139.08 329.133 145.44 341.733 145.44C350.373 145.44 356.733 142.68 360.813 137.04C362.613 141.72 366.693 144 372.933 144H381.693V130.44H378.813ZM347.133 133.56C341.493 133.56 338.253 131.16 338.253 127.2C338.253 123.48 340.773 121.32 345.693 120.48L359.733 118.32V120.48C359.733 128.28 354.693 133.56 347.133 133.56ZM431.138 84.48H413.618V66H397.178V84.48H383.978V98.88H397.178V123.96C397.178 136.8 404.618 144 417.578 144H431.138V129.48H421.298C416.498 129.48 413.618 126.96 413.618 123V98.88H431.138V84.48ZM519.246 130.44C517.446 130.44 516.606 129.36 516.606 127.08V104.4C516.606 90.96 507.246 83.04 491.046 83.04C477.246 83.04 467.766 90.12 464.766 102.24L479.286 105.84C480.246 99.96 484.686 96.48 490.806 96.48C496.566 96.48 500.166 99.24 500.166 103.56V103.8C500.166 106.56 498.606 108.24 495.606 108.72L480.246 111.12C468.846 112.92 462.246 118.92 462.246 128.04C462.246 139.08 469.566 145.44 482.166 145.44C490.806 145.44 497.166 142.68 501.246 137.04C503.046 141.72 507.126 144 513.366 144H522.126V130.44H519.246ZM487.566 133.56C481.926 133.56 478.686 131.16 478.686 127.2C478.686 123.48 481.206 121.32 486.126 120.48L500.166 118.32V120.48C500.166 128.28 495.126 133.56 487.566 133.56ZM563.251 84.48C556.051 84.48 550.411 88.92 548.611 95.64H548.491L546.331 84.48H532.051V144H548.491V117.24C548.491 107.28 553.531 100.92 561.331 100.92H570.451V84.48H563.251ZM634.643 113.88C634.643 104.64 632.003 97.2 626.603 91.56C621.323 85.92 614.363 83.04 605.723 83.04C596.723 83.04 589.523 85.92 584.123 91.68C578.723 97.32 575.963 104.88 575.963 114.24C575.963 123.6 578.723 131.16 584.363 136.92C590.003 142.56 597.443 145.44 606.683 145.44C612.443 145.44 617.723 144 622.523 141C627.443 138 630.923 134.16 632.963 129.36L620.003 123.96C618.083 128.64 613.043 131.4 606.683 131.4C598.523 131.4 593.123 127.08 591.563 119.4H634.643V113.88ZM605.243 97.08C613.403 97.08 618.203 101.76 619.043 109.8H591.443C592.763 101.76 597.683 97.08 605.243 97.08ZM66.1072 248.4L54.9472 204.48H40.0672L29.0272 247.92L19.1872 204.48H0.587188L17.9872 264H38.8672L47.5072 227.4L56.1472 264H76.9072L94.3072 204.48H76.0672L66.1072 248.4ZM155.702 233.88C155.702 224.64 153.062 217.2 147.662 211.56C142.382 205.92 135.422 203.04 126.782 203.04C117.782 203.04 110.582 205.92 105.182 211.68C99.7822 217.32 97.0222 224.88 97.0222 234.24C97.0222 243.6 99.7822 251.16 105.422 256.92C111.062 262.56 118.502 265.44 127.742 265.44C133.502 265.44 138.782 264 143.582 261C148.502 258 151.982 254.16 154.022 249.36L141.062 243.96C139.142 248.64 134.102 251.4 127.742 251.4C119.582 251.4 114.182 247.08 112.622 239.4H155.702V233.88ZM126.302 217.08C134.462 217.08 139.262 221.76 140.102 229.8H112.502C113.822 221.76 118.742 217.08 126.302 217.08ZM249.899 248.4L238.739 204.48H223.859L212.819 247.92L202.979 204.48H184.379L201.779 264H222.659L231.299 227.4L239.939 264H260.699L278.099 204.48H259.859L249.899 248.4ZM335.174 256.8C340.934 251.04 343.814 243.48 343.814 234.12C343.814 224.76 340.934 217.2 335.174 211.56C329.414 205.8 321.854 202.92 312.374 202.92C302.894 202.92 295.334 205.8 289.454 211.56C283.694 217.2 280.814 224.76 280.814 234.12C280.814 243.48 283.694 251.04 289.454 256.8C295.334 262.44 302.894 265.32 312.374 265.32C321.854 265.32 329.414 262.44 335.174 256.8ZM301.694 245.64C298.934 242.64 297.614 238.8 297.614 234.12C297.614 229.44 298.934 225.6 301.694 222.72C304.454 219.72 307.934 218.28 312.374 218.28C316.814 218.28 320.294 219.72 322.934 222.72C325.694 225.6 327.014 229.44 327.014 234.12C327.014 238.8 325.694 242.64 322.934 245.64C320.294 248.52 316.814 249.96 312.374 249.96C307.934 249.96 304.454 248.52 301.694 245.64ZM386.959 204.48C379.759 204.48 374.119 208.92 372.319 215.64H372.199L370.039 204.48H355.759V264H372.199V237.24C372.199 227.28 377.239 220.92 385.039 220.92H394.159V204.48H386.959ZM464.426 264L439.826 228.36L462.986 204.48H443.186L420.026 227.88V175.68H403.586V264H420.026V248.64L428.306 240.12L444.746 264H464.426ZM489.54 192.96V175.68H472.74V192.96H489.54ZM489.42 264V204.48H472.98V264H489.42ZM538.495 203.04C529.735 203.04 522.415 207.24 520.375 213.84H520.015L517.855 204.48H503.575V264H520.015V231.96C520.015 223.92 524.815 218.4 532.135 218.4C538.855 218.4 543.535 223.56 543.535 231.24V264H559.975V225.6C559.975 212.04 551.455 203.04 538.495 203.04ZM616.275 213.24H615.795C613.995 207.12 606.795 203.04 598.035 203.04C589.995 203.04 583.515 205.8 578.595 211.2C573.675 216.6 571.275 223.68 571.275 232.56C571.275 241.44 573.675 248.64 578.595 254.04C583.515 259.44 589.995 262.08 598.035 262.08C606.795 262.08 613.875 258.12 615.795 252H616.275V257.88C616.275 268.08 609.795 274.8 600.315 274.8C593.475 274.8 587.235 270.6 584.835 264.36L571.275 271.8C573.795 276.96 577.755 281.16 583.155 284.28C588.555 287.52 594.435 289.08 600.675 289.08C610.275 289.08 617.955 286.32 623.835 280.68C629.715 275.04 632.715 267.72 632.715 258.48V204.48H618.315L616.275 213.24ZM591.675 243.72C589.035 240.96 587.715 237.24 587.715 232.56C587.715 227.88 589.035 224.16 591.675 221.4C594.315 218.52 597.795 217.08 601.995 217.08C606.195 217.08 609.675 218.52 612.315 221.4C614.955 224.16 616.275 227.88 616.275 232.56C616.275 237.24 614.955 240.96 612.315 243.72C609.675 246.48 606.195 247.92 601.995 247.92C597.795 247.92 594.315 246.48 591.675 243.72ZM549.567 376.8C555.327 371.04 558.207 363.48 558.207 354.12C558.207 344.76 555.327 337.2 549.567 331.56C543.807 325.8 536.247 322.92 526.767 322.92C517.287 322.92 509.727 325.8 503.847 331.56C498.087 337.2 495.207 344.76 495.207 354.12C495.207 363.48 498.087 371.04 503.847 376.8C509.727 382.44 517.287 385.32 526.767 385.32C536.247 385.32 543.807 382.44 549.567 376.8ZM516.087 365.64C513.327 362.64 512.007 358.8 512.007 354.12C512.007 349.44 513.327 345.6 516.087 342.72C518.847 339.72 522.327 338.28 526.767 338.28C531.207 338.28 534.687 339.72 537.327 342.72C540.087 345.6 541.407 349.44 541.407 354.12C541.407 358.8 540.087 362.64 537.327 365.64C534.687 368.52 531.207 369.96 526.767 369.96C522.327 369.96 518.847 368.52 516.087 365.64ZM605.071 323.04C596.311 323.04 588.991 327.24 586.951 333.84H586.591L584.431 324.48H570.151V384H586.591V351.96C586.591 343.92 591.391 338.4 598.711 338.4C605.431 338.4 610.111 343.56 610.111 351.24V384H626.551V345.6C626.551 332.04 618.031 323.04 605.071 323.04ZM638.452 384H656.692V365.76H638.452V384Z" fill="#2A1B3C"/>
</svg>
